<mxfile host="app.diagrams.net" agent="Mozilla/5.0 (Windows NT 10.0; Win64; x64) AppleWebKit/537.36 (KHTML, like Gecko) Chrome/130.0.0.0 Safari/537.36" version="24.8.6">
  <diagram name="Страница — 1" id="Pw3dWoZ9kqQxSuHY3JxT">
    <mxGraphModel dx="1242" dy="785" grid="1" gridSize="10" guides="1" tooltips="1" connect="1" arrows="1" fold="1" page="1" pageScale="1" pageWidth="827" pageHeight="1169" background="none" math="0" shadow="0">
      <root>
        <mxCell id="0" />
        <mxCell id="1" parent="0" />
        <mxCell id="pMrcGOLwk-OuIuiQOvmT-1" value="x1" style="ellipse;whiteSpace=wrap;html=1;aspect=fixed;" parent="1" vertex="1">
          <mxGeometry x="160" y="390" width="40" height="40" as="geometry" />
        </mxCell>
        <mxCell id="pMrcGOLwk-OuIuiQOvmT-3" value="x7" style="ellipse;whiteSpace=wrap;html=1;aspect=fixed;" parent="1" vertex="1">
          <mxGeometry x="400" y="370" width="40" height="40" as="geometry" />
        </mxCell>
        <mxCell id="pMrcGOLwk-OuIuiQOvmT-4" value="x5" style="ellipse;whiteSpace=wrap;html=1;aspect=fixed;" parent="1" vertex="1">
          <mxGeometry x="260" y="450" width="40" height="40" as="geometry" />
        </mxCell>
        <mxCell id="pMrcGOLwk-OuIuiQOvmT-5" value="x6" style="ellipse;whiteSpace=wrap;html=1;aspect=fixed;" parent="1" vertex="1">
          <mxGeometry x="360" y="480" width="40" height="40" as="geometry" />
        </mxCell>
        <mxCell id="pMrcGOLwk-OuIuiQOvmT-6" value="x9" style="ellipse;whiteSpace=wrap;html=1;aspect=fixed;" parent="1" vertex="1">
          <mxGeometry x="480" y="470" width="40" height="40" as="geometry" />
        </mxCell>
        <mxCell id="pMrcGOLwk-OuIuiQOvmT-8" value="x2" style="ellipse;whiteSpace=wrap;html=1;aspect=fixed;" parent="1" vertex="1">
          <mxGeometry x="250" y="300" width="40" height="40" as="geometry" />
        </mxCell>
        <mxCell id="pMrcGOLwk-OuIuiQOvmT-9" value="x4" style="ellipse;whiteSpace=wrap;html=1;aspect=fixed;" parent="1" vertex="1">
          <mxGeometry x="314" y="350" width="40" height="40" as="geometry" />
        </mxCell>
        <mxCell id="pMrcGOLwk-OuIuiQOvmT-10" value="x3" style="ellipse;whiteSpace=wrap;html=1;aspect=fixed;" parent="1" vertex="1">
          <mxGeometry x="414" y="270" width="40" height="40" as="geometry" />
        </mxCell>
        <mxCell id="b7OoH07M5vMIsxXB9R5--22" value="v21" style="edgeStyle=orthogonalEdgeStyle;rounded=0;orthogonalLoop=1;jettySize=auto;html=1;entryX=0;entryY=0.5;entryDx=0;entryDy=0;" edge="1" parent="1" source="pMrcGOLwk-OuIuiQOvmT-11" target="pMrcGOLwk-OuIuiQOvmT-1">
          <mxGeometry relative="1" as="geometry">
            <Array as="points">
              <mxPoint x="660" y="538" />
              <mxPoint x="140" y="538" />
              <mxPoint x="140" y="410" />
            </Array>
          </mxGeometry>
        </mxCell>
        <mxCell id="pMrcGOLwk-OuIuiQOvmT-11" value="x11" style="ellipse;whiteSpace=wrap;html=1;aspect=fixed;" parent="1" vertex="1">
          <mxGeometry x="640" y="450" width="40" height="40" as="geometry" />
        </mxCell>
        <mxCell id="pMrcGOLwk-OuIuiQOvmT-12" value="x8" style="ellipse;whiteSpace=wrap;html=1;aspect=fixed;" parent="1" vertex="1">
          <mxGeometry x="520" y="350" width="40" height="40" as="geometry" />
        </mxCell>
        <mxCell id="pMrcGOLwk-OuIuiQOvmT-14" value="x10" style="ellipse;whiteSpace=wrap;html=1;aspect=fixed;" parent="1" vertex="1">
          <mxGeometry x="590" y="240" width="40" height="40" as="geometry" />
        </mxCell>
        <mxCell id="pMrcGOLwk-OuIuiQOvmT-15" value="x12" style="ellipse;whiteSpace=wrap;html=1;aspect=fixed;" parent="1" vertex="1">
          <mxGeometry x="680" y="330" width="40" height="40" as="geometry" />
        </mxCell>
        <mxCell id="pMrcGOLwk-OuIuiQOvmT-19" value="v1" style="endArrow=classic;html=1;rounded=0;exitX=0.753;exitY=0.055;exitDx=0;exitDy=0;exitPerimeter=0;entryX=0;entryY=1;entryDx=0;entryDy=0;" parent="1" source="pMrcGOLwk-OuIuiQOvmT-1" target="pMrcGOLwk-OuIuiQOvmT-8" edge="1">
          <mxGeometry width="50" height="50" relative="1" as="geometry">
            <mxPoint x="420" y="360" as="sourcePoint" />
            <mxPoint x="470" y="310" as="targetPoint" />
          </mxGeometry>
        </mxCell>
        <mxCell id="pMrcGOLwk-OuIuiQOvmT-20" value="v6" style="endArrow=classic;html=1;rounded=0;exitX=1;exitY=1;exitDx=0;exitDy=0;entryX=0;entryY=0;entryDx=0;entryDy=0;" parent="1" source="pMrcGOLwk-OuIuiQOvmT-8" target="pMrcGOLwk-OuIuiQOvmT-9" edge="1">
          <mxGeometry width="50" height="50" relative="1" as="geometry">
            <mxPoint x="200" y="402" as="sourcePoint" />
            <mxPoint x="266" y="344" as="targetPoint" />
          </mxGeometry>
        </mxCell>
        <mxCell id="pMrcGOLwk-OuIuiQOvmT-21" value="v2" style="endArrow=classic;html=1;rounded=0;exitX=0.5;exitY=1;exitDx=0;exitDy=0;entryX=0.5;entryY=0;entryDx=0;entryDy=0;" parent="1" source="pMrcGOLwk-OuIuiQOvmT-8" target="pMrcGOLwk-OuIuiQOvmT-4" edge="1">
          <mxGeometry width="50" height="50" relative="1" as="geometry">
            <mxPoint x="294" y="344" as="sourcePoint" />
            <mxPoint x="330" y="366" as="targetPoint" />
          </mxGeometry>
        </mxCell>
        <mxCell id="pMrcGOLwk-OuIuiQOvmT-22" value="v5" style="endArrow=classic;html=1;rounded=0;exitX=0;exitY=0.5;exitDx=0;exitDy=0;entryX=0.986;entryY=0.322;entryDx=0;entryDy=0;entryPerimeter=0;" parent="1" source="pMrcGOLwk-OuIuiQOvmT-10" target="pMrcGOLwk-OuIuiQOvmT-8" edge="1">
          <mxGeometry width="50" height="50" relative="1" as="geometry">
            <mxPoint x="294" y="344" as="sourcePoint" />
            <mxPoint x="330" y="366" as="targetPoint" />
          </mxGeometry>
        </mxCell>
        <mxCell id="pMrcGOLwk-OuIuiQOvmT-23" value="v4" style="endArrow=classic;html=1;rounded=0;exitX=0.5;exitY=0;exitDx=0;exitDy=0;entryX=0.369;entryY=1.021;entryDx=0;entryDy=0;entryPerimeter=0;" parent="1" source="pMrcGOLwk-OuIuiQOvmT-3" target="pMrcGOLwk-OuIuiQOvmT-10" edge="1">
          <mxGeometry width="50" height="50" relative="1" as="geometry">
            <mxPoint x="294" y="344" as="sourcePoint" />
            <mxPoint x="330" y="366" as="targetPoint" />
          </mxGeometry>
        </mxCell>
        <mxCell id="pMrcGOLwk-OuIuiQOvmT-24" value="v3" style="endArrow=classic;html=1;rounded=0;exitX=0.96;exitY=0.262;exitDx=0;exitDy=0;entryX=0;entryY=1;entryDx=0;entryDy=0;exitPerimeter=0;" parent="1" source="pMrcGOLwk-OuIuiQOvmT-4" target="pMrcGOLwk-OuIuiQOvmT-3" edge="1">
          <mxGeometry x="-0.3819" y="3" width="50" height="50" relative="1" as="geometry">
            <mxPoint x="280" y="350" as="sourcePoint" />
            <mxPoint x="290" y="460" as="targetPoint" />
            <mxPoint y="-1" as="offset" />
          </mxGeometry>
        </mxCell>
        <mxCell id="pMrcGOLwk-OuIuiQOvmT-25" value="v7" style="endArrow=classic;html=1;rounded=0;exitX=0.5;exitY=1;exitDx=0;exitDy=0;entryX=0.5;entryY=0;entryDx=0;entryDy=0;" parent="1" source="pMrcGOLwk-OuIuiQOvmT-9" target="pMrcGOLwk-OuIuiQOvmT-5" edge="1">
          <mxGeometry x="0.3163" y="6" width="50" height="50" relative="1" as="geometry">
            <mxPoint x="420" y="360" as="sourcePoint" />
            <mxPoint x="470" y="310" as="targetPoint" />
            <mxPoint as="offset" />
          </mxGeometry>
        </mxCell>
        <mxCell id="pMrcGOLwk-OuIuiQOvmT-27" value="v8" style="endArrow=classic;html=1;rounded=0;exitX=1;exitY=0.5;exitDx=0;exitDy=0;entryX=0;entryY=0.5;entryDx=0;entryDy=0;" parent="1" source="pMrcGOLwk-OuIuiQOvmT-5" target="pMrcGOLwk-OuIuiQOvmT-6" edge="1">
          <mxGeometry width="50" height="50" relative="1" as="geometry">
            <mxPoint x="420" y="360" as="sourcePoint" />
            <mxPoint x="470" y="310" as="targetPoint" />
          </mxGeometry>
        </mxCell>
        <mxCell id="pMrcGOLwk-OuIuiQOvmT-28" value="v9" style="endArrow=classic;html=1;rounded=0;exitX=0.5;exitY=0;exitDx=0;exitDy=0;entryX=0;entryY=1;entryDx=0;entryDy=0;" parent="1" source="pMrcGOLwk-OuIuiQOvmT-6" target="pMrcGOLwk-OuIuiQOvmT-12" edge="1">
          <mxGeometry width="50" height="50" relative="1" as="geometry">
            <mxPoint x="420" y="360" as="sourcePoint" />
            <mxPoint x="470" y="310" as="targetPoint" />
          </mxGeometry>
        </mxCell>
        <mxCell id="pMrcGOLwk-OuIuiQOvmT-29" value="v10" style="endArrow=classic;html=1;rounded=0;exitX=0;exitY=0.5;exitDx=0;exitDy=0;entryX=1;entryY=0.5;entryDx=0;entryDy=0;" parent="1" source="pMrcGOLwk-OuIuiQOvmT-12" target="pMrcGOLwk-OuIuiQOvmT-3" edge="1">
          <mxGeometry width="50" height="50" relative="1" as="geometry">
            <mxPoint x="420" y="360" as="sourcePoint" />
            <mxPoint x="470" y="310" as="targetPoint" />
          </mxGeometry>
        </mxCell>
        <mxCell id="pMrcGOLwk-OuIuiQOvmT-31" value="v11" style="endArrow=classic;html=1;rounded=0;exitX=1;exitY=0;exitDx=0;exitDy=0;entryX=0.072;entryY=0.753;entryDx=0;entryDy=0;entryPerimeter=0;" parent="1" source="pMrcGOLwk-OuIuiQOvmT-3" target="pMrcGOLwk-OuIuiQOvmT-14" edge="1">
          <mxGeometry width="50" height="50" relative="1" as="geometry">
            <mxPoint x="420" y="360" as="sourcePoint" />
            <mxPoint x="470" y="310" as="targetPoint" />
          </mxGeometry>
        </mxCell>
        <mxCell id="pMrcGOLwk-OuIuiQOvmT-32" value="v12" style="endArrow=classic;html=1;rounded=0;exitX=1;exitY=1;exitDx=0;exitDy=0;entryX=0.5;entryY=0;entryDx=0;entryDy=0;" parent="1" source="pMrcGOLwk-OuIuiQOvmT-14" target="pMrcGOLwk-OuIuiQOvmT-15" edge="1">
          <mxGeometry width="50" height="50" relative="1" as="geometry">
            <mxPoint x="420" y="360" as="sourcePoint" />
            <mxPoint x="470" y="310" as="targetPoint" />
          </mxGeometry>
        </mxCell>
        <mxCell id="pMrcGOLwk-OuIuiQOvmT-33" value="v13" style="endArrow=classic;html=1;rounded=0;entryX=0.374;entryY=0.952;entryDx=0;entryDy=0;entryPerimeter=0;exitX=0.633;exitY=-0.066;exitDx=0;exitDy=0;exitPerimeter=0;curved=1;" parent="1" source="pMrcGOLwk-OuIuiQOvmT-11" target="pMrcGOLwk-OuIuiQOvmT-15" edge="1">
          <mxGeometry width="50" height="50" relative="1" as="geometry">
            <mxPoint x="420" y="360" as="sourcePoint" />
            <mxPoint x="470" y="310" as="targetPoint" />
            <Array as="points">
              <mxPoint x="690" y="440" />
              <mxPoint x="700" y="420" />
              <mxPoint x="700" y="390" />
            </Array>
          </mxGeometry>
        </mxCell>
        <mxCell id="pMrcGOLwk-OuIuiQOvmT-35" value="v14" style="endArrow=classic;html=1;rounded=0;exitX=0;exitY=1;exitDx=0;exitDy=0;entryX=0.5;entryY=0;entryDx=0;entryDy=0;curved=1;" parent="1" source="pMrcGOLwk-OuIuiQOvmT-15" target="pMrcGOLwk-OuIuiQOvmT-11" edge="1">
          <mxGeometry width="50" height="50" relative="1" as="geometry">
            <mxPoint x="420" y="360" as="sourcePoint" />
            <mxPoint x="470" y="310" as="targetPoint" />
            <Array as="points">
              <mxPoint x="650" y="400" />
            </Array>
          </mxGeometry>
        </mxCell>
        <mxCell id="pMrcGOLwk-OuIuiQOvmT-36" value="v17" style="endArrow=classic;html=1;rounded=0;exitX=1;exitY=0.5;exitDx=0;exitDy=0;entryX=0;entryY=0.5;entryDx=0;entryDy=0;" parent="1" source="pMrcGOLwk-OuIuiQOvmT-12" target="pMrcGOLwk-OuIuiQOvmT-15" edge="1">
          <mxGeometry width="50" height="50" relative="1" as="geometry">
            <mxPoint x="420" y="360" as="sourcePoint" />
            <mxPoint x="470" y="310" as="targetPoint" />
          </mxGeometry>
        </mxCell>
        <mxCell id="pMrcGOLwk-OuIuiQOvmT-37" value="v16" style="endArrow=classic;html=1;rounded=0;exitX=0.99;exitY=0.366;exitDx=0;exitDy=0;exitPerimeter=0;entryX=0;entryY=0.5;entryDx=0;entryDy=0;" parent="1" source="pMrcGOLwk-OuIuiQOvmT-10" target="pMrcGOLwk-OuIuiQOvmT-14" edge="1">
          <mxGeometry width="50" height="50" relative="1" as="geometry">
            <mxPoint x="420" y="360" as="sourcePoint" />
            <mxPoint x="470" y="310" as="targetPoint" />
          </mxGeometry>
        </mxCell>
        <mxCell id="pMrcGOLwk-OuIuiQOvmT-38" value="v15" style="endArrow=classic;html=1;rounded=0;exitX=0.5;exitY=1;exitDx=0;exitDy=0;entryX=0.771;entryY=0.029;entryDx=0;entryDy=0;entryPerimeter=0;" parent="1" source="pMrcGOLwk-OuIuiQOvmT-3" target="pMrcGOLwk-OuIuiQOvmT-5" edge="1">
          <mxGeometry width="50" height="50" relative="1" as="geometry">
            <mxPoint x="420" y="360" as="sourcePoint" />
            <mxPoint x="470" y="310" as="targetPoint" />
          </mxGeometry>
        </mxCell>
        <mxCell id="pMrcGOLwk-OuIuiQOvmT-39" value="v18" style="endArrow=classic;html=1;rounded=0;exitX=1;exitY=1;exitDx=0;exitDy=0;entryX=0;entryY=0;entryDx=0;entryDy=0;" parent="1" source="pMrcGOLwk-OuIuiQOvmT-1" target="pMrcGOLwk-OuIuiQOvmT-4" edge="1">
          <mxGeometry width="50" height="50" relative="1" as="geometry">
            <mxPoint x="420" y="360" as="sourcePoint" />
            <mxPoint x="470" y="310" as="targetPoint" />
          </mxGeometry>
        </mxCell>
        <mxCell id="pMrcGOLwk-OuIuiQOvmT-40" value="v19" style="endArrow=classic;html=1;rounded=0;exitX=0.5;exitY=1;exitDx=0;exitDy=0;entryX=0;entryY=0.5;entryDx=0;entryDy=0;curved=1;" parent="1" source="pMrcGOLwk-OuIuiQOvmT-1" target="pMrcGOLwk-OuIuiQOvmT-4" edge="1">
          <mxGeometry width="50" height="50" relative="1" as="geometry">
            <mxPoint x="420" y="360" as="sourcePoint" />
            <mxPoint x="470" y="310" as="targetPoint" />
            <Array as="points">
              <mxPoint x="210" y="460" />
            </Array>
          </mxGeometry>
        </mxCell>
        <mxCell id="pMrcGOLwk-OuIuiQOvmT-41" value="v20" style="endArrow=classic;html=1;rounded=0;exitX=0.5;exitY=0;exitDx=0;exitDy=0;entryX=0;entryY=0.5;entryDx=0;entryDy=0;curved=1;" parent="1" source="pMrcGOLwk-OuIuiQOvmT-1" target="pMrcGOLwk-OuIuiQOvmT-8" edge="1">
          <mxGeometry width="50" height="50" relative="1" as="geometry">
            <mxPoint x="420" y="360" as="sourcePoint" />
            <mxPoint x="470" y="310" as="targetPoint" />
            <Array as="points">
              <mxPoint x="200" y="340" />
            </Array>
          </mxGeometry>
        </mxCell>
        <mxCell id="pMrcGOLwk-OuIuiQOvmT-42" value="x1" style="ellipse;whiteSpace=wrap;html=1;aspect=fixed;" parent="1" vertex="1">
          <mxGeometry x="170" y="790" width="40" height="40" as="geometry" />
        </mxCell>
        <mxCell id="pMrcGOLwk-OuIuiQOvmT-43" value="x7" style="ellipse;whiteSpace=wrap;html=1;aspect=fixed;" parent="1" vertex="1">
          <mxGeometry x="410" y="770" width="40" height="40" as="geometry" />
        </mxCell>
        <mxCell id="pMrcGOLwk-OuIuiQOvmT-44" value="x5" style="ellipse;whiteSpace=wrap;html=1;aspect=fixed;" parent="1" vertex="1">
          <mxGeometry x="270" y="850" width="40" height="40" as="geometry" />
        </mxCell>
        <mxCell id="pMrcGOLwk-OuIuiQOvmT-45" value="x6" style="ellipse;whiteSpace=wrap;html=1;aspect=fixed;" parent="1" vertex="1">
          <mxGeometry x="370" y="880" width="40" height="40" as="geometry" />
        </mxCell>
        <mxCell id="pMrcGOLwk-OuIuiQOvmT-46" value="x9" style="ellipse;whiteSpace=wrap;html=1;aspect=fixed;" parent="1" vertex="1">
          <mxGeometry x="490" y="870" width="40" height="40" as="geometry" />
        </mxCell>
        <mxCell id="pMrcGOLwk-OuIuiQOvmT-47" value="x2" style="ellipse;whiteSpace=wrap;html=1;aspect=fixed;" parent="1" vertex="1">
          <mxGeometry x="260" y="700" width="40" height="40" as="geometry" />
        </mxCell>
        <mxCell id="pMrcGOLwk-OuIuiQOvmT-48" value="x4" style="ellipse;whiteSpace=wrap;html=1;aspect=fixed;" parent="1" vertex="1">
          <mxGeometry x="324" y="750" width="40" height="40" as="geometry" />
        </mxCell>
        <mxCell id="pMrcGOLwk-OuIuiQOvmT-49" value="x3" style="ellipse;whiteSpace=wrap;html=1;aspect=fixed;" parent="1" vertex="1">
          <mxGeometry x="424" y="670" width="40" height="40" as="geometry" />
        </mxCell>
        <mxCell id="pMrcGOLwk-OuIuiQOvmT-50" value="x11" style="ellipse;whiteSpace=wrap;html=1;aspect=fixed;" parent="1" vertex="1">
          <mxGeometry x="650" y="850" width="40" height="40" as="geometry" />
        </mxCell>
        <mxCell id="pMrcGOLwk-OuIuiQOvmT-51" value="x8" style="ellipse;whiteSpace=wrap;html=1;aspect=fixed;" parent="1" vertex="1">
          <mxGeometry x="530" y="750" width="40" height="40" as="geometry" />
        </mxCell>
        <mxCell id="pMrcGOLwk-OuIuiQOvmT-52" value="x10" style="ellipse;whiteSpace=wrap;html=1;aspect=fixed;" parent="1" vertex="1">
          <mxGeometry x="600" y="640" width="40" height="40" as="geometry" />
        </mxCell>
        <mxCell id="pMrcGOLwk-OuIuiQOvmT-53" value="x12" style="ellipse;whiteSpace=wrap;html=1;aspect=fixed;" parent="1" vertex="1">
          <mxGeometry x="690" y="730" width="40" height="40" as="geometry" />
        </mxCell>
        <mxCell id="pMrcGOLwk-OuIuiQOvmT-74" value="v1" style="endArrow=none;html=1;rounded=0;exitX=0.5;exitY=0;exitDx=0;exitDy=0;entryX=0;entryY=0.5;entryDx=0;entryDy=0;" parent="1" source="pMrcGOLwk-OuIuiQOvmT-42" target="pMrcGOLwk-OuIuiQOvmT-47" edge="1">
          <mxGeometry width="50" height="50" relative="1" as="geometry">
            <mxPoint x="420" y="780" as="sourcePoint" />
            <mxPoint x="470" y="730" as="targetPoint" />
          </mxGeometry>
        </mxCell>
        <mxCell id="pMrcGOLwk-OuIuiQOvmT-75" value="v20" style="endArrow=none;html=1;rounded=0;exitX=1;exitY=0;exitDx=0;exitDy=0;entryX=0;entryY=1;entryDx=0;entryDy=0;" parent="1" source="pMrcGOLwk-OuIuiQOvmT-42" target="pMrcGOLwk-OuIuiQOvmT-47" edge="1">
          <mxGeometry width="50" height="50" relative="1" as="geometry">
            <mxPoint x="200" y="800" as="sourcePoint" />
            <mxPoint x="270" y="730" as="targetPoint" />
          </mxGeometry>
        </mxCell>
        <mxCell id="pMrcGOLwk-OuIuiQOvmT-76" value="v18" style="endArrow=none;html=1;rounded=0;exitX=0.952;exitY=0.745;exitDx=0;exitDy=0;exitPerimeter=0;entryX=0;entryY=0;entryDx=0;entryDy=0;" parent="1" source="pMrcGOLwk-OuIuiQOvmT-42" target="pMrcGOLwk-OuIuiQOvmT-44" edge="1">
          <mxGeometry width="50" height="50" relative="1" as="geometry">
            <mxPoint x="420" y="780" as="sourcePoint" />
            <mxPoint x="470" y="730" as="targetPoint" />
          </mxGeometry>
        </mxCell>
        <mxCell id="pMrcGOLwk-OuIuiQOvmT-77" value="v19" style="endArrow=none;html=1;rounded=0;exitX=0.659;exitY=1.003;exitDx=0;exitDy=0;exitPerimeter=0;entryX=0;entryY=0.5;entryDx=0;entryDy=0;" parent="1" source="pMrcGOLwk-OuIuiQOvmT-42" target="pMrcGOLwk-OuIuiQOvmT-44" edge="1">
          <mxGeometry width="50" height="50" relative="1" as="geometry">
            <mxPoint x="218" y="830" as="sourcePoint" />
            <mxPoint x="286" y="866" as="targetPoint" />
          </mxGeometry>
        </mxCell>
        <mxCell id="pMrcGOLwk-OuIuiQOvmT-78" value="v2" style="endArrow=none;html=1;rounded=0;exitX=0.5;exitY=1;exitDx=0;exitDy=0;entryX=0.5;entryY=0;entryDx=0;entryDy=0;" parent="1" source="pMrcGOLwk-OuIuiQOvmT-47" target="pMrcGOLwk-OuIuiQOvmT-44" edge="1">
          <mxGeometry width="50" height="50" relative="1" as="geometry">
            <mxPoint x="420" y="780" as="sourcePoint" />
            <mxPoint x="470" y="730" as="targetPoint" />
          </mxGeometry>
        </mxCell>
        <mxCell id="pMrcGOLwk-OuIuiQOvmT-79" value="v6" style="endArrow=none;html=1;rounded=0;exitX=1;exitY=1;exitDx=0;exitDy=0;entryX=0;entryY=0;entryDx=0;entryDy=0;" parent="1" source="pMrcGOLwk-OuIuiQOvmT-47" target="pMrcGOLwk-OuIuiQOvmT-48" edge="1">
          <mxGeometry width="50" height="50" relative="1" as="geometry">
            <mxPoint x="420" y="780" as="sourcePoint" />
            <mxPoint x="470" y="730" as="targetPoint" />
          </mxGeometry>
        </mxCell>
        <mxCell id="pMrcGOLwk-OuIuiQOvmT-80" value="v3" style="endArrow=none;html=1;rounded=0;exitX=1;exitY=0.25;exitDx=0;exitDy=0;exitPerimeter=0;entryX=0;entryY=1;entryDx=0;entryDy=0;" parent="1" source="pMrcGOLwk-OuIuiQOvmT-44" target="pMrcGOLwk-OuIuiQOvmT-43" edge="1">
          <mxGeometry x="-0.4787" y="-5" width="50" height="50" relative="1" as="geometry">
            <mxPoint x="420" y="780" as="sourcePoint" />
            <mxPoint x="470" y="730" as="targetPoint" />
            <mxPoint as="offset" />
          </mxGeometry>
        </mxCell>
        <mxCell id="pMrcGOLwk-OuIuiQOvmT-81" value="v7" style="endArrow=none;html=1;rounded=0;exitX=1;exitY=1;exitDx=0;exitDy=0;entryX=0.5;entryY=0;entryDx=0;entryDy=0;" parent="1" source="pMrcGOLwk-OuIuiQOvmT-48" target="pMrcGOLwk-OuIuiQOvmT-45" edge="1">
          <mxGeometry x="0.5618" y="-3" width="50" height="50" relative="1" as="geometry">
            <mxPoint x="420" y="780" as="sourcePoint" />
            <mxPoint x="470" y="730" as="targetPoint" />
            <mxPoint as="offset" />
          </mxGeometry>
        </mxCell>
        <mxCell id="pMrcGOLwk-OuIuiQOvmT-82" value="v8" style="endArrow=none;html=1;rounded=0;exitX=1;exitY=0.5;exitDx=0;exitDy=0;entryX=0;entryY=0.5;entryDx=0;entryDy=0;" parent="1" source="pMrcGOLwk-OuIuiQOvmT-45" target="pMrcGOLwk-OuIuiQOvmT-46" edge="1">
          <mxGeometry width="50" height="50" relative="1" as="geometry">
            <mxPoint x="420" y="780" as="sourcePoint" />
            <mxPoint x="470" y="730" as="targetPoint" />
          </mxGeometry>
        </mxCell>
        <mxCell id="pMrcGOLwk-OuIuiQOvmT-83" value="v9" style="endArrow=none;html=1;rounded=0;exitX=0.5;exitY=0;exitDx=0;exitDy=0;entryX=0.5;entryY=1;entryDx=0;entryDy=0;" parent="1" source="pMrcGOLwk-OuIuiQOvmT-46" target="pMrcGOLwk-OuIuiQOvmT-51" edge="1">
          <mxGeometry width="50" height="50" relative="1" as="geometry">
            <mxPoint x="420" y="780" as="sourcePoint" />
            <mxPoint x="470" y="730" as="targetPoint" />
          </mxGeometry>
        </mxCell>
        <mxCell id="pMrcGOLwk-OuIuiQOvmT-84" value="v11" style="endArrow=none;html=1;rounded=0;exitX=1;exitY=0;exitDx=0;exitDy=0;entryX=0;entryY=1;entryDx=0;entryDy=0;" parent="1" source="pMrcGOLwk-OuIuiQOvmT-43" target="pMrcGOLwk-OuIuiQOvmT-52" edge="1">
          <mxGeometry width="50" height="50" relative="1" as="geometry">
            <mxPoint x="420" y="780" as="sourcePoint" />
            <mxPoint x="470" y="730" as="targetPoint" />
          </mxGeometry>
        </mxCell>
        <mxCell id="pMrcGOLwk-OuIuiQOvmT-85" value="v5" style="endArrow=none;html=1;rounded=0;exitX=0;exitY=0.5;exitDx=0;exitDy=0;entryX=1;entryY=0.5;entryDx=0;entryDy=0;" parent="1" source="pMrcGOLwk-OuIuiQOvmT-49" target="pMrcGOLwk-OuIuiQOvmT-47" edge="1">
          <mxGeometry width="50" height="50" relative="1" as="geometry">
            <mxPoint x="420" y="780" as="sourcePoint" />
            <mxPoint x="470" y="730" as="targetPoint" />
          </mxGeometry>
        </mxCell>
        <mxCell id="pMrcGOLwk-OuIuiQOvmT-86" value="v16" style="endArrow=none;html=1;rounded=0;exitX=1;exitY=0.5;exitDx=0;exitDy=0;entryX=0;entryY=0.5;entryDx=0;entryDy=0;" parent="1" source="pMrcGOLwk-OuIuiQOvmT-49" target="pMrcGOLwk-OuIuiQOvmT-52" edge="1">
          <mxGeometry width="50" height="50" relative="1" as="geometry">
            <mxPoint x="420" y="780" as="sourcePoint" />
            <mxPoint x="470" y="730" as="targetPoint" />
          </mxGeometry>
        </mxCell>
        <mxCell id="pMrcGOLwk-OuIuiQOvmT-87" value="v12" style="endArrow=none;html=1;rounded=0;exitX=0.5;exitY=0;exitDx=0;exitDy=0;" parent="1" source="pMrcGOLwk-OuIuiQOvmT-53" target="pMrcGOLwk-OuIuiQOvmT-52" edge="1">
          <mxGeometry width="50" height="50" relative="1" as="geometry">
            <mxPoint x="420" y="780" as="sourcePoint" />
            <mxPoint x="470" y="730" as="targetPoint" />
          </mxGeometry>
        </mxCell>
        <mxCell id="pMrcGOLwk-OuIuiQOvmT-88" value="v13" style="endArrow=none;html=1;rounded=0;exitX=0.762;exitY=0.021;exitDx=0;exitDy=0;curved=1;entryX=0.5;entryY=1;entryDx=0;entryDy=0;exitPerimeter=0;" parent="1" source="pMrcGOLwk-OuIuiQOvmT-50" target="pMrcGOLwk-OuIuiQOvmT-53" edge="1">
          <mxGeometry x="0.0086" y="-7" width="50" height="50" relative="1" as="geometry">
            <mxPoint x="420" y="780" as="sourcePoint" />
            <mxPoint x="700" y="770" as="targetPoint" />
            <Array as="points">
              <mxPoint x="710" y="810" />
            </Array>
            <mxPoint as="offset" />
          </mxGeometry>
        </mxCell>
        <mxCell id="pMrcGOLwk-OuIuiQOvmT-89" value="v14" style="endArrow=none;html=1;rounded=0;exitX=0.5;exitY=0;exitDx=0;exitDy=0;entryX=0;entryY=1;entryDx=0;entryDy=0;curved=1;" parent="1" source="pMrcGOLwk-OuIuiQOvmT-50" target="pMrcGOLwk-OuIuiQOvmT-53" edge="1">
          <mxGeometry width="50" height="50" relative="1" as="geometry">
            <mxPoint x="420" y="780" as="sourcePoint" />
            <mxPoint x="470" y="730" as="targetPoint" />
            <Array as="points">
              <mxPoint x="660" y="800" />
            </Array>
          </mxGeometry>
        </mxCell>
        <mxCell id="pMrcGOLwk-OuIuiQOvmT-90" value="v18" style="endArrow=none;html=1;rounded=0;exitX=1;exitY=0.5;exitDx=0;exitDy=0;entryX=0;entryY=0.5;entryDx=0;entryDy=0;" parent="1" source="pMrcGOLwk-OuIuiQOvmT-51" target="pMrcGOLwk-OuIuiQOvmT-53" edge="1">
          <mxGeometry width="50" height="50" relative="1" as="geometry">
            <mxPoint x="390" y="780" as="sourcePoint" />
            <mxPoint x="440" y="730" as="targetPoint" />
          </mxGeometry>
        </mxCell>
        <mxCell id="pMrcGOLwk-OuIuiQOvmT-91" value="v10" style="endArrow=none;html=1;rounded=0;exitX=1;exitY=0.5;exitDx=0;exitDy=0;entryX=0;entryY=0.5;entryDx=0;entryDy=0;" parent="1" source="pMrcGOLwk-OuIuiQOvmT-43" target="pMrcGOLwk-OuIuiQOvmT-51" edge="1">
          <mxGeometry width="50" height="50" relative="1" as="geometry">
            <mxPoint x="390" y="780" as="sourcePoint" />
            <mxPoint x="440" y="730" as="targetPoint" />
          </mxGeometry>
        </mxCell>
        <mxCell id="pMrcGOLwk-OuIuiQOvmT-92" value="v15" style="endArrow=none;html=1;rounded=0;entryX=1;entryY=0;entryDx=0;entryDy=0;" parent="1" target="pMrcGOLwk-OuIuiQOvmT-45" edge="1">
          <mxGeometry width="50" height="50" relative="1" as="geometry">
            <mxPoint x="430" y="810" as="sourcePoint" />
            <mxPoint x="440" y="730" as="targetPoint" />
          </mxGeometry>
        </mxCell>
        <mxCell id="pMrcGOLwk-OuIuiQOvmT-93" value="v4" style="endArrow=none;html=1;rounded=0;exitX=0.5;exitY=0;exitDx=0;exitDy=0;entryX=0.378;entryY=1.021;entryDx=0;entryDy=0;entryPerimeter=0;" parent="1" source="pMrcGOLwk-OuIuiQOvmT-43" target="pMrcGOLwk-OuIuiQOvmT-49" edge="1">
          <mxGeometry width="50" height="50" relative="1" as="geometry">
            <mxPoint x="390" y="780" as="sourcePoint" />
            <mxPoint x="440" y="730" as="targetPoint" />
          </mxGeometry>
        </mxCell>
        <mxCell id="b7OoH07M5vMIsxXB9R5--23" value="v21" style="endArrow=none;html=1;rounded=0;exitX=0.5;exitY=1;exitDx=0;exitDy=0;entryX=0;entryY=0.5;entryDx=0;entryDy=0;edgeStyle=orthogonalEdgeStyle;" edge="1" parent="1" source="pMrcGOLwk-OuIuiQOvmT-50" target="pMrcGOLwk-OuIuiQOvmT-42">
          <mxGeometry width="50" height="50" relative="1" as="geometry">
            <mxPoint x="387" y="699" as="sourcePoint" />
            <mxPoint x="437" y="649" as="targetPoint" />
            <Array as="points">
              <mxPoint x="670" y="928" />
              <mxPoint x="160" y="928" />
              <mxPoint x="160" y="810" />
            </Array>
          </mxGeometry>
        </mxCell>
        <mxCell id="b7OoH07M5vMIsxXB9R5--24" value="x1" style="ellipse;whiteSpace=wrap;html=1;aspect=fixed;" vertex="1" parent="1">
          <mxGeometry x="951" y="374" width="40" height="40" as="geometry" />
        </mxCell>
        <mxCell id="b7OoH07M5vMIsxXB9R5--25" value="x7" style="ellipse;whiteSpace=wrap;html=1;aspect=fixed;" vertex="1" parent="1">
          <mxGeometry x="1191" y="354" width="40" height="40" as="geometry" />
        </mxCell>
        <mxCell id="b7OoH07M5vMIsxXB9R5--26" value="x5" style="ellipse;whiteSpace=wrap;html=1;aspect=fixed;" vertex="1" parent="1">
          <mxGeometry x="1051" y="434" width="40" height="40" as="geometry" />
        </mxCell>
        <mxCell id="b7OoH07M5vMIsxXB9R5--27" value="x6" style="ellipse;whiteSpace=wrap;html=1;aspect=fixed;" vertex="1" parent="1">
          <mxGeometry x="1151" y="464" width="40" height="40" as="geometry" />
        </mxCell>
        <mxCell id="b7OoH07M5vMIsxXB9R5--28" value="x9" style="ellipse;whiteSpace=wrap;html=1;aspect=fixed;" vertex="1" parent="1">
          <mxGeometry x="1271" y="454" width="40" height="40" as="geometry" />
        </mxCell>
        <mxCell id="b7OoH07M5vMIsxXB9R5--29" value="x2" style="ellipse;whiteSpace=wrap;html=1;aspect=fixed;" vertex="1" parent="1">
          <mxGeometry x="1041" y="284" width="40" height="40" as="geometry" />
        </mxCell>
        <mxCell id="b7OoH07M5vMIsxXB9R5--30" value="x4" style="ellipse;whiteSpace=wrap;html=1;aspect=fixed;" vertex="1" parent="1">
          <mxGeometry x="1105" y="334" width="40" height="40" as="geometry" />
        </mxCell>
        <mxCell id="b7OoH07M5vMIsxXB9R5--31" value="x3" style="ellipse;whiteSpace=wrap;html=1;aspect=fixed;" vertex="1" parent="1">
          <mxGeometry x="1205" y="254" width="40" height="40" as="geometry" />
        </mxCell>
        <mxCell id="b7OoH07M5vMIsxXB9R5--32" value="v21" style="edgeStyle=orthogonalEdgeStyle;rounded=0;orthogonalLoop=1;jettySize=auto;html=1;entryX=0;entryY=0.5;entryDx=0;entryDy=0;" edge="1" parent="1" source="b7OoH07M5vMIsxXB9R5--33" target="b7OoH07M5vMIsxXB9R5--24">
          <mxGeometry relative="1" as="geometry">
            <Array as="points">
              <mxPoint x="1451" y="522" />
              <mxPoint x="931" y="522" />
              <mxPoint x="931" y="394" />
            </Array>
          </mxGeometry>
        </mxCell>
        <mxCell id="b7OoH07M5vMIsxXB9R5--33" value="x11" style="ellipse;whiteSpace=wrap;html=1;aspect=fixed;" vertex="1" parent="1">
          <mxGeometry x="1431" y="434" width="40" height="40" as="geometry" />
        </mxCell>
        <mxCell id="b7OoH07M5vMIsxXB9R5--34" value="x8" style="ellipse;whiteSpace=wrap;html=1;aspect=fixed;" vertex="1" parent="1">
          <mxGeometry x="1311" y="334" width="40" height="40" as="geometry" />
        </mxCell>
        <mxCell id="b7OoH07M5vMIsxXB9R5--35" value="x10" style="ellipse;whiteSpace=wrap;html=1;aspect=fixed;" vertex="1" parent="1">
          <mxGeometry x="1381" y="224" width="40" height="40" as="geometry" />
        </mxCell>
        <mxCell id="b7OoH07M5vMIsxXB9R5--36" value="x12" style="ellipse;whiteSpace=wrap;html=1;aspect=fixed;" vertex="1" parent="1">
          <mxGeometry x="1471" y="314" width="40" height="40" as="geometry" />
        </mxCell>
        <mxCell id="b7OoH07M5vMIsxXB9R5--37" value="v1" style="endArrow=classic;html=1;rounded=0;exitX=0.753;exitY=0.055;exitDx=0;exitDy=0;exitPerimeter=0;entryX=0;entryY=1;entryDx=0;entryDy=0;" edge="1" parent="1" source="b7OoH07M5vMIsxXB9R5--24" target="b7OoH07M5vMIsxXB9R5--29">
          <mxGeometry width="50" height="50" relative="1" as="geometry">
            <mxPoint x="1211" y="344" as="sourcePoint" />
            <mxPoint x="1261" y="294" as="targetPoint" />
          </mxGeometry>
        </mxCell>
        <mxCell id="b7OoH07M5vMIsxXB9R5--38" value="v6" style="endArrow=classic;html=1;rounded=0;exitX=1;exitY=1;exitDx=0;exitDy=0;entryX=0;entryY=0;entryDx=0;entryDy=0;" edge="1" parent="1" source="b7OoH07M5vMIsxXB9R5--29" target="b7OoH07M5vMIsxXB9R5--30">
          <mxGeometry width="50" height="50" relative="1" as="geometry">
            <mxPoint x="991" y="386" as="sourcePoint" />
            <mxPoint x="1057" y="328" as="targetPoint" />
          </mxGeometry>
        </mxCell>
        <mxCell id="b7OoH07M5vMIsxXB9R5--39" value="v2" style="endArrow=classic;html=1;rounded=0;exitX=0.5;exitY=1;exitDx=0;exitDy=0;entryX=0.5;entryY=0;entryDx=0;entryDy=0;" edge="1" parent="1" source="b7OoH07M5vMIsxXB9R5--29" target="b7OoH07M5vMIsxXB9R5--26">
          <mxGeometry width="50" height="50" relative="1" as="geometry">
            <mxPoint x="1085" y="328" as="sourcePoint" />
            <mxPoint x="1121" y="350" as="targetPoint" />
          </mxGeometry>
        </mxCell>
        <mxCell id="b7OoH07M5vMIsxXB9R5--40" value="v5" style="endArrow=classic;html=1;rounded=0;exitX=0;exitY=0.5;exitDx=0;exitDy=0;entryX=0.986;entryY=0.322;entryDx=0;entryDy=0;entryPerimeter=0;" edge="1" parent="1" source="b7OoH07M5vMIsxXB9R5--31" target="b7OoH07M5vMIsxXB9R5--29">
          <mxGeometry width="50" height="50" relative="1" as="geometry">
            <mxPoint x="1085" y="328" as="sourcePoint" />
            <mxPoint x="1121" y="350" as="targetPoint" />
          </mxGeometry>
        </mxCell>
        <mxCell id="b7OoH07M5vMIsxXB9R5--41" value="v4" style="endArrow=classic;html=1;rounded=0;exitX=0.5;exitY=0;exitDx=0;exitDy=0;entryX=0.369;entryY=1.021;entryDx=0;entryDy=0;entryPerimeter=0;" edge="1" parent="1" source="b7OoH07M5vMIsxXB9R5--25" target="b7OoH07M5vMIsxXB9R5--31">
          <mxGeometry width="50" height="50" relative="1" as="geometry">
            <mxPoint x="1085" y="328" as="sourcePoint" />
            <mxPoint x="1121" y="350" as="targetPoint" />
          </mxGeometry>
        </mxCell>
        <mxCell id="b7OoH07M5vMIsxXB9R5--42" value="v3" style="endArrow=classic;html=1;rounded=0;exitX=0.966;exitY=0.708;exitDx=0;exitDy=0;entryX=0;entryY=1;entryDx=0;entryDy=0;exitPerimeter=0;" edge="1" parent="1" source="b7OoH07M5vMIsxXB9R5--26" target="b7OoH07M5vMIsxXB9R5--25">
          <mxGeometry x="-0.3819" y="3" width="50" height="50" relative="1" as="geometry">
            <mxPoint x="1071" y="334" as="sourcePoint" />
            <mxPoint x="1081" y="444" as="targetPoint" />
            <mxPoint y="-1" as="offset" />
          </mxGeometry>
        </mxCell>
        <mxCell id="b7OoH07M5vMIsxXB9R5--43" value="v7" style="endArrow=classic;html=1;rounded=0;exitX=0.5;exitY=1;exitDx=0;exitDy=0;entryX=0.5;entryY=0;entryDx=0;entryDy=0;" edge="1" parent="1" source="b7OoH07M5vMIsxXB9R5--30" target="b7OoH07M5vMIsxXB9R5--27">
          <mxGeometry x="0.3163" y="6" width="50" height="50" relative="1" as="geometry">
            <mxPoint x="1211" y="344" as="sourcePoint" />
            <mxPoint x="1261" y="294" as="targetPoint" />
            <mxPoint as="offset" />
          </mxGeometry>
        </mxCell>
        <mxCell id="b7OoH07M5vMIsxXB9R5--44" value="v8" style="endArrow=classic;html=1;rounded=0;exitX=1;exitY=0.5;exitDx=0;exitDy=0;entryX=0;entryY=0.5;entryDx=0;entryDy=0;" edge="1" parent="1" source="b7OoH07M5vMIsxXB9R5--27" target="b7OoH07M5vMIsxXB9R5--28">
          <mxGeometry width="50" height="50" relative="1" as="geometry">
            <mxPoint x="1211" y="344" as="sourcePoint" />
            <mxPoint x="1261" y="294" as="targetPoint" />
          </mxGeometry>
        </mxCell>
        <mxCell id="b7OoH07M5vMIsxXB9R5--45" value="v9" style="endArrow=classic;html=1;rounded=0;exitX=0.5;exitY=0;exitDx=0;exitDy=0;entryX=0;entryY=1;entryDx=0;entryDy=0;" edge="1" parent="1" source="b7OoH07M5vMIsxXB9R5--28" target="b7OoH07M5vMIsxXB9R5--34">
          <mxGeometry width="50" height="50" relative="1" as="geometry">
            <mxPoint x="1211" y="344" as="sourcePoint" />
            <mxPoint x="1261" y="294" as="targetPoint" />
          </mxGeometry>
        </mxCell>
        <mxCell id="b7OoH07M5vMIsxXB9R5--46" value="v10" style="endArrow=classic;html=1;rounded=0;exitX=0;exitY=0.5;exitDx=0;exitDy=0;entryX=1;entryY=0.5;entryDx=0;entryDy=0;" edge="1" parent="1" source="b7OoH07M5vMIsxXB9R5--34" target="b7OoH07M5vMIsxXB9R5--25">
          <mxGeometry width="50" height="50" relative="1" as="geometry">
            <mxPoint x="1211" y="344" as="sourcePoint" />
            <mxPoint x="1261" y="294" as="targetPoint" />
          </mxGeometry>
        </mxCell>
        <mxCell id="b7OoH07M5vMIsxXB9R5--47" value="v11" style="endArrow=classic;html=1;rounded=0;exitX=1;exitY=0;exitDx=0;exitDy=0;entryX=0.072;entryY=0.753;entryDx=0;entryDy=0;entryPerimeter=0;" edge="1" parent="1" source="b7OoH07M5vMIsxXB9R5--25" target="b7OoH07M5vMIsxXB9R5--35">
          <mxGeometry width="50" height="50" relative="1" as="geometry">
            <mxPoint x="1211" y="344" as="sourcePoint" />
            <mxPoint x="1261" y="294" as="targetPoint" />
          </mxGeometry>
        </mxCell>
        <mxCell id="b7OoH07M5vMIsxXB9R5--48" value="v12" style="endArrow=classic;html=1;rounded=0;exitX=1;exitY=1;exitDx=0;exitDy=0;entryX=0.5;entryY=0;entryDx=0;entryDy=0;" edge="1" parent="1" source="b7OoH07M5vMIsxXB9R5--35" target="b7OoH07M5vMIsxXB9R5--36">
          <mxGeometry width="50" height="50" relative="1" as="geometry">
            <mxPoint x="1211" y="344" as="sourcePoint" />
            <mxPoint x="1261" y="294" as="targetPoint" />
          </mxGeometry>
        </mxCell>
        <mxCell id="b7OoH07M5vMIsxXB9R5--49" value="v13" style="endArrow=classic;html=1;rounded=0;entryX=0.374;entryY=0.952;entryDx=0;entryDy=0;entryPerimeter=0;exitX=0.633;exitY=-0.066;exitDx=0;exitDy=0;exitPerimeter=0;curved=1;" edge="1" parent="1" source="b7OoH07M5vMIsxXB9R5--33" target="b7OoH07M5vMIsxXB9R5--36">
          <mxGeometry width="50" height="50" relative="1" as="geometry">
            <mxPoint x="1211" y="344" as="sourcePoint" />
            <mxPoint x="1261" y="294" as="targetPoint" />
            <Array as="points">
              <mxPoint x="1481" y="424" />
              <mxPoint x="1491" y="404" />
              <mxPoint x="1491" y="374" />
            </Array>
          </mxGeometry>
        </mxCell>
        <mxCell id="b7OoH07M5vMIsxXB9R5--50" value="v14" style="endArrow=classic;html=1;rounded=0;exitX=0;exitY=1;exitDx=0;exitDy=0;entryX=0.5;entryY=0;entryDx=0;entryDy=0;curved=1;" edge="1" parent="1" source="b7OoH07M5vMIsxXB9R5--36" target="b7OoH07M5vMIsxXB9R5--33">
          <mxGeometry width="50" height="50" relative="1" as="geometry">
            <mxPoint x="1211" y="344" as="sourcePoint" />
            <mxPoint x="1261" y="294" as="targetPoint" />
            <Array as="points">
              <mxPoint x="1441" y="384" />
            </Array>
          </mxGeometry>
        </mxCell>
        <mxCell id="b7OoH07M5vMIsxXB9R5--51" value="v17" style="endArrow=classic;html=1;rounded=0;exitX=1;exitY=0.5;exitDx=0;exitDy=0;entryX=0;entryY=0.5;entryDx=0;entryDy=0;" edge="1" parent="1" source="b7OoH07M5vMIsxXB9R5--34" target="b7OoH07M5vMIsxXB9R5--36">
          <mxGeometry width="50" height="50" relative="1" as="geometry">
            <mxPoint x="1211" y="344" as="sourcePoint" />
            <mxPoint x="1261" y="294" as="targetPoint" />
          </mxGeometry>
        </mxCell>
        <mxCell id="b7OoH07M5vMIsxXB9R5--52" value="v16" style="endArrow=classic;html=1;rounded=0;exitX=0.99;exitY=0.366;exitDx=0;exitDy=0;exitPerimeter=0;entryX=0;entryY=0.5;entryDx=0;entryDy=0;" edge="1" parent="1" source="b7OoH07M5vMIsxXB9R5--31" target="b7OoH07M5vMIsxXB9R5--35">
          <mxGeometry width="50" height="50" relative="1" as="geometry">
            <mxPoint x="1211" y="344" as="sourcePoint" />
            <mxPoint x="1261" y="294" as="targetPoint" />
          </mxGeometry>
        </mxCell>
        <mxCell id="b7OoH07M5vMIsxXB9R5--53" value="v15" style="endArrow=classic;html=1;rounded=0;exitX=0.5;exitY=1;exitDx=0;exitDy=0;entryX=0.771;entryY=0.029;entryDx=0;entryDy=0;entryPerimeter=0;" edge="1" parent="1" source="b7OoH07M5vMIsxXB9R5--25" target="b7OoH07M5vMIsxXB9R5--27">
          <mxGeometry width="50" height="50" relative="1" as="geometry">
            <mxPoint x="1211" y="344" as="sourcePoint" />
            <mxPoint x="1261" y="294" as="targetPoint" />
          </mxGeometry>
        </mxCell>
        <mxCell id="b7OoH07M5vMIsxXB9R5--54" value="v18" style="endArrow=classic;html=1;rounded=0;exitX=1;exitY=1;exitDx=0;exitDy=0;entryX=0;entryY=0;entryDx=0;entryDy=0;" edge="1" parent="1" source="b7OoH07M5vMIsxXB9R5--24" target="b7OoH07M5vMIsxXB9R5--26">
          <mxGeometry width="50" height="50" relative="1" as="geometry">
            <mxPoint x="1211" y="344" as="sourcePoint" />
            <mxPoint x="1261" y="294" as="targetPoint" />
          </mxGeometry>
        </mxCell>
        <mxCell id="b7OoH07M5vMIsxXB9R5--55" value="v19" style="endArrow=classic;html=1;rounded=0;exitX=0.5;exitY=1;exitDx=0;exitDy=0;entryX=0;entryY=0.5;entryDx=0;entryDy=0;curved=1;" edge="1" parent="1" source="b7OoH07M5vMIsxXB9R5--24" target="b7OoH07M5vMIsxXB9R5--26">
          <mxGeometry width="50" height="50" relative="1" as="geometry">
            <mxPoint x="1211" y="344" as="sourcePoint" />
            <mxPoint x="1261" y="294" as="targetPoint" />
            <Array as="points">
              <mxPoint x="1001" y="444" />
            </Array>
          </mxGeometry>
        </mxCell>
        <mxCell id="b7OoH07M5vMIsxXB9R5--56" value="v20" style="endArrow=classic;html=1;rounded=0;exitX=0.5;exitY=0;exitDx=0;exitDy=0;entryX=0;entryY=0.5;entryDx=0;entryDy=0;curved=1;" edge="1" parent="1" source="b7OoH07M5vMIsxXB9R5--24" target="b7OoH07M5vMIsxXB9R5--29">
          <mxGeometry width="50" height="50" relative="1" as="geometry">
            <mxPoint x="1211" y="344" as="sourcePoint" />
            <mxPoint x="1261" y="294" as="targetPoint" />
            <Array as="points">
              <mxPoint x="991" y="324" />
            </Array>
          </mxGeometry>
        </mxCell>
        <mxCell id="b7OoH07M5vMIsxXB9R5--57" value="x1" style="ellipse;whiteSpace=wrap;html=1;aspect=fixed;" vertex="1" parent="1">
          <mxGeometry x="938" y="796" width="40" height="40" as="geometry" />
        </mxCell>
        <mxCell id="b7OoH07M5vMIsxXB9R5--58" value="x7" style="ellipse;whiteSpace=wrap;html=1;aspect=fixed;" vertex="1" parent="1">
          <mxGeometry x="1178" y="776" width="40" height="40" as="geometry" />
        </mxCell>
        <mxCell id="b7OoH07M5vMIsxXB9R5--59" value="x5" style="ellipse;whiteSpace=wrap;html=1;aspect=fixed;" vertex="1" parent="1">
          <mxGeometry x="1038" y="856" width="40" height="40" as="geometry" />
        </mxCell>
        <mxCell id="b7OoH07M5vMIsxXB9R5--60" value="x6" style="ellipse;whiteSpace=wrap;html=1;aspect=fixed;" vertex="1" parent="1">
          <mxGeometry x="1138" y="886" width="40" height="40" as="geometry" />
        </mxCell>
        <mxCell id="b7OoH07M5vMIsxXB9R5--61" value="x9" style="ellipse;whiteSpace=wrap;html=1;aspect=fixed;" vertex="1" parent="1">
          <mxGeometry x="1258" y="876" width="40" height="40" as="geometry" />
        </mxCell>
        <mxCell id="b7OoH07M5vMIsxXB9R5--62" value="x2" style="ellipse;whiteSpace=wrap;html=1;aspect=fixed;" vertex="1" parent="1">
          <mxGeometry x="1028" y="706" width="40" height="40" as="geometry" />
        </mxCell>
        <mxCell id="b7OoH07M5vMIsxXB9R5--63" value="x4" style="ellipse;whiteSpace=wrap;html=1;aspect=fixed;" vertex="1" parent="1">
          <mxGeometry x="1092" y="756" width="40" height="40" as="geometry" />
        </mxCell>
        <mxCell id="b7OoH07M5vMIsxXB9R5--64" value="x3" style="ellipse;whiteSpace=wrap;html=1;aspect=fixed;" vertex="1" parent="1">
          <mxGeometry x="1192" y="676" width="40" height="40" as="geometry" />
        </mxCell>
        <mxCell id="b7OoH07M5vMIsxXB9R5--65" value="x11" style="ellipse;whiteSpace=wrap;html=1;aspect=fixed;" vertex="1" parent="1">
          <mxGeometry x="1418" y="856" width="40" height="40" as="geometry" />
        </mxCell>
        <mxCell id="b7OoH07M5vMIsxXB9R5--66" value="x8" style="ellipse;whiteSpace=wrap;html=1;aspect=fixed;" vertex="1" parent="1">
          <mxGeometry x="1298" y="756" width="40" height="40" as="geometry" />
        </mxCell>
        <mxCell id="b7OoH07M5vMIsxXB9R5--67" value="x10" style="ellipse;whiteSpace=wrap;html=1;aspect=fixed;" vertex="1" parent="1">
          <mxGeometry x="1368" y="646" width="40" height="40" as="geometry" />
        </mxCell>
        <mxCell id="b7OoH07M5vMIsxXB9R5--68" value="x12" style="ellipse;whiteSpace=wrap;html=1;aspect=fixed;" vertex="1" parent="1">
          <mxGeometry x="1458" y="736" width="40" height="40" as="geometry" />
        </mxCell>
        <mxCell id="b7OoH07M5vMIsxXB9R5--69" value="v1" style="endArrow=none;html=1;rounded=0;exitX=0.5;exitY=0;exitDx=0;exitDy=0;entryX=0;entryY=0.5;entryDx=0;entryDy=0;" edge="1" parent="1" source="b7OoH07M5vMIsxXB9R5--57" target="b7OoH07M5vMIsxXB9R5--62">
          <mxGeometry width="50" height="50" relative="1" as="geometry">
            <mxPoint x="1188" y="786" as="sourcePoint" />
            <mxPoint x="1238" y="736" as="targetPoint" />
          </mxGeometry>
        </mxCell>
        <mxCell id="b7OoH07M5vMIsxXB9R5--70" value="v20" style="endArrow=none;html=1;rounded=0;exitX=1;exitY=0;exitDx=0;exitDy=0;entryX=0;entryY=1;entryDx=0;entryDy=0;" edge="1" parent="1" source="b7OoH07M5vMIsxXB9R5--57" target="b7OoH07M5vMIsxXB9R5--62">
          <mxGeometry width="50" height="50" relative="1" as="geometry">
            <mxPoint x="968" y="806" as="sourcePoint" />
            <mxPoint x="1038" y="736" as="targetPoint" />
          </mxGeometry>
        </mxCell>
        <mxCell id="b7OoH07M5vMIsxXB9R5--71" value="v18" style="endArrow=none;html=1;rounded=0;exitX=0.952;exitY=0.745;exitDx=0;exitDy=0;exitPerimeter=0;entryX=0;entryY=0;entryDx=0;entryDy=0;" edge="1" parent="1" source="b7OoH07M5vMIsxXB9R5--57" target="b7OoH07M5vMIsxXB9R5--59">
          <mxGeometry width="50" height="50" relative="1" as="geometry">
            <mxPoint x="1188" y="786" as="sourcePoint" />
            <mxPoint x="1238" y="736" as="targetPoint" />
          </mxGeometry>
        </mxCell>
        <mxCell id="b7OoH07M5vMIsxXB9R5--72" value="v19" style="endArrow=none;html=1;rounded=0;exitX=0.659;exitY=1.003;exitDx=0;exitDy=0;exitPerimeter=0;entryX=0;entryY=0.5;entryDx=0;entryDy=0;" edge="1" parent="1" source="b7OoH07M5vMIsxXB9R5--57" target="b7OoH07M5vMIsxXB9R5--59">
          <mxGeometry width="50" height="50" relative="1" as="geometry">
            <mxPoint x="986" y="836" as="sourcePoint" />
            <mxPoint x="1054" y="872" as="targetPoint" />
          </mxGeometry>
        </mxCell>
        <mxCell id="b7OoH07M5vMIsxXB9R5--73" value="v2" style="endArrow=none;html=1;rounded=0;exitX=0.5;exitY=1;exitDx=0;exitDy=0;entryX=0.5;entryY=0;entryDx=0;entryDy=0;" edge="1" parent="1" source="b7OoH07M5vMIsxXB9R5--62" target="b7OoH07M5vMIsxXB9R5--59">
          <mxGeometry width="50" height="50" relative="1" as="geometry">
            <mxPoint x="1188" y="786" as="sourcePoint" />
            <mxPoint x="1238" y="736" as="targetPoint" />
          </mxGeometry>
        </mxCell>
        <mxCell id="b7OoH07M5vMIsxXB9R5--74" value="v6" style="endArrow=none;html=1;rounded=0;exitX=1;exitY=1;exitDx=0;exitDy=0;entryX=0;entryY=0;entryDx=0;entryDy=0;" edge="1" parent="1" source="b7OoH07M5vMIsxXB9R5--62" target="b7OoH07M5vMIsxXB9R5--63">
          <mxGeometry width="50" height="50" relative="1" as="geometry">
            <mxPoint x="1188" y="786" as="sourcePoint" />
            <mxPoint x="1238" y="736" as="targetPoint" />
          </mxGeometry>
        </mxCell>
        <mxCell id="b7OoH07M5vMIsxXB9R5--75" value="v3" style="endArrow=none;html=1;rounded=0;exitX=1;exitY=0.25;exitDx=0;exitDy=0;exitPerimeter=0;entryX=0;entryY=1;entryDx=0;entryDy=0;" edge="1" parent="1" source="b7OoH07M5vMIsxXB9R5--59" target="b7OoH07M5vMIsxXB9R5--58">
          <mxGeometry x="-0.4787" y="-5" width="50" height="50" relative="1" as="geometry">
            <mxPoint x="1188" y="786" as="sourcePoint" />
            <mxPoint x="1238" y="736" as="targetPoint" />
            <mxPoint as="offset" />
          </mxGeometry>
        </mxCell>
        <mxCell id="b7OoH07M5vMIsxXB9R5--76" value="v7" style="endArrow=none;html=1;rounded=0;exitX=1;exitY=1;exitDx=0;exitDy=0;entryX=0.5;entryY=0;entryDx=0;entryDy=0;" edge="1" parent="1" source="b7OoH07M5vMIsxXB9R5--63" target="b7OoH07M5vMIsxXB9R5--60">
          <mxGeometry x="0.5618" y="-3" width="50" height="50" relative="1" as="geometry">
            <mxPoint x="1188" y="786" as="sourcePoint" />
            <mxPoint x="1238" y="736" as="targetPoint" />
            <mxPoint as="offset" />
          </mxGeometry>
        </mxCell>
        <mxCell id="b7OoH07M5vMIsxXB9R5--77" value="v8" style="endArrow=none;html=1;rounded=0;exitX=1;exitY=0.5;exitDx=0;exitDy=0;entryX=0;entryY=0.5;entryDx=0;entryDy=0;" edge="1" parent="1" source="b7OoH07M5vMIsxXB9R5--60" target="b7OoH07M5vMIsxXB9R5--61">
          <mxGeometry width="50" height="50" relative="1" as="geometry">
            <mxPoint x="1188" y="786" as="sourcePoint" />
            <mxPoint x="1238" y="736" as="targetPoint" />
          </mxGeometry>
        </mxCell>
        <mxCell id="b7OoH07M5vMIsxXB9R5--78" value="v9" style="endArrow=none;html=1;rounded=0;exitX=0.5;exitY=0;exitDx=0;exitDy=0;entryX=0.5;entryY=1;entryDx=0;entryDy=0;" edge="1" parent="1" source="b7OoH07M5vMIsxXB9R5--61" target="b7OoH07M5vMIsxXB9R5--66">
          <mxGeometry width="50" height="50" relative="1" as="geometry">
            <mxPoint x="1188" y="786" as="sourcePoint" />
            <mxPoint x="1238" y="736" as="targetPoint" />
          </mxGeometry>
        </mxCell>
        <mxCell id="b7OoH07M5vMIsxXB9R5--79" value="v11" style="endArrow=none;html=1;rounded=0;exitX=1;exitY=0;exitDx=0;exitDy=0;entryX=0;entryY=1;entryDx=0;entryDy=0;" edge="1" parent="1" source="b7OoH07M5vMIsxXB9R5--58" target="b7OoH07M5vMIsxXB9R5--67">
          <mxGeometry width="50" height="50" relative="1" as="geometry">
            <mxPoint x="1188" y="786" as="sourcePoint" />
            <mxPoint x="1238" y="736" as="targetPoint" />
          </mxGeometry>
        </mxCell>
        <mxCell id="b7OoH07M5vMIsxXB9R5--80" value="v5" style="endArrow=none;html=1;rounded=0;exitX=0;exitY=0.5;exitDx=0;exitDy=0;entryX=1;entryY=0.5;entryDx=0;entryDy=0;" edge="1" parent="1" source="b7OoH07M5vMIsxXB9R5--64" target="b7OoH07M5vMIsxXB9R5--62">
          <mxGeometry width="50" height="50" relative="1" as="geometry">
            <mxPoint x="1188" y="786" as="sourcePoint" />
            <mxPoint x="1238" y="736" as="targetPoint" />
          </mxGeometry>
        </mxCell>
        <mxCell id="b7OoH07M5vMIsxXB9R5--81" value="v16" style="endArrow=none;html=1;rounded=0;exitX=1;exitY=0.5;exitDx=0;exitDy=0;entryX=0;entryY=0.5;entryDx=0;entryDy=0;" edge="1" parent="1" source="b7OoH07M5vMIsxXB9R5--64" target="b7OoH07M5vMIsxXB9R5--67">
          <mxGeometry width="50" height="50" relative="1" as="geometry">
            <mxPoint x="1188" y="786" as="sourcePoint" />
            <mxPoint x="1238" y="736" as="targetPoint" />
          </mxGeometry>
        </mxCell>
        <mxCell id="b7OoH07M5vMIsxXB9R5--82" value="v12" style="endArrow=none;html=1;rounded=0;exitX=0.5;exitY=0;exitDx=0;exitDy=0;" edge="1" parent="1" source="b7OoH07M5vMIsxXB9R5--68" target="b7OoH07M5vMIsxXB9R5--67">
          <mxGeometry width="50" height="50" relative="1" as="geometry">
            <mxPoint x="1188" y="786" as="sourcePoint" />
            <mxPoint x="1238" y="736" as="targetPoint" />
          </mxGeometry>
        </mxCell>
        <mxCell id="b7OoH07M5vMIsxXB9R5--83" value="v13" style="endArrow=none;html=1;rounded=0;exitX=0.762;exitY=0.021;exitDx=0;exitDy=0;curved=1;entryX=0.5;entryY=1;entryDx=0;entryDy=0;exitPerimeter=0;" edge="1" parent="1" source="b7OoH07M5vMIsxXB9R5--65" target="b7OoH07M5vMIsxXB9R5--68">
          <mxGeometry x="0.0086" y="-7" width="50" height="50" relative="1" as="geometry">
            <mxPoint x="1188" y="786" as="sourcePoint" />
            <mxPoint x="1468" y="776" as="targetPoint" />
            <Array as="points">
              <mxPoint x="1478" y="816" />
            </Array>
            <mxPoint as="offset" />
          </mxGeometry>
        </mxCell>
        <mxCell id="b7OoH07M5vMIsxXB9R5--84" value="v14" style="endArrow=none;html=1;rounded=0;exitX=0.5;exitY=0;exitDx=0;exitDy=0;entryX=0;entryY=1;entryDx=0;entryDy=0;curved=1;" edge="1" parent="1" source="b7OoH07M5vMIsxXB9R5--65" target="b7OoH07M5vMIsxXB9R5--68">
          <mxGeometry width="50" height="50" relative="1" as="geometry">
            <mxPoint x="1188" y="786" as="sourcePoint" />
            <mxPoint x="1238" y="736" as="targetPoint" />
            <Array as="points">
              <mxPoint x="1428" y="806" />
            </Array>
          </mxGeometry>
        </mxCell>
        <mxCell id="b7OoH07M5vMIsxXB9R5--85" value="v17" style="endArrow=none;html=1;rounded=0;exitX=1;exitY=0.5;exitDx=0;exitDy=0;entryX=0;entryY=0.5;entryDx=0;entryDy=0;" edge="1" parent="1" source="b7OoH07M5vMIsxXB9R5--66" target="b7OoH07M5vMIsxXB9R5--68">
          <mxGeometry width="50" height="50" relative="1" as="geometry">
            <mxPoint x="1158" y="786" as="sourcePoint" />
            <mxPoint x="1208" y="736" as="targetPoint" />
          </mxGeometry>
        </mxCell>
        <mxCell id="b7OoH07M5vMIsxXB9R5--86" value="v10" style="endArrow=none;html=1;rounded=0;exitX=1;exitY=0.5;exitDx=0;exitDy=0;entryX=0;entryY=0.5;entryDx=0;entryDy=0;" edge="1" parent="1" source="b7OoH07M5vMIsxXB9R5--58" target="b7OoH07M5vMIsxXB9R5--66">
          <mxGeometry width="50" height="50" relative="1" as="geometry">
            <mxPoint x="1158" y="786" as="sourcePoint" />
            <mxPoint x="1208" y="736" as="targetPoint" />
          </mxGeometry>
        </mxCell>
        <mxCell id="b7OoH07M5vMIsxXB9R5--87" value="v15" style="endArrow=none;html=1;rounded=0;entryX=1;entryY=0;entryDx=0;entryDy=0;" edge="1" parent="1" target="b7OoH07M5vMIsxXB9R5--60">
          <mxGeometry width="50" height="50" relative="1" as="geometry">
            <mxPoint x="1198" y="816" as="sourcePoint" />
            <mxPoint x="1208" y="736" as="targetPoint" />
          </mxGeometry>
        </mxCell>
        <mxCell id="b7OoH07M5vMIsxXB9R5--88" value="v4" style="endArrow=none;html=1;rounded=0;exitX=0.5;exitY=0;exitDx=0;exitDy=0;entryX=0.378;entryY=1.021;entryDx=0;entryDy=0;entryPerimeter=0;" edge="1" parent="1" source="b7OoH07M5vMIsxXB9R5--58" target="b7OoH07M5vMIsxXB9R5--64">
          <mxGeometry width="50" height="50" relative="1" as="geometry">
            <mxPoint x="1158" y="786" as="sourcePoint" />
            <mxPoint x="1208" y="736" as="targetPoint" />
          </mxGeometry>
        </mxCell>
        <mxCell id="b7OoH07M5vMIsxXB9R5--89" value="v21" style="endArrow=none;html=1;rounded=0;exitX=0.5;exitY=1;exitDx=0;exitDy=0;entryX=0;entryY=0.5;entryDx=0;entryDy=0;edgeStyle=orthogonalEdgeStyle;" edge="1" parent="1" source="b7OoH07M5vMIsxXB9R5--65" target="b7OoH07M5vMIsxXB9R5--57">
          <mxGeometry width="50" height="50" relative="1" as="geometry">
            <mxPoint x="1155" y="705" as="sourcePoint" />
            <mxPoint x="1205" y="655" as="targetPoint" />
            <Array as="points">
              <mxPoint x="1438" y="934" />
              <mxPoint x="928" y="934" />
              <mxPoint x="928" y="816" />
            </Array>
          </mxGeometry>
        </mxCell>
        <mxCell id="b7OoH07M5vMIsxXB9R5--90" value="1" style="text;html=1;align=center;verticalAlign=middle;whiteSpace=wrap;rounded=0;fontStyle=1" vertex="1" parent="1">
          <mxGeometry x="949" y="726" width="60" height="30" as="geometry" />
        </mxCell>
        <mxCell id="b7OoH07M5vMIsxXB9R5--91" value="3" style="text;html=1;align=center;verticalAlign=middle;whiteSpace=wrap;rounded=0;fontStyle=1" vertex="1" parent="1">
          <mxGeometry x="994" y="750" width="60" height="30" as="geometry" />
        </mxCell>
        <mxCell id="b7OoH07M5vMIsxXB9R5--92" value="2" style="text;html=1;align=center;verticalAlign=middle;whiteSpace=wrap;rounded=0;fontStyle=1" vertex="1" parent="1">
          <mxGeometry x="973" y="810" width="60" height="30" as="geometry" />
        </mxCell>
        <mxCell id="b7OoH07M5vMIsxXB9R5--93" value="3" style="text;html=1;align=center;verticalAlign=middle;whiteSpace=wrap;rounded=0;fontStyle=1" vertex="1" parent="1">
          <mxGeometry x="946" y="843" width="60" height="30" as="geometry" />
        </mxCell>
        <mxCell id="b7OoH07M5vMIsxXB9R5--94" value="15" style="text;html=1;align=center;verticalAlign=middle;whiteSpace=wrap;rounded=0;fontStyle=1" vertex="1" parent="1">
          <mxGeometry x="1072" y="933" width="60" height="30" as="geometry" />
        </mxCell>
        <mxCell id="b7OoH07M5vMIsxXB9R5--95" value="5" style="text;html=1;align=center;verticalAlign=middle;whiteSpace=wrap;rounded=0;fontStyle=1" vertex="1" parent="1">
          <mxGeometry x="1078" y="822" width="60" height="30" as="geometry" />
        </mxCell>
        <mxCell id="b7OoH07M5vMIsxXB9R5--96" value="3" style="text;html=1;align=center;verticalAlign=middle;whiteSpace=wrap;rounded=0;fontStyle=1" vertex="1" parent="1">
          <mxGeometry x="1009" y="803" width="60" height="30" as="geometry" />
        </mxCell>
        <mxCell id="b7OoH07M5vMIsxXB9R5--98" value="2" style="text;html=1;align=center;verticalAlign=middle;whiteSpace=wrap;rounded=0;fontStyle=1" vertex="1" parent="1">
          <mxGeometry x="1066" y="726" width="60" height="30" as="geometry" />
        </mxCell>
        <mxCell id="b7OoH07M5vMIsxXB9R5--99" value="5" style="text;html=1;align=center;verticalAlign=middle;whiteSpace=wrap;rounded=0;fontStyle=1" vertex="1" parent="1">
          <mxGeometry x="1121" y="681" width="60" height="30" as="geometry" />
        </mxCell>
        <mxCell id="b7OoH07M5vMIsxXB9R5--100" value="3" style="text;html=1;align=center;verticalAlign=middle;whiteSpace=wrap;rounded=0;fontStyle=1" vertex="1" parent="1">
          <mxGeometry x="1158" y="730" width="60" height="30" as="geometry" />
        </mxCell>
        <mxCell id="b7OoH07M5vMIsxXB9R5--101" value="2" style="text;html=1;align=center;verticalAlign=middle;whiteSpace=wrap;rounded=0;fontStyle=1" vertex="1" parent="1">
          <mxGeometry x="1126" y="840" width="60" height="30" as="geometry" />
        </mxCell>
        <mxCell id="b7OoH07M5vMIsxXB9R5--102" value="3" style="text;html=1;align=center;verticalAlign=middle;whiteSpace=wrap;rounded=0;fontStyle=1" vertex="1" parent="1">
          <mxGeometry x="1205" y="870" width="60" height="30" as="geometry" />
        </mxCell>
        <mxCell id="b7OoH07M5vMIsxXB9R5--103" value="4" style="text;html=1;align=center;verticalAlign=middle;whiteSpace=wrap;rounded=0;fontStyle=1" vertex="1" parent="1">
          <mxGeometry x="1178" y="826" width="60" height="30" as="geometry" />
        </mxCell>
        <mxCell id="b7OoH07M5vMIsxXB9R5--105" value="5" style="text;html=1;align=center;verticalAlign=middle;whiteSpace=wrap;rounded=0;fontStyle=1" vertex="1" parent="1">
          <mxGeometry x="1255" y="755" width="60" height="30" as="geometry" />
        </mxCell>
        <mxCell id="b7OoH07M5vMIsxXB9R5--106" value="7" style="text;html=1;align=center;verticalAlign=middle;whiteSpace=wrap;rounded=0;fontStyle=1" vertex="1" parent="1">
          <mxGeometry x="1396" y="735" width="60" height="30" as="geometry" />
        </mxCell>
        <mxCell id="b7OoH07M5vMIsxXB9R5--107" value="3" style="text;html=1;align=center;verticalAlign=middle;whiteSpace=wrap;rounded=0;fontStyle=1" vertex="1" parent="1">
          <mxGeometry x="1394" y="663" width="60" height="30" as="geometry" />
        </mxCell>
        <mxCell id="b7OoH07M5vMIsxXB9R5--108" value="2" style="text;html=1;align=center;verticalAlign=middle;whiteSpace=wrap;rounded=0;fontStyle=1" vertex="1" parent="1">
          <mxGeometry x="1280" y="650" width="60" height="30" as="geometry" />
        </mxCell>
        <mxCell id="b7OoH07M5vMIsxXB9R5--110" value="4" style="text;html=1;align=center;verticalAlign=middle;whiteSpace=wrap;rounded=0;fontStyle=1" vertex="1" parent="1">
          <mxGeometry x="1288" y="689" width="60" height="30" as="geometry" />
        </mxCell>
        <mxCell id="b7OoH07M5vMIsxXB9R5--111" value="1" style="text;html=1;align=center;verticalAlign=middle;whiteSpace=wrap;rounded=0;fontStyle=1" vertex="1" parent="1">
          <mxGeometry x="1392" y="813" width="60" height="30" as="geometry" />
        </mxCell>
        <mxCell id="b7OoH07M5vMIsxXB9R5--112" value="2" style="text;html=1;align=center;verticalAlign=middle;whiteSpace=wrap;rounded=0;fontStyle=1" vertex="1" parent="1">
          <mxGeometry x="1463" y="780" width="60" height="30" as="geometry" />
        </mxCell>
        <mxCell id="b7OoH07M5vMIsxXB9R5--113" value="x1" style="ellipse;whiteSpace=wrap;html=1;aspect=fixed;" vertex="1" parent="1">
          <mxGeometry x="940" y="1189" width="40" height="40" as="geometry" />
        </mxCell>
        <mxCell id="b7OoH07M5vMIsxXB9R5--114" value="x7" style="ellipse;whiteSpace=wrap;html=1;aspect=fixed;" vertex="1" parent="1">
          <mxGeometry x="1180" y="1169" width="40" height="40" as="geometry" />
        </mxCell>
        <mxCell id="b7OoH07M5vMIsxXB9R5--115" value="x5" style="ellipse;whiteSpace=wrap;html=1;aspect=fixed;" vertex="1" parent="1">
          <mxGeometry x="1040" y="1249" width="40" height="40" as="geometry" />
        </mxCell>
        <mxCell id="b7OoH07M5vMIsxXB9R5--116" value="x6" style="ellipse;whiteSpace=wrap;html=1;aspect=fixed;" vertex="1" parent="1">
          <mxGeometry x="1140" y="1279" width="40" height="40" as="geometry" />
        </mxCell>
        <mxCell id="b7OoH07M5vMIsxXB9R5--117" value="x9" style="ellipse;whiteSpace=wrap;html=1;aspect=fixed;" vertex="1" parent="1">
          <mxGeometry x="1260" y="1269" width="40" height="40" as="geometry" />
        </mxCell>
        <mxCell id="b7OoH07M5vMIsxXB9R5--118" value="x2" style="ellipse;whiteSpace=wrap;html=1;aspect=fixed;" vertex="1" parent="1">
          <mxGeometry x="1030" y="1099" width="40" height="40" as="geometry" />
        </mxCell>
        <mxCell id="b7OoH07M5vMIsxXB9R5--119" value="x4" style="ellipse;whiteSpace=wrap;html=1;aspect=fixed;" vertex="1" parent="1">
          <mxGeometry x="1094" y="1149" width="40" height="40" as="geometry" />
        </mxCell>
        <mxCell id="b7OoH07M5vMIsxXB9R5--120" value="x3" style="ellipse;whiteSpace=wrap;html=1;aspect=fixed;" vertex="1" parent="1">
          <mxGeometry x="1194" y="1069" width="40" height="40" as="geometry" />
        </mxCell>
        <mxCell id="b7OoH07M5vMIsxXB9R5--121" value="x11" style="ellipse;whiteSpace=wrap;html=1;aspect=fixed;" vertex="1" parent="1">
          <mxGeometry x="1420" y="1249" width="40" height="40" as="geometry" />
        </mxCell>
        <mxCell id="b7OoH07M5vMIsxXB9R5--122" value="x8" style="ellipse;whiteSpace=wrap;html=1;aspect=fixed;" vertex="1" parent="1">
          <mxGeometry x="1300" y="1149" width="40" height="40" as="geometry" />
        </mxCell>
        <mxCell id="b7OoH07M5vMIsxXB9R5--123" value="x10" style="ellipse;whiteSpace=wrap;html=1;aspect=fixed;" vertex="1" parent="1">
          <mxGeometry x="1370" y="1039" width="40" height="40" as="geometry" />
        </mxCell>
        <mxCell id="b7OoH07M5vMIsxXB9R5--124" value="x12" style="ellipse;whiteSpace=wrap;html=1;aspect=fixed;" vertex="1" parent="1">
          <mxGeometry x="1460" y="1129" width="40" height="40" as="geometry" />
        </mxCell>
        <mxCell id="b7OoH07M5vMIsxXB9R5--125" value="v1" style="endArrow=none;html=1;rounded=0;exitX=0.5;exitY=0;exitDx=0;exitDy=0;entryX=0;entryY=0.5;entryDx=0;entryDy=0;" edge="1" parent="1" source="b7OoH07M5vMIsxXB9R5--113" target="b7OoH07M5vMIsxXB9R5--118">
          <mxGeometry width="50" height="50" relative="1" as="geometry">
            <mxPoint x="1190" y="1179" as="sourcePoint" />
            <mxPoint x="1240" y="1129" as="targetPoint" />
          </mxGeometry>
        </mxCell>
        <mxCell id="b7OoH07M5vMIsxXB9R5--126" value="v20" style="endArrow=none;html=1;rounded=0;exitX=1;exitY=0;exitDx=0;exitDy=0;entryX=0;entryY=1;entryDx=0;entryDy=0;" edge="1" parent="1" source="b7OoH07M5vMIsxXB9R5--113" target="b7OoH07M5vMIsxXB9R5--118">
          <mxGeometry width="50" height="50" relative="1" as="geometry">
            <mxPoint x="970" y="1199" as="sourcePoint" />
            <mxPoint x="1040" y="1129" as="targetPoint" />
          </mxGeometry>
        </mxCell>
        <mxCell id="b7OoH07M5vMIsxXB9R5--127" value="v18" style="endArrow=none;html=1;rounded=0;exitX=0.952;exitY=0.745;exitDx=0;exitDy=0;exitPerimeter=0;entryX=0;entryY=0;entryDx=0;entryDy=0;" edge="1" parent="1" source="b7OoH07M5vMIsxXB9R5--113" target="b7OoH07M5vMIsxXB9R5--115">
          <mxGeometry width="50" height="50" relative="1" as="geometry">
            <mxPoint x="1190" y="1179" as="sourcePoint" />
            <mxPoint x="1240" y="1129" as="targetPoint" />
          </mxGeometry>
        </mxCell>
        <mxCell id="b7OoH07M5vMIsxXB9R5--128" value="v19" style="endArrow=none;html=1;rounded=0;exitX=0.659;exitY=1.003;exitDx=0;exitDy=0;exitPerimeter=0;entryX=0;entryY=0.5;entryDx=0;entryDy=0;" edge="1" parent="1" source="b7OoH07M5vMIsxXB9R5--113" target="b7OoH07M5vMIsxXB9R5--115">
          <mxGeometry width="50" height="50" relative="1" as="geometry">
            <mxPoint x="988" y="1229" as="sourcePoint" />
            <mxPoint x="1056" y="1265" as="targetPoint" />
          </mxGeometry>
        </mxCell>
        <mxCell id="b7OoH07M5vMIsxXB9R5--129" value="v2" style="endArrow=none;html=1;rounded=0;exitX=0.5;exitY=1;exitDx=0;exitDy=0;entryX=0.5;entryY=0;entryDx=0;entryDy=0;" edge="1" parent="1" source="b7OoH07M5vMIsxXB9R5--118" target="b7OoH07M5vMIsxXB9R5--115">
          <mxGeometry width="50" height="50" relative="1" as="geometry">
            <mxPoint x="1190" y="1179" as="sourcePoint" />
            <mxPoint x="1240" y="1129" as="targetPoint" />
          </mxGeometry>
        </mxCell>
        <mxCell id="b7OoH07M5vMIsxXB9R5--130" value="v6" style="endArrow=none;html=1;rounded=0;exitX=1;exitY=1;exitDx=0;exitDy=0;entryX=0;entryY=0;entryDx=0;entryDy=0;" edge="1" parent="1" source="b7OoH07M5vMIsxXB9R5--118" target="b7OoH07M5vMIsxXB9R5--119">
          <mxGeometry width="50" height="50" relative="1" as="geometry">
            <mxPoint x="1190" y="1179" as="sourcePoint" />
            <mxPoint x="1240" y="1129" as="targetPoint" />
          </mxGeometry>
        </mxCell>
        <mxCell id="b7OoH07M5vMIsxXB9R5--131" value="v3" style="endArrow=none;html=1;rounded=0;exitX=1;exitY=0.25;exitDx=0;exitDy=0;exitPerimeter=0;entryX=0;entryY=1;entryDx=0;entryDy=0;" edge="1" parent="1" source="b7OoH07M5vMIsxXB9R5--115" target="b7OoH07M5vMIsxXB9R5--114">
          <mxGeometry x="-0.4787" y="-5" width="50" height="50" relative="1" as="geometry">
            <mxPoint x="1190" y="1179" as="sourcePoint" />
            <mxPoint x="1240" y="1129" as="targetPoint" />
            <mxPoint as="offset" />
          </mxGeometry>
        </mxCell>
        <mxCell id="b7OoH07M5vMIsxXB9R5--132" value="v7" style="endArrow=none;html=1;rounded=0;exitX=1;exitY=1;exitDx=0;exitDy=0;entryX=0.5;entryY=0;entryDx=0;entryDy=0;" edge="1" parent="1" source="b7OoH07M5vMIsxXB9R5--119" target="b7OoH07M5vMIsxXB9R5--116">
          <mxGeometry x="0.5618" y="-3" width="50" height="50" relative="1" as="geometry">
            <mxPoint x="1190" y="1179" as="sourcePoint" />
            <mxPoint x="1240" y="1129" as="targetPoint" />
            <mxPoint as="offset" />
          </mxGeometry>
        </mxCell>
        <mxCell id="b7OoH07M5vMIsxXB9R5--133" value="v8" style="endArrow=none;html=1;rounded=0;exitX=1;exitY=0.5;exitDx=0;exitDy=0;entryX=0;entryY=0.5;entryDx=0;entryDy=0;" edge="1" parent="1" source="b7OoH07M5vMIsxXB9R5--116" target="b7OoH07M5vMIsxXB9R5--117">
          <mxGeometry width="50" height="50" relative="1" as="geometry">
            <mxPoint x="1190" y="1179" as="sourcePoint" />
            <mxPoint x="1240" y="1129" as="targetPoint" />
          </mxGeometry>
        </mxCell>
        <mxCell id="b7OoH07M5vMIsxXB9R5--134" value="v9" style="endArrow=none;html=1;rounded=0;exitX=0.5;exitY=0;exitDx=0;exitDy=0;entryX=0.5;entryY=1;entryDx=0;entryDy=0;" edge="1" parent="1" source="b7OoH07M5vMIsxXB9R5--117" target="b7OoH07M5vMIsxXB9R5--122">
          <mxGeometry width="50" height="50" relative="1" as="geometry">
            <mxPoint x="1190" y="1179" as="sourcePoint" />
            <mxPoint x="1240" y="1129" as="targetPoint" />
          </mxGeometry>
        </mxCell>
        <mxCell id="b7OoH07M5vMIsxXB9R5--135" value="v11" style="endArrow=none;html=1;rounded=0;exitX=1;exitY=0;exitDx=0;exitDy=0;entryX=0;entryY=1;entryDx=0;entryDy=0;" edge="1" parent="1" source="b7OoH07M5vMIsxXB9R5--114" target="b7OoH07M5vMIsxXB9R5--123">
          <mxGeometry width="50" height="50" relative="1" as="geometry">
            <mxPoint x="1190" y="1179" as="sourcePoint" />
            <mxPoint x="1240" y="1129" as="targetPoint" />
          </mxGeometry>
        </mxCell>
        <mxCell id="b7OoH07M5vMIsxXB9R5--136" value="v5" style="endArrow=none;html=1;rounded=0;exitX=0;exitY=0.5;exitDx=0;exitDy=0;entryX=1;entryY=0.5;entryDx=0;entryDy=0;" edge="1" parent="1" source="b7OoH07M5vMIsxXB9R5--120" target="b7OoH07M5vMIsxXB9R5--118">
          <mxGeometry width="50" height="50" relative="1" as="geometry">
            <mxPoint x="1190" y="1179" as="sourcePoint" />
            <mxPoint x="1240" y="1129" as="targetPoint" />
          </mxGeometry>
        </mxCell>
        <mxCell id="b7OoH07M5vMIsxXB9R5--137" value="v16" style="endArrow=none;html=1;rounded=0;exitX=1;exitY=0.5;exitDx=0;exitDy=0;entryX=0;entryY=0.5;entryDx=0;entryDy=0;" edge="1" parent="1" source="b7OoH07M5vMIsxXB9R5--120" target="b7OoH07M5vMIsxXB9R5--123">
          <mxGeometry width="50" height="50" relative="1" as="geometry">
            <mxPoint x="1190" y="1179" as="sourcePoint" />
            <mxPoint x="1240" y="1129" as="targetPoint" />
          </mxGeometry>
        </mxCell>
        <mxCell id="b7OoH07M5vMIsxXB9R5--138" value="v12" style="endArrow=none;html=1;rounded=0;exitX=0.5;exitY=0;exitDx=0;exitDy=0;" edge="1" parent="1" source="b7OoH07M5vMIsxXB9R5--124" target="b7OoH07M5vMIsxXB9R5--123">
          <mxGeometry width="50" height="50" relative="1" as="geometry">
            <mxPoint x="1190" y="1179" as="sourcePoint" />
            <mxPoint x="1240" y="1129" as="targetPoint" />
          </mxGeometry>
        </mxCell>
        <mxCell id="b7OoH07M5vMIsxXB9R5--139" value="v13" style="endArrow=none;html=1;rounded=0;exitX=0.762;exitY=0.021;exitDx=0;exitDy=0;curved=1;entryX=0.5;entryY=1;entryDx=0;entryDy=0;exitPerimeter=0;" edge="1" parent="1" source="b7OoH07M5vMIsxXB9R5--121" target="b7OoH07M5vMIsxXB9R5--124">
          <mxGeometry x="0.0086" y="-7" width="50" height="50" relative="1" as="geometry">
            <mxPoint x="1190" y="1179" as="sourcePoint" />
            <mxPoint x="1470" y="1169" as="targetPoint" />
            <Array as="points">
              <mxPoint x="1480" y="1209" />
            </Array>
            <mxPoint as="offset" />
          </mxGeometry>
        </mxCell>
        <mxCell id="b7OoH07M5vMIsxXB9R5--140" value="v14" style="endArrow=none;html=1;rounded=0;exitX=0.5;exitY=0;exitDx=0;exitDy=0;entryX=0;entryY=1;entryDx=0;entryDy=0;curved=1;" edge="1" parent="1" source="b7OoH07M5vMIsxXB9R5--121" target="b7OoH07M5vMIsxXB9R5--124">
          <mxGeometry width="50" height="50" relative="1" as="geometry">
            <mxPoint x="1190" y="1179" as="sourcePoint" />
            <mxPoint x="1240" y="1129" as="targetPoint" />
            <Array as="points">
              <mxPoint x="1430" y="1199" />
            </Array>
          </mxGeometry>
        </mxCell>
        <mxCell id="b7OoH07M5vMIsxXB9R5--141" value="v17" style="endArrow=none;html=1;rounded=0;exitX=1;exitY=0.5;exitDx=0;exitDy=0;entryX=0;entryY=0.5;entryDx=0;entryDy=0;" edge="1" parent="1" source="b7OoH07M5vMIsxXB9R5--122" target="b7OoH07M5vMIsxXB9R5--124">
          <mxGeometry width="50" height="50" relative="1" as="geometry">
            <mxPoint x="1160" y="1179" as="sourcePoint" />
            <mxPoint x="1210" y="1129" as="targetPoint" />
          </mxGeometry>
        </mxCell>
        <mxCell id="b7OoH07M5vMIsxXB9R5--142" value="v10" style="endArrow=none;html=1;rounded=0;exitX=1;exitY=0.5;exitDx=0;exitDy=0;entryX=0;entryY=0.5;entryDx=0;entryDy=0;" edge="1" parent="1" source="b7OoH07M5vMIsxXB9R5--114" target="b7OoH07M5vMIsxXB9R5--122">
          <mxGeometry width="50" height="50" relative="1" as="geometry">
            <mxPoint x="1160" y="1179" as="sourcePoint" />
            <mxPoint x="1210" y="1129" as="targetPoint" />
          </mxGeometry>
        </mxCell>
        <mxCell id="b7OoH07M5vMIsxXB9R5--143" value="v15" style="endArrow=none;html=1;rounded=0;entryX=1;entryY=0;entryDx=0;entryDy=0;" edge="1" parent="1" target="b7OoH07M5vMIsxXB9R5--116">
          <mxGeometry width="50" height="50" relative="1" as="geometry">
            <mxPoint x="1200" y="1209" as="sourcePoint" />
            <mxPoint x="1210" y="1129" as="targetPoint" />
          </mxGeometry>
        </mxCell>
        <mxCell id="b7OoH07M5vMIsxXB9R5--144" value="v4" style="endArrow=none;html=1;rounded=0;exitX=0.5;exitY=0;exitDx=0;exitDy=0;entryX=0.378;entryY=1.021;entryDx=0;entryDy=0;entryPerimeter=0;" edge="1" parent="1" source="b7OoH07M5vMIsxXB9R5--114" target="b7OoH07M5vMIsxXB9R5--120">
          <mxGeometry width="50" height="50" relative="1" as="geometry">
            <mxPoint x="1160" y="1179" as="sourcePoint" />
            <mxPoint x="1210" y="1129" as="targetPoint" />
          </mxGeometry>
        </mxCell>
        <mxCell id="b7OoH07M5vMIsxXB9R5--145" value="v21" style="endArrow=none;html=1;rounded=0;exitX=0.5;exitY=1;exitDx=0;exitDy=0;entryX=0;entryY=0.5;entryDx=0;entryDy=0;edgeStyle=orthogonalEdgeStyle;" edge="1" parent="1" source="b7OoH07M5vMIsxXB9R5--121" target="b7OoH07M5vMIsxXB9R5--113">
          <mxGeometry width="50" height="50" relative="1" as="geometry">
            <mxPoint x="1157" y="1098" as="sourcePoint" />
            <mxPoint x="1207" y="1048" as="targetPoint" />
            <Array as="points">
              <mxPoint x="1440" y="1327" />
              <mxPoint x="930" y="1327" />
              <mxPoint x="930" y="1209" />
            </Array>
          </mxGeometry>
        </mxCell>
        <mxCell id="b7OoH07M5vMIsxXB9R5--146" value="1" style="text;html=1;align=center;verticalAlign=middle;whiteSpace=wrap;rounded=0;fontStyle=1" vertex="1" parent="1">
          <mxGeometry x="951" y="1119" width="60" height="30" as="geometry" />
        </mxCell>
        <mxCell id="b7OoH07M5vMIsxXB9R5--147" value="3" style="text;html=1;align=center;verticalAlign=middle;whiteSpace=wrap;rounded=0;fontStyle=1" vertex="1" parent="1">
          <mxGeometry x="996" y="1143" width="60" height="30" as="geometry" />
        </mxCell>
        <mxCell id="b7OoH07M5vMIsxXB9R5--148" value="2" style="text;html=1;align=center;verticalAlign=middle;whiteSpace=wrap;rounded=0;fontStyle=1" vertex="1" parent="1">
          <mxGeometry x="975" y="1203" width="60" height="30" as="geometry" />
        </mxCell>
        <mxCell id="b7OoH07M5vMIsxXB9R5--149" value="3" style="text;html=1;align=center;verticalAlign=middle;whiteSpace=wrap;rounded=0;fontStyle=1" vertex="1" parent="1">
          <mxGeometry x="948" y="1236" width="60" height="30" as="geometry" />
        </mxCell>
        <mxCell id="b7OoH07M5vMIsxXB9R5--150" value="15" style="text;html=1;align=center;verticalAlign=middle;whiteSpace=wrap;rounded=0;fontStyle=1" vertex="1" parent="1">
          <mxGeometry x="1074" y="1326" width="60" height="30" as="geometry" />
        </mxCell>
        <mxCell id="b7OoH07M5vMIsxXB9R5--151" value="5" style="text;html=1;align=center;verticalAlign=middle;whiteSpace=wrap;rounded=0;fontStyle=1" vertex="1" parent="1">
          <mxGeometry x="1080" y="1215" width="60" height="30" as="geometry" />
        </mxCell>
        <mxCell id="b7OoH07M5vMIsxXB9R5--152" value="3" style="text;html=1;align=center;verticalAlign=middle;whiteSpace=wrap;rounded=0;fontStyle=1" vertex="1" parent="1">
          <mxGeometry x="1011" y="1196" width="60" height="30" as="geometry" />
        </mxCell>
        <mxCell id="b7OoH07M5vMIsxXB9R5--153" value="2" style="text;html=1;align=center;verticalAlign=middle;whiteSpace=wrap;rounded=0;fontStyle=1" vertex="1" parent="1">
          <mxGeometry x="1068" y="1119" width="60" height="30" as="geometry" />
        </mxCell>
        <mxCell id="b7OoH07M5vMIsxXB9R5--154" value="5" style="text;html=1;align=center;verticalAlign=middle;whiteSpace=wrap;rounded=0;fontStyle=1" vertex="1" parent="1">
          <mxGeometry x="1123" y="1074" width="60" height="30" as="geometry" />
        </mxCell>
        <mxCell id="b7OoH07M5vMIsxXB9R5--155" value="3" style="text;html=1;align=center;verticalAlign=middle;whiteSpace=wrap;rounded=0;fontStyle=1" vertex="1" parent="1">
          <mxGeometry x="1160" y="1123" width="60" height="30" as="geometry" />
        </mxCell>
        <mxCell id="b7OoH07M5vMIsxXB9R5--156" value="2" style="text;html=1;align=center;verticalAlign=middle;whiteSpace=wrap;rounded=0;fontStyle=1" vertex="1" parent="1">
          <mxGeometry x="1128" y="1233" width="60" height="30" as="geometry" />
        </mxCell>
        <mxCell id="b7OoH07M5vMIsxXB9R5--157" value="3" style="text;html=1;align=center;verticalAlign=middle;whiteSpace=wrap;rounded=0;fontStyle=1" vertex="1" parent="1">
          <mxGeometry x="1207" y="1263" width="60" height="30" as="geometry" />
        </mxCell>
        <mxCell id="b7OoH07M5vMIsxXB9R5--158" value="4" style="text;html=1;align=center;verticalAlign=middle;whiteSpace=wrap;rounded=0;fontStyle=1" vertex="1" parent="1">
          <mxGeometry x="1180" y="1219" width="60" height="30" as="geometry" />
        </mxCell>
        <mxCell id="b7OoH07M5vMIsxXB9R5--159" value="5" style="text;html=1;align=center;verticalAlign=middle;whiteSpace=wrap;rounded=0;fontStyle=1" vertex="1" parent="1">
          <mxGeometry x="1257" y="1148" width="60" height="30" as="geometry" />
        </mxCell>
        <mxCell id="b7OoH07M5vMIsxXB9R5--160" value="7" style="text;html=1;align=center;verticalAlign=middle;whiteSpace=wrap;rounded=0;fontStyle=1" vertex="1" parent="1">
          <mxGeometry x="1398" y="1128" width="60" height="30" as="geometry" />
        </mxCell>
        <mxCell id="b7OoH07M5vMIsxXB9R5--161" value="3" style="text;html=1;align=center;verticalAlign=middle;whiteSpace=wrap;rounded=0;fontStyle=1" vertex="1" parent="1">
          <mxGeometry x="1396" y="1056" width="60" height="30" as="geometry" />
        </mxCell>
        <mxCell id="b7OoH07M5vMIsxXB9R5--162" value="2" style="text;html=1;align=center;verticalAlign=middle;whiteSpace=wrap;rounded=0;fontStyle=1" vertex="1" parent="1">
          <mxGeometry x="1282" y="1043" width="60" height="30" as="geometry" />
        </mxCell>
        <mxCell id="b7OoH07M5vMIsxXB9R5--163" value="4" style="text;html=1;align=center;verticalAlign=middle;whiteSpace=wrap;rounded=0;fontStyle=1" vertex="1" parent="1">
          <mxGeometry x="1290" y="1082" width="60" height="30" as="geometry" />
        </mxCell>
        <mxCell id="b7OoH07M5vMIsxXB9R5--164" value="1" style="text;html=1;align=center;verticalAlign=middle;whiteSpace=wrap;rounded=0;fontStyle=1" vertex="1" parent="1">
          <mxGeometry x="1394" y="1206" width="60" height="30" as="geometry" />
        </mxCell>
        <mxCell id="b7OoH07M5vMIsxXB9R5--165" value="2" style="text;html=1;align=center;verticalAlign=middle;whiteSpace=wrap;rounded=0;fontStyle=1" vertex="1" parent="1">
          <mxGeometry x="1465" y="1173" width="60" height="30" as="geometry" />
        </mxCell>
        <mxCell id="b7OoH07M5vMIsxXB9R5--219" value="x1" style="ellipse;whiteSpace=wrap;html=1;aspect=fixed;" vertex="1" parent="1">
          <mxGeometry x="1780" y="767.5" width="40" height="40" as="geometry" />
        </mxCell>
        <mxCell id="b7OoH07M5vMIsxXB9R5--221" value="x5" style="ellipse;whiteSpace=wrap;html=1;aspect=fixed;" vertex="1" parent="1">
          <mxGeometry x="1880" y="827.5" width="40" height="40" as="geometry" />
        </mxCell>
        <mxCell id="b7OoH07M5vMIsxXB9R5--222" value="x6" style="ellipse;whiteSpace=wrap;html=1;aspect=fixed;" vertex="1" parent="1">
          <mxGeometry x="1980" y="857.5" width="40" height="40" as="geometry" />
        </mxCell>
        <mxCell id="b7OoH07M5vMIsxXB9R5--224" value="x2" style="ellipse;whiteSpace=wrap;html=1;aspect=fixed;" vertex="1" parent="1">
          <mxGeometry x="1870" y="677.5" width="40" height="40" as="geometry" />
        </mxCell>
        <mxCell id="b7OoH07M5vMIsxXB9R5--225" value="x4" style="ellipse;whiteSpace=wrap;html=1;aspect=fixed;" vertex="1" parent="1">
          <mxGeometry x="1934" y="727.5" width="40" height="40" as="geometry" />
        </mxCell>
        <mxCell id="b7OoH07M5vMIsxXB9R5--231" value="v1" style="endArrow=none;html=1;rounded=0;exitX=0.5;exitY=0;exitDx=0;exitDy=0;entryX=0;entryY=0.5;entryDx=0;entryDy=0;" edge="1" parent="1" source="b7OoH07M5vMIsxXB9R5--219" target="b7OoH07M5vMIsxXB9R5--224">
          <mxGeometry width="50" height="50" relative="1" as="geometry">
            <mxPoint x="2030" y="757.5" as="sourcePoint" />
            <mxPoint x="2080" y="707.5" as="targetPoint" />
          </mxGeometry>
        </mxCell>
        <mxCell id="b7OoH07M5vMIsxXB9R5--233" value="v18" style="endArrow=none;html=1;rounded=0;exitX=0.952;exitY=0.745;exitDx=0;exitDy=0;exitPerimeter=0;entryX=0;entryY=0;entryDx=0;entryDy=0;" edge="1" parent="1" source="b7OoH07M5vMIsxXB9R5--219" target="b7OoH07M5vMIsxXB9R5--221">
          <mxGeometry width="50" height="50" relative="1" as="geometry">
            <mxPoint x="2030" y="757.5" as="sourcePoint" />
            <mxPoint x="2080" y="707.5" as="targetPoint" />
          </mxGeometry>
        </mxCell>
        <mxCell id="b7OoH07M5vMIsxXB9R5--236" value="v6" style="endArrow=none;html=1;rounded=0;exitX=1;exitY=1;exitDx=0;exitDy=0;entryX=0;entryY=0;entryDx=0;entryDy=0;" edge="1" parent="1" source="b7OoH07M5vMIsxXB9R5--224" target="b7OoH07M5vMIsxXB9R5--225">
          <mxGeometry width="50" height="50" relative="1" as="geometry">
            <mxPoint x="2030" y="757.5" as="sourcePoint" />
            <mxPoint x="2080" y="707.5" as="targetPoint" />
          </mxGeometry>
        </mxCell>
        <mxCell id="b7OoH07M5vMIsxXB9R5--252" value="1" style="text;html=1;align=center;verticalAlign=middle;whiteSpace=wrap;rounded=0;fontStyle=1" vertex="1" parent="1">
          <mxGeometry x="1791" y="697.5" width="60" height="30" as="geometry" />
        </mxCell>
        <mxCell id="b7OoH07M5vMIsxXB9R5--254" value="2" style="text;html=1;align=center;verticalAlign=middle;whiteSpace=wrap;rounded=0;fontStyle=1" vertex="1" parent="1">
          <mxGeometry x="1815" y="781.5" width="60" height="30" as="geometry" />
        </mxCell>
        <mxCell id="b7OoH07M5vMIsxXB9R5--259" value="2" style="text;html=1;align=center;verticalAlign=middle;whiteSpace=wrap;rounded=0;fontStyle=1" vertex="1" parent="1">
          <mxGeometry x="1908" y="697.5" width="60" height="30" as="geometry" />
        </mxCell>
        <mxCell id="b7OoH07M5vMIsxXB9R5--272" value="x1" style="ellipse;whiteSpace=wrap;html=1;aspect=fixed;" vertex="1" parent="1">
          <mxGeometry x="1780" y="1159" width="40" height="40" as="geometry" />
        </mxCell>
        <mxCell id="b7OoH07M5vMIsxXB9R5--273" value="x7" style="ellipse;whiteSpace=wrap;html=1;aspect=fixed;" vertex="1" parent="1">
          <mxGeometry x="2020" y="1139" width="40" height="40" as="geometry" />
        </mxCell>
        <mxCell id="b7OoH07M5vMIsxXB9R5--274" value="x5" style="ellipse;whiteSpace=wrap;html=1;aspect=fixed;" vertex="1" parent="1">
          <mxGeometry x="1880" y="1219" width="40" height="40" as="geometry" />
        </mxCell>
        <mxCell id="b7OoH07M5vMIsxXB9R5--275" value="x6" style="ellipse;whiteSpace=wrap;html=1;aspect=fixed;" vertex="1" parent="1">
          <mxGeometry x="1980" y="1249" width="40" height="40" as="geometry" />
        </mxCell>
        <mxCell id="b7OoH07M5vMIsxXB9R5--276" value="x9" style="ellipse;whiteSpace=wrap;html=1;aspect=fixed;" vertex="1" parent="1">
          <mxGeometry x="2100" y="1239" width="40" height="40" as="geometry" />
        </mxCell>
        <mxCell id="b7OoH07M5vMIsxXB9R5--277" value="x2" style="ellipse;whiteSpace=wrap;html=1;aspect=fixed;" vertex="1" parent="1">
          <mxGeometry x="1870" y="1069" width="40" height="40" as="geometry" />
        </mxCell>
        <mxCell id="b7OoH07M5vMIsxXB9R5--278" value="x4" style="ellipse;whiteSpace=wrap;html=1;aspect=fixed;" vertex="1" parent="1">
          <mxGeometry x="1934" y="1119" width="40" height="40" as="geometry" />
        </mxCell>
        <mxCell id="b7OoH07M5vMIsxXB9R5--279" value="x3" style="ellipse;whiteSpace=wrap;html=1;aspect=fixed;" vertex="1" parent="1">
          <mxGeometry x="2034" y="1039" width="40" height="40" as="geometry" />
        </mxCell>
        <mxCell id="b7OoH07M5vMIsxXB9R5--280" value="x11" style="ellipse;whiteSpace=wrap;html=1;aspect=fixed;" vertex="1" parent="1">
          <mxGeometry x="2260" y="1219" width="40" height="40" as="geometry" />
        </mxCell>
        <mxCell id="b7OoH07M5vMIsxXB9R5--281" value="x8" style="ellipse;whiteSpace=wrap;html=1;aspect=fixed;" vertex="1" parent="1">
          <mxGeometry x="2140" y="1119" width="40" height="40" as="geometry" />
        </mxCell>
        <mxCell id="b7OoH07M5vMIsxXB9R5--282" value="x10" style="ellipse;whiteSpace=wrap;html=1;aspect=fixed;" vertex="1" parent="1">
          <mxGeometry x="2210" y="1009" width="40" height="40" as="geometry" />
        </mxCell>
        <mxCell id="b7OoH07M5vMIsxXB9R5--283" value="x12" style="ellipse;whiteSpace=wrap;html=1;aspect=fixed;" vertex="1" parent="1">
          <mxGeometry x="2300" y="1099" width="40" height="40" as="geometry" />
        </mxCell>
        <mxCell id="b7OoH07M5vMIsxXB9R5--284" value="v1" style="endArrow=none;html=1;rounded=0;exitX=0.5;exitY=0;exitDx=0;exitDy=0;entryX=0;entryY=0.5;entryDx=0;entryDy=0;" edge="1" parent="1" source="b7OoH07M5vMIsxXB9R5--272" target="b7OoH07M5vMIsxXB9R5--277">
          <mxGeometry width="50" height="50" relative="1" as="geometry">
            <mxPoint x="2030" y="1149" as="sourcePoint" />
            <mxPoint x="2080" y="1099" as="targetPoint" />
          </mxGeometry>
        </mxCell>
        <mxCell id="b7OoH07M5vMIsxXB9R5--285" value="v20" style="endArrow=none;html=1;rounded=0;exitX=1;exitY=0;exitDx=0;exitDy=0;entryX=0;entryY=1;entryDx=0;entryDy=0;" edge="1" parent="1" source="b7OoH07M5vMIsxXB9R5--272" target="b7OoH07M5vMIsxXB9R5--277">
          <mxGeometry width="50" height="50" relative="1" as="geometry">
            <mxPoint x="1810" y="1169" as="sourcePoint" />
            <mxPoint x="1880" y="1099" as="targetPoint" />
          </mxGeometry>
        </mxCell>
        <mxCell id="b7OoH07M5vMIsxXB9R5--286" value="v18" style="endArrow=none;html=1;rounded=0;exitX=0.952;exitY=0.745;exitDx=0;exitDy=0;exitPerimeter=0;entryX=0;entryY=0;entryDx=0;entryDy=0;" edge="1" parent="1" source="b7OoH07M5vMIsxXB9R5--272" target="b7OoH07M5vMIsxXB9R5--274">
          <mxGeometry width="50" height="50" relative="1" as="geometry">
            <mxPoint x="2030" y="1149" as="sourcePoint" />
            <mxPoint x="2080" y="1099" as="targetPoint" />
          </mxGeometry>
        </mxCell>
        <mxCell id="b7OoH07M5vMIsxXB9R5--287" value="v19" style="endArrow=none;html=1;rounded=0;exitX=0.659;exitY=1.003;exitDx=0;exitDy=0;exitPerimeter=0;entryX=0;entryY=0.5;entryDx=0;entryDy=0;" edge="1" parent="1" source="b7OoH07M5vMIsxXB9R5--272" target="b7OoH07M5vMIsxXB9R5--274">
          <mxGeometry width="50" height="50" relative="1" as="geometry">
            <mxPoint x="1828" y="1199" as="sourcePoint" />
            <mxPoint x="1896" y="1235" as="targetPoint" />
          </mxGeometry>
        </mxCell>
        <mxCell id="b7OoH07M5vMIsxXB9R5--288" value="v2" style="endArrow=none;html=1;rounded=0;exitX=0.5;exitY=1;exitDx=0;exitDy=0;entryX=0.5;entryY=0;entryDx=0;entryDy=0;" edge="1" parent="1" source="b7OoH07M5vMIsxXB9R5--277" target="b7OoH07M5vMIsxXB9R5--274">
          <mxGeometry width="50" height="50" relative="1" as="geometry">
            <mxPoint x="2030" y="1149" as="sourcePoint" />
            <mxPoint x="2080" y="1099" as="targetPoint" />
          </mxGeometry>
        </mxCell>
        <mxCell id="b7OoH07M5vMIsxXB9R5--289" value="v6" style="endArrow=none;html=1;rounded=0;exitX=1;exitY=1;exitDx=0;exitDy=0;entryX=0;entryY=0;entryDx=0;entryDy=0;" edge="1" parent="1" source="b7OoH07M5vMIsxXB9R5--277" target="b7OoH07M5vMIsxXB9R5--278">
          <mxGeometry width="50" height="50" relative="1" as="geometry">
            <mxPoint x="2030" y="1149" as="sourcePoint" />
            <mxPoint x="2080" y="1099" as="targetPoint" />
          </mxGeometry>
        </mxCell>
        <mxCell id="b7OoH07M5vMIsxXB9R5--290" value="v3" style="endArrow=none;html=1;rounded=0;exitX=1;exitY=0.25;exitDx=0;exitDy=0;exitPerimeter=0;entryX=0;entryY=1;entryDx=0;entryDy=0;" edge="1" parent="1" source="b7OoH07M5vMIsxXB9R5--274" target="b7OoH07M5vMIsxXB9R5--273">
          <mxGeometry x="-0.4787" y="-5" width="50" height="50" relative="1" as="geometry">
            <mxPoint x="2030" y="1149" as="sourcePoint" />
            <mxPoint x="2080" y="1099" as="targetPoint" />
            <mxPoint as="offset" />
          </mxGeometry>
        </mxCell>
        <mxCell id="b7OoH07M5vMIsxXB9R5--291" value="v7" style="endArrow=none;html=1;rounded=0;exitX=1;exitY=1;exitDx=0;exitDy=0;entryX=0.5;entryY=0;entryDx=0;entryDy=0;" edge="1" parent="1" source="b7OoH07M5vMIsxXB9R5--278" target="b7OoH07M5vMIsxXB9R5--275">
          <mxGeometry x="0.5618" y="-3" width="50" height="50" relative="1" as="geometry">
            <mxPoint x="2030" y="1149" as="sourcePoint" />
            <mxPoint x="2080" y="1099" as="targetPoint" />
            <mxPoint as="offset" />
          </mxGeometry>
        </mxCell>
        <mxCell id="b7OoH07M5vMIsxXB9R5--292" value="v8" style="endArrow=none;html=1;rounded=0;exitX=1;exitY=0.5;exitDx=0;exitDy=0;entryX=0;entryY=0.5;entryDx=0;entryDy=0;" edge="1" parent="1" source="b7OoH07M5vMIsxXB9R5--275" target="b7OoH07M5vMIsxXB9R5--276">
          <mxGeometry width="50" height="50" relative="1" as="geometry">
            <mxPoint x="2030" y="1149" as="sourcePoint" />
            <mxPoint x="2080" y="1099" as="targetPoint" />
          </mxGeometry>
        </mxCell>
        <mxCell id="b7OoH07M5vMIsxXB9R5--293" value="v9" style="endArrow=none;html=1;rounded=0;exitX=0.5;exitY=0;exitDx=0;exitDy=0;entryX=0.5;entryY=1;entryDx=0;entryDy=0;" edge="1" parent="1" source="b7OoH07M5vMIsxXB9R5--276" target="b7OoH07M5vMIsxXB9R5--281">
          <mxGeometry width="50" height="50" relative="1" as="geometry">
            <mxPoint x="2030" y="1149" as="sourcePoint" />
            <mxPoint x="2080" y="1099" as="targetPoint" />
          </mxGeometry>
        </mxCell>
        <mxCell id="b7OoH07M5vMIsxXB9R5--294" value="v11" style="endArrow=none;html=1;rounded=0;exitX=1;exitY=0;exitDx=0;exitDy=0;entryX=0;entryY=1;entryDx=0;entryDy=0;" edge="1" parent="1" source="b7OoH07M5vMIsxXB9R5--273" target="b7OoH07M5vMIsxXB9R5--282">
          <mxGeometry width="50" height="50" relative="1" as="geometry">
            <mxPoint x="2030" y="1149" as="sourcePoint" />
            <mxPoint x="2080" y="1099" as="targetPoint" />
          </mxGeometry>
        </mxCell>
        <mxCell id="b7OoH07M5vMIsxXB9R5--295" value="v5" style="endArrow=none;html=1;rounded=0;exitX=0;exitY=0.5;exitDx=0;exitDy=0;entryX=1;entryY=0.5;entryDx=0;entryDy=0;" edge="1" parent="1" source="b7OoH07M5vMIsxXB9R5--279" target="b7OoH07M5vMIsxXB9R5--277">
          <mxGeometry width="50" height="50" relative="1" as="geometry">
            <mxPoint x="2030" y="1149" as="sourcePoint" />
            <mxPoint x="2080" y="1099" as="targetPoint" />
          </mxGeometry>
        </mxCell>
        <mxCell id="b7OoH07M5vMIsxXB9R5--296" value="v16" style="endArrow=none;html=1;rounded=0;exitX=1;exitY=0.5;exitDx=0;exitDy=0;entryX=0;entryY=0.5;entryDx=0;entryDy=0;" edge="1" parent="1" source="b7OoH07M5vMIsxXB9R5--279" target="b7OoH07M5vMIsxXB9R5--282">
          <mxGeometry width="50" height="50" relative="1" as="geometry">
            <mxPoint x="2030" y="1149" as="sourcePoint" />
            <mxPoint x="2080" y="1099" as="targetPoint" />
          </mxGeometry>
        </mxCell>
        <mxCell id="b7OoH07M5vMIsxXB9R5--297" value="v12" style="endArrow=none;html=1;rounded=0;exitX=0.5;exitY=0;exitDx=0;exitDy=0;" edge="1" parent="1" source="b7OoH07M5vMIsxXB9R5--283" target="b7OoH07M5vMIsxXB9R5--282">
          <mxGeometry width="50" height="50" relative="1" as="geometry">
            <mxPoint x="2030" y="1149" as="sourcePoint" />
            <mxPoint x="2080" y="1099" as="targetPoint" />
          </mxGeometry>
        </mxCell>
        <mxCell id="b7OoH07M5vMIsxXB9R5--298" value="v13" style="endArrow=none;html=1;rounded=0;exitX=0.762;exitY=0.021;exitDx=0;exitDy=0;curved=1;entryX=0.5;entryY=1;entryDx=0;entryDy=0;exitPerimeter=0;" edge="1" parent="1" source="b7OoH07M5vMIsxXB9R5--280" target="b7OoH07M5vMIsxXB9R5--283">
          <mxGeometry x="0.0086" y="-7" width="50" height="50" relative="1" as="geometry">
            <mxPoint x="2030" y="1149" as="sourcePoint" />
            <mxPoint x="2310" y="1139" as="targetPoint" />
            <Array as="points">
              <mxPoint x="2320" y="1179" />
            </Array>
            <mxPoint as="offset" />
          </mxGeometry>
        </mxCell>
        <mxCell id="b7OoH07M5vMIsxXB9R5--299" value="v14" style="endArrow=none;html=1;rounded=0;exitX=0.5;exitY=0;exitDx=0;exitDy=0;entryX=0;entryY=1;entryDx=0;entryDy=0;curved=1;" edge="1" parent="1" source="b7OoH07M5vMIsxXB9R5--280" target="b7OoH07M5vMIsxXB9R5--283">
          <mxGeometry width="50" height="50" relative="1" as="geometry">
            <mxPoint x="2030" y="1149" as="sourcePoint" />
            <mxPoint x="2080" y="1099" as="targetPoint" />
            <Array as="points">
              <mxPoint x="2270" y="1169" />
            </Array>
          </mxGeometry>
        </mxCell>
        <mxCell id="b7OoH07M5vMIsxXB9R5--300" value="v17" style="endArrow=none;html=1;rounded=0;exitX=1;exitY=0.5;exitDx=0;exitDy=0;entryX=0;entryY=0.5;entryDx=0;entryDy=0;" edge="1" parent="1" source="b7OoH07M5vMIsxXB9R5--281" target="b7OoH07M5vMIsxXB9R5--283">
          <mxGeometry width="50" height="50" relative="1" as="geometry">
            <mxPoint x="2000" y="1149" as="sourcePoint" />
            <mxPoint x="2050" y="1099" as="targetPoint" />
          </mxGeometry>
        </mxCell>
        <mxCell id="b7OoH07M5vMIsxXB9R5--301" value="v10" style="endArrow=none;html=1;rounded=0;exitX=1;exitY=0.5;exitDx=0;exitDy=0;entryX=0;entryY=0.5;entryDx=0;entryDy=0;" edge="1" parent="1" source="b7OoH07M5vMIsxXB9R5--273" target="b7OoH07M5vMIsxXB9R5--281">
          <mxGeometry width="50" height="50" relative="1" as="geometry">
            <mxPoint x="2000" y="1149" as="sourcePoint" />
            <mxPoint x="2050" y="1099" as="targetPoint" />
          </mxGeometry>
        </mxCell>
        <mxCell id="b7OoH07M5vMIsxXB9R5--302" value="v15" style="endArrow=none;html=1;rounded=0;entryX=1;entryY=0;entryDx=0;entryDy=0;" edge="1" parent="1" target="b7OoH07M5vMIsxXB9R5--275">
          <mxGeometry width="50" height="50" relative="1" as="geometry">
            <mxPoint x="2040" y="1179" as="sourcePoint" />
            <mxPoint x="2050" y="1099" as="targetPoint" />
          </mxGeometry>
        </mxCell>
        <mxCell id="b7OoH07M5vMIsxXB9R5--303" value="v4" style="endArrow=none;html=1;rounded=0;exitX=0.5;exitY=0;exitDx=0;exitDy=0;entryX=0.378;entryY=1.021;entryDx=0;entryDy=0;entryPerimeter=0;" edge="1" parent="1" source="b7OoH07M5vMIsxXB9R5--273" target="b7OoH07M5vMIsxXB9R5--279">
          <mxGeometry width="50" height="50" relative="1" as="geometry">
            <mxPoint x="2000" y="1149" as="sourcePoint" />
            <mxPoint x="2050" y="1099" as="targetPoint" />
          </mxGeometry>
        </mxCell>
        <mxCell id="b7OoH07M5vMIsxXB9R5--304" value="v21" style="endArrow=none;html=1;rounded=0;exitX=0.5;exitY=1;exitDx=0;exitDy=0;entryX=0;entryY=0.5;entryDx=0;entryDy=0;edgeStyle=orthogonalEdgeStyle;" edge="1" parent="1" source="b7OoH07M5vMIsxXB9R5--280" target="b7OoH07M5vMIsxXB9R5--272">
          <mxGeometry width="50" height="50" relative="1" as="geometry">
            <mxPoint x="1997" y="1068" as="sourcePoint" />
            <mxPoint x="2047" y="1018" as="targetPoint" />
            <Array as="points">
              <mxPoint x="2280" y="1297" />
              <mxPoint x="1770" y="1297" />
              <mxPoint x="1770" y="1179" />
            </Array>
          </mxGeometry>
        </mxCell>
        <mxCell id="b7OoH07M5vMIsxXB9R5--305" value="1" style="text;html=1;align=center;verticalAlign=middle;whiteSpace=wrap;rounded=0;fontStyle=1" vertex="1" parent="1">
          <mxGeometry x="1791" y="1089" width="60" height="30" as="geometry" />
        </mxCell>
        <mxCell id="b7OoH07M5vMIsxXB9R5--306" value="3" style="text;html=1;align=center;verticalAlign=middle;whiteSpace=wrap;rounded=0;fontStyle=1" vertex="1" parent="1">
          <mxGeometry x="1836" y="1113" width="60" height="30" as="geometry" />
        </mxCell>
        <mxCell id="b7OoH07M5vMIsxXB9R5--307" value="2" style="text;html=1;align=center;verticalAlign=middle;whiteSpace=wrap;rounded=0;fontStyle=1" vertex="1" parent="1">
          <mxGeometry x="1815" y="1173" width="60" height="30" as="geometry" />
        </mxCell>
        <mxCell id="b7OoH07M5vMIsxXB9R5--308" value="3" style="text;html=1;align=center;verticalAlign=middle;whiteSpace=wrap;rounded=0;fontStyle=1" vertex="1" parent="1">
          <mxGeometry x="1788" y="1206" width="60" height="30" as="geometry" />
        </mxCell>
        <mxCell id="b7OoH07M5vMIsxXB9R5--309" value="15" style="text;html=1;align=center;verticalAlign=middle;whiteSpace=wrap;rounded=0;fontStyle=1" vertex="1" parent="1">
          <mxGeometry x="1914" y="1296" width="60" height="30" as="geometry" />
        </mxCell>
        <mxCell id="b7OoH07M5vMIsxXB9R5--310" value="5" style="text;html=1;align=center;verticalAlign=middle;whiteSpace=wrap;rounded=0;fontStyle=1" vertex="1" parent="1">
          <mxGeometry x="1920" y="1185" width="60" height="30" as="geometry" />
        </mxCell>
        <mxCell id="b7OoH07M5vMIsxXB9R5--311" value="3" style="text;html=1;align=center;verticalAlign=middle;whiteSpace=wrap;rounded=0;fontStyle=1" vertex="1" parent="1">
          <mxGeometry x="1851" y="1166" width="60" height="30" as="geometry" />
        </mxCell>
        <mxCell id="b7OoH07M5vMIsxXB9R5--312" value="2" style="text;html=1;align=center;verticalAlign=middle;whiteSpace=wrap;rounded=0;fontStyle=1" vertex="1" parent="1">
          <mxGeometry x="1908" y="1089" width="60" height="30" as="geometry" />
        </mxCell>
        <mxCell id="b7OoH07M5vMIsxXB9R5--313" value="5" style="text;html=1;align=center;verticalAlign=middle;whiteSpace=wrap;rounded=0;fontStyle=1" vertex="1" parent="1">
          <mxGeometry x="1963" y="1044" width="60" height="30" as="geometry" />
        </mxCell>
        <mxCell id="b7OoH07M5vMIsxXB9R5--314" value="3" style="text;html=1;align=center;verticalAlign=middle;whiteSpace=wrap;rounded=0;fontStyle=1" vertex="1" parent="1">
          <mxGeometry x="2000" y="1093" width="60" height="30" as="geometry" />
        </mxCell>
        <mxCell id="b7OoH07M5vMIsxXB9R5--315" value="2" style="text;html=1;align=center;verticalAlign=middle;whiteSpace=wrap;rounded=0;fontStyle=1" vertex="1" parent="1">
          <mxGeometry x="1968" y="1203" width="60" height="30" as="geometry" />
        </mxCell>
        <mxCell id="b7OoH07M5vMIsxXB9R5--316" value="3" style="text;html=1;align=center;verticalAlign=middle;whiteSpace=wrap;rounded=0;fontStyle=1" vertex="1" parent="1">
          <mxGeometry x="2047" y="1233" width="60" height="30" as="geometry" />
        </mxCell>
        <mxCell id="b7OoH07M5vMIsxXB9R5--317" value="4" style="text;html=1;align=center;verticalAlign=middle;whiteSpace=wrap;rounded=0;fontStyle=1" vertex="1" parent="1">
          <mxGeometry x="2020" y="1189" width="60" height="30" as="geometry" />
        </mxCell>
        <mxCell id="b7OoH07M5vMIsxXB9R5--318" value="5" style="text;html=1;align=center;verticalAlign=middle;whiteSpace=wrap;rounded=0;fontStyle=1" vertex="1" parent="1">
          <mxGeometry x="2097" y="1118" width="60" height="30" as="geometry" />
        </mxCell>
        <mxCell id="b7OoH07M5vMIsxXB9R5--319" value="7" style="text;html=1;align=center;verticalAlign=middle;whiteSpace=wrap;rounded=0;fontStyle=1" vertex="1" parent="1">
          <mxGeometry x="2238" y="1098" width="60" height="30" as="geometry" />
        </mxCell>
        <mxCell id="b7OoH07M5vMIsxXB9R5--320" value="3" style="text;html=1;align=center;verticalAlign=middle;whiteSpace=wrap;rounded=0;fontStyle=1" vertex="1" parent="1">
          <mxGeometry x="2236" y="1026" width="60" height="30" as="geometry" />
        </mxCell>
        <mxCell id="b7OoH07M5vMIsxXB9R5--321" value="2" style="text;html=1;align=center;verticalAlign=middle;whiteSpace=wrap;rounded=0;fontStyle=1" vertex="1" parent="1">
          <mxGeometry x="2122" y="1013" width="60" height="30" as="geometry" />
        </mxCell>
        <mxCell id="b7OoH07M5vMIsxXB9R5--322" value="4" style="text;html=1;align=center;verticalAlign=middle;whiteSpace=wrap;rounded=0;fontStyle=1" vertex="1" parent="1">
          <mxGeometry x="2130" y="1052" width="60" height="30" as="geometry" />
        </mxCell>
        <mxCell id="b7OoH07M5vMIsxXB9R5--323" value="1" style="text;html=1;align=center;verticalAlign=middle;whiteSpace=wrap;rounded=0;fontStyle=1" vertex="1" parent="1">
          <mxGeometry x="2234" y="1176" width="60" height="30" as="geometry" />
        </mxCell>
        <mxCell id="b7OoH07M5vMIsxXB9R5--324" value="2" style="text;html=1;align=center;verticalAlign=middle;whiteSpace=wrap;rounded=0;fontStyle=1" vertex="1" parent="1">
          <mxGeometry x="2305" y="1143" width="60" height="30" as="geometry" />
        </mxCell>
        <mxCell id="b7OoH07M5vMIsxXB9R5--378" value="7" style="text;html=1;align=center;verticalAlign=middle;whiteSpace=wrap;rounded=0;fontStyle=1" vertex="1" parent="1">
          <mxGeometry x="2130" y="1185" width="60" height="30" as="geometry" />
        </mxCell>
        <mxCell id="b7OoH07M5vMIsxXB9R5--379" value="7" style="text;html=1;align=center;verticalAlign=middle;whiteSpace=wrap;rounded=0;fontStyle=1" vertex="1" parent="1">
          <mxGeometry x="1288" y="833" width="60" height="30" as="geometry" />
        </mxCell>
        <mxCell id="b7OoH07M5vMIsxXB9R5--380" value="x1" style="ellipse;whiteSpace=wrap;html=1;aspect=fixed;" vertex="1" parent="1">
          <mxGeometry x="1780" y="1490" width="40" height="40" as="geometry" />
        </mxCell>
        <mxCell id="b7OoH07M5vMIsxXB9R5--381" value="x7" style="ellipse;whiteSpace=wrap;html=1;aspect=fixed;" vertex="1" parent="1">
          <mxGeometry x="2020" y="1470" width="40" height="40" as="geometry" />
        </mxCell>
        <mxCell id="b7OoH07M5vMIsxXB9R5--382" value="x5" style="ellipse;whiteSpace=wrap;html=1;aspect=fixed;" vertex="1" parent="1">
          <mxGeometry x="1880" y="1550" width="40" height="40" as="geometry" />
        </mxCell>
        <mxCell id="b7OoH07M5vMIsxXB9R5--383" value="x6" style="ellipse;whiteSpace=wrap;html=1;aspect=fixed;" vertex="1" parent="1">
          <mxGeometry x="1980" y="1580" width="40" height="40" as="geometry" />
        </mxCell>
        <mxCell id="b7OoH07M5vMIsxXB9R5--384" value="x9" style="ellipse;whiteSpace=wrap;html=1;aspect=fixed;" vertex="1" parent="1">
          <mxGeometry x="2100" y="1570" width="40" height="40" as="geometry" />
        </mxCell>
        <mxCell id="b7OoH07M5vMIsxXB9R5--385" value="x2" style="ellipse;whiteSpace=wrap;html=1;aspect=fixed;" vertex="1" parent="1">
          <mxGeometry x="1870" y="1400" width="40" height="40" as="geometry" />
        </mxCell>
        <mxCell id="b7OoH07M5vMIsxXB9R5--386" value="x4" style="ellipse;whiteSpace=wrap;html=1;aspect=fixed;" vertex="1" parent="1">
          <mxGeometry x="1934" y="1450" width="40" height="40" as="geometry" />
        </mxCell>
        <mxCell id="b7OoH07M5vMIsxXB9R5--387" value="x3" style="ellipse;whiteSpace=wrap;html=1;aspect=fixed;" vertex="1" parent="1">
          <mxGeometry x="2034" y="1370" width="40" height="40" as="geometry" />
        </mxCell>
        <mxCell id="b7OoH07M5vMIsxXB9R5--392" value="v1" style="endArrow=none;html=1;rounded=0;exitX=0.5;exitY=0;exitDx=0;exitDy=0;entryX=0;entryY=0.5;entryDx=0;entryDy=0;" edge="1" parent="1" source="b7OoH07M5vMIsxXB9R5--380" target="b7OoH07M5vMIsxXB9R5--385">
          <mxGeometry width="50" height="50" relative="1" as="geometry">
            <mxPoint x="2030" y="1480" as="sourcePoint" />
            <mxPoint x="2080" y="1430" as="targetPoint" />
          </mxGeometry>
        </mxCell>
        <mxCell id="b7OoH07M5vMIsxXB9R5--394" value="v18" style="endArrow=none;html=1;rounded=0;exitX=0.952;exitY=0.745;exitDx=0;exitDy=0;exitPerimeter=0;entryX=0;entryY=0;entryDx=0;entryDy=0;" edge="1" parent="1" source="b7OoH07M5vMIsxXB9R5--380" target="b7OoH07M5vMIsxXB9R5--382">
          <mxGeometry width="50" height="50" relative="1" as="geometry">
            <mxPoint x="2030" y="1480" as="sourcePoint" />
            <mxPoint x="2080" y="1430" as="targetPoint" />
          </mxGeometry>
        </mxCell>
        <mxCell id="b7OoH07M5vMIsxXB9R5--397" value="v6" style="endArrow=none;html=1;rounded=0;exitX=1;exitY=1;exitDx=0;exitDy=0;entryX=0;entryY=0;entryDx=0;entryDy=0;" edge="1" parent="1" source="b7OoH07M5vMIsxXB9R5--385" target="b7OoH07M5vMIsxXB9R5--386">
          <mxGeometry width="50" height="50" relative="1" as="geometry">
            <mxPoint x="2030" y="1480" as="sourcePoint" />
            <mxPoint x="2080" y="1430" as="targetPoint" />
          </mxGeometry>
        </mxCell>
        <mxCell id="b7OoH07M5vMIsxXB9R5--399" value="v7" style="endArrow=none;html=1;rounded=0;exitX=1;exitY=1;exitDx=0;exitDy=0;entryX=0.5;entryY=0;entryDx=0;entryDy=0;" edge="1" parent="1" source="b7OoH07M5vMIsxXB9R5--386" target="b7OoH07M5vMIsxXB9R5--383">
          <mxGeometry x="0.5618" y="-3" width="50" height="50" relative="1" as="geometry">
            <mxPoint x="2030" y="1480" as="sourcePoint" />
            <mxPoint x="2080" y="1430" as="targetPoint" />
            <mxPoint as="offset" />
          </mxGeometry>
        </mxCell>
        <mxCell id="b7OoH07M5vMIsxXB9R5--400" value="v8" style="endArrow=none;html=1;rounded=0;exitX=1;exitY=0.5;exitDx=0;exitDy=0;entryX=0;entryY=0.5;entryDx=0;entryDy=0;" edge="1" parent="1" source="b7OoH07M5vMIsxXB9R5--383" target="b7OoH07M5vMIsxXB9R5--384">
          <mxGeometry width="50" height="50" relative="1" as="geometry">
            <mxPoint x="2030" y="1480" as="sourcePoint" />
            <mxPoint x="2080" y="1430" as="targetPoint" />
          </mxGeometry>
        </mxCell>
        <mxCell id="b7OoH07M5vMIsxXB9R5--410" value="v15" style="endArrow=none;html=1;rounded=0;entryX=1;entryY=0;entryDx=0;entryDy=0;" edge="1" parent="1" target="b7OoH07M5vMIsxXB9R5--383">
          <mxGeometry width="50" height="50" relative="1" as="geometry">
            <mxPoint x="2040" y="1510" as="sourcePoint" />
            <mxPoint x="2050" y="1430" as="targetPoint" />
          </mxGeometry>
        </mxCell>
        <mxCell id="b7OoH07M5vMIsxXB9R5--411" value="v4" style="endArrow=none;html=1;rounded=0;exitX=0.5;exitY=0;exitDx=0;exitDy=0;entryX=0.378;entryY=1.021;entryDx=0;entryDy=0;entryPerimeter=0;" edge="1" parent="1" source="b7OoH07M5vMIsxXB9R5--381" target="b7OoH07M5vMIsxXB9R5--387">
          <mxGeometry width="50" height="50" relative="1" as="geometry">
            <mxPoint x="2000" y="1480" as="sourcePoint" />
            <mxPoint x="2050" y="1430" as="targetPoint" />
          </mxGeometry>
        </mxCell>
        <mxCell id="b7OoH07M5vMIsxXB9R5--413" value="1" style="text;html=1;align=center;verticalAlign=middle;whiteSpace=wrap;rounded=0;fontStyle=1" vertex="1" parent="1">
          <mxGeometry x="1791" y="1420" width="60" height="30" as="geometry" />
        </mxCell>
        <mxCell id="b7OoH07M5vMIsxXB9R5--415" value="2" style="text;html=1;align=center;verticalAlign=middle;whiteSpace=wrap;rounded=0;fontStyle=1" vertex="1" parent="1">
          <mxGeometry x="1815" y="1504" width="60" height="30" as="geometry" />
        </mxCell>
        <mxCell id="b7OoH07M5vMIsxXB9R5--420" value="2" style="text;html=1;align=center;verticalAlign=middle;whiteSpace=wrap;rounded=0;fontStyle=1" vertex="1" parent="1">
          <mxGeometry x="1908" y="1420" width="60" height="30" as="geometry" />
        </mxCell>
        <mxCell id="b7OoH07M5vMIsxXB9R5--422" value="3" style="text;html=1;align=center;verticalAlign=middle;whiteSpace=wrap;rounded=0;fontStyle=1" vertex="1" parent="1">
          <mxGeometry x="2000" y="1424" width="60" height="30" as="geometry" />
        </mxCell>
        <mxCell id="b7OoH07M5vMIsxXB9R5--423" value="2" style="text;html=1;align=center;verticalAlign=middle;whiteSpace=wrap;rounded=0;fontStyle=1" vertex="1" parent="1">
          <mxGeometry x="1968" y="1534" width="60" height="30" as="geometry" />
        </mxCell>
        <mxCell id="b7OoH07M5vMIsxXB9R5--424" value="3" style="text;html=1;align=center;verticalAlign=middle;whiteSpace=wrap;rounded=0;fontStyle=1" vertex="1" parent="1">
          <mxGeometry x="2047" y="1564" width="60" height="30" as="geometry" />
        </mxCell>
        <mxCell id="b7OoH07M5vMIsxXB9R5--425" value="4" style="text;html=1;align=center;verticalAlign=middle;whiteSpace=wrap;rounded=0;fontStyle=1" vertex="1" parent="1">
          <mxGeometry x="2020" y="1520" width="60" height="30" as="geometry" />
        </mxCell>
        <mxCell id="b7OoH07M5vMIsxXB9R5--434" value="x1" style="ellipse;whiteSpace=wrap;html=1;aspect=fixed;" vertex="1" parent="1">
          <mxGeometry x="1780" y="1870" width="40" height="40" as="geometry" />
        </mxCell>
        <mxCell id="b7OoH07M5vMIsxXB9R5--435" value="x7" style="ellipse;whiteSpace=wrap;html=1;aspect=fixed;" vertex="1" parent="1">
          <mxGeometry x="2020" y="1850" width="40" height="40" as="geometry" />
        </mxCell>
        <mxCell id="b7OoH07M5vMIsxXB9R5--436" value="x5" style="ellipse;whiteSpace=wrap;html=1;aspect=fixed;" vertex="1" parent="1">
          <mxGeometry x="1880" y="1930" width="40" height="40" as="geometry" />
        </mxCell>
        <mxCell id="b7OoH07M5vMIsxXB9R5--437" value="x6" style="ellipse;whiteSpace=wrap;html=1;aspect=fixed;" vertex="1" parent="1">
          <mxGeometry x="1980" y="1960" width="40" height="40" as="geometry" />
        </mxCell>
        <mxCell id="b7OoH07M5vMIsxXB9R5--438" value="x9" style="ellipse;whiteSpace=wrap;html=1;aspect=fixed;" vertex="1" parent="1">
          <mxGeometry x="2100" y="1950" width="40" height="40" as="geometry" />
        </mxCell>
        <mxCell id="b7OoH07M5vMIsxXB9R5--439" value="x2" style="ellipse;whiteSpace=wrap;html=1;aspect=fixed;" vertex="1" parent="1">
          <mxGeometry x="1870" y="1780" width="40" height="40" as="geometry" />
        </mxCell>
        <mxCell id="b7OoH07M5vMIsxXB9R5--440" value="x4" style="ellipse;whiteSpace=wrap;html=1;aspect=fixed;" vertex="1" parent="1">
          <mxGeometry x="1934" y="1830" width="40" height="40" as="geometry" />
        </mxCell>
        <mxCell id="b7OoH07M5vMIsxXB9R5--441" value="x3" style="ellipse;whiteSpace=wrap;html=1;aspect=fixed;" vertex="1" parent="1">
          <mxGeometry x="2034" y="1750" width="40" height="40" as="geometry" />
        </mxCell>
        <mxCell id="b7OoH07M5vMIsxXB9R5--442" value="x11" style="ellipse;whiteSpace=wrap;html=1;aspect=fixed;" vertex="1" parent="1">
          <mxGeometry x="2260" y="1930" width="40" height="40" as="geometry" />
        </mxCell>
        <mxCell id="b7OoH07M5vMIsxXB9R5--444" value="x10" style="ellipse;whiteSpace=wrap;html=1;aspect=fixed;" vertex="1" parent="1">
          <mxGeometry x="2210" y="1720" width="40" height="40" as="geometry" />
        </mxCell>
        <mxCell id="b7OoH07M5vMIsxXB9R5--445" value="x12" style="ellipse;whiteSpace=wrap;html=1;aspect=fixed;" vertex="1" parent="1">
          <mxGeometry x="2300" y="1810" width="40" height="40" as="geometry" />
        </mxCell>
        <mxCell id="b7OoH07M5vMIsxXB9R5--446" value="v1" style="endArrow=none;html=1;rounded=0;exitX=0.5;exitY=0;exitDx=0;exitDy=0;entryX=0;entryY=0.5;entryDx=0;entryDy=0;" edge="1" parent="1" source="b7OoH07M5vMIsxXB9R5--434" target="b7OoH07M5vMIsxXB9R5--439">
          <mxGeometry width="50" height="50" relative="1" as="geometry">
            <mxPoint x="2030" y="1860" as="sourcePoint" />
            <mxPoint x="2080" y="1810" as="targetPoint" />
          </mxGeometry>
        </mxCell>
        <mxCell id="b7OoH07M5vMIsxXB9R5--448" value="v18" style="endArrow=none;html=1;rounded=0;exitX=0.952;exitY=0.745;exitDx=0;exitDy=0;exitPerimeter=0;entryX=0;entryY=0;entryDx=0;entryDy=0;" edge="1" parent="1" source="b7OoH07M5vMIsxXB9R5--434" target="b7OoH07M5vMIsxXB9R5--436">
          <mxGeometry width="50" height="50" relative="1" as="geometry">
            <mxPoint x="2030" y="1860" as="sourcePoint" />
            <mxPoint x="2080" y="1810" as="targetPoint" />
          </mxGeometry>
        </mxCell>
        <mxCell id="b7OoH07M5vMIsxXB9R5--451" value="v6" style="endArrow=none;html=1;rounded=0;exitX=1;exitY=1;exitDx=0;exitDy=0;entryX=0;entryY=0;entryDx=0;entryDy=0;" edge="1" parent="1" source="b7OoH07M5vMIsxXB9R5--439" target="b7OoH07M5vMIsxXB9R5--440">
          <mxGeometry width="50" height="50" relative="1" as="geometry">
            <mxPoint x="2030" y="1860" as="sourcePoint" />
            <mxPoint x="2080" y="1810" as="targetPoint" />
          </mxGeometry>
        </mxCell>
        <mxCell id="b7OoH07M5vMIsxXB9R5--453" value="v7" style="endArrow=none;html=1;rounded=0;exitX=1;exitY=1;exitDx=0;exitDy=0;entryX=0.5;entryY=0;entryDx=0;entryDy=0;" edge="1" parent="1" source="b7OoH07M5vMIsxXB9R5--440" target="b7OoH07M5vMIsxXB9R5--437">
          <mxGeometry x="0.5618" y="-3" width="50" height="50" relative="1" as="geometry">
            <mxPoint x="2030" y="1860" as="sourcePoint" />
            <mxPoint x="2080" y="1810" as="targetPoint" />
            <mxPoint as="offset" />
          </mxGeometry>
        </mxCell>
        <mxCell id="b7OoH07M5vMIsxXB9R5--454" value="v8" style="endArrow=none;html=1;rounded=0;exitX=1;exitY=0.5;exitDx=0;exitDy=0;entryX=0;entryY=0.5;entryDx=0;entryDy=0;" edge="1" parent="1" source="b7OoH07M5vMIsxXB9R5--437" target="b7OoH07M5vMIsxXB9R5--438">
          <mxGeometry width="50" height="50" relative="1" as="geometry">
            <mxPoint x="2030" y="1860" as="sourcePoint" />
            <mxPoint x="2080" y="1810" as="targetPoint" />
          </mxGeometry>
        </mxCell>
        <mxCell id="b7OoH07M5vMIsxXB9R5--458" value="v16" style="endArrow=none;html=1;rounded=0;exitX=1;exitY=0.5;exitDx=0;exitDy=0;entryX=0;entryY=0.5;entryDx=0;entryDy=0;" edge="1" parent="1" source="b7OoH07M5vMIsxXB9R5--441" target="b7OoH07M5vMIsxXB9R5--444">
          <mxGeometry width="50" height="50" relative="1" as="geometry">
            <mxPoint x="2030" y="1860" as="sourcePoint" />
            <mxPoint x="2080" y="1810" as="targetPoint" />
          </mxGeometry>
        </mxCell>
        <mxCell id="b7OoH07M5vMIsxXB9R5--459" value="v12" style="endArrow=none;html=1;rounded=0;exitX=0.5;exitY=0;exitDx=0;exitDy=0;" edge="1" parent="1" source="b7OoH07M5vMIsxXB9R5--445" target="b7OoH07M5vMIsxXB9R5--444">
          <mxGeometry width="50" height="50" relative="1" as="geometry">
            <mxPoint x="2030" y="1860" as="sourcePoint" />
            <mxPoint x="2080" y="1810" as="targetPoint" />
          </mxGeometry>
        </mxCell>
        <mxCell id="b7OoH07M5vMIsxXB9R5--461" value="v14" style="endArrow=none;html=1;rounded=0;exitX=0.5;exitY=0;exitDx=0;exitDy=0;entryX=0;entryY=1;entryDx=0;entryDy=0;curved=1;" edge="1" parent="1" source="b7OoH07M5vMIsxXB9R5--442" target="b7OoH07M5vMIsxXB9R5--445">
          <mxGeometry width="50" height="50" relative="1" as="geometry">
            <mxPoint x="2030" y="1860" as="sourcePoint" />
            <mxPoint x="2080" y="1810" as="targetPoint" />
            <Array as="points">
              <mxPoint x="2270" y="1880" />
            </Array>
          </mxGeometry>
        </mxCell>
        <mxCell id="b7OoH07M5vMIsxXB9R5--464" value="v15" style="endArrow=none;html=1;rounded=0;entryX=1;entryY=0;entryDx=0;entryDy=0;" edge="1" parent="1" target="b7OoH07M5vMIsxXB9R5--437">
          <mxGeometry width="50" height="50" relative="1" as="geometry">
            <mxPoint x="2040" y="1890" as="sourcePoint" />
            <mxPoint x="2050" y="1810" as="targetPoint" />
          </mxGeometry>
        </mxCell>
        <mxCell id="b7OoH07M5vMIsxXB9R5--465" value="v4" style="endArrow=none;html=1;rounded=0;exitX=0.5;exitY=0;exitDx=0;exitDy=0;entryX=0.378;entryY=1.021;entryDx=0;entryDy=0;entryPerimeter=0;" edge="1" parent="1" source="b7OoH07M5vMIsxXB9R5--435" target="b7OoH07M5vMIsxXB9R5--441">
          <mxGeometry width="50" height="50" relative="1" as="geometry">
            <mxPoint x="2000" y="1860" as="sourcePoint" />
            <mxPoint x="2050" y="1810" as="targetPoint" />
          </mxGeometry>
        </mxCell>
        <mxCell id="b7OoH07M5vMIsxXB9R5--467" value="1" style="text;html=1;align=center;verticalAlign=middle;whiteSpace=wrap;rounded=0;fontStyle=1" vertex="1" parent="1">
          <mxGeometry x="1791" y="1800" width="60" height="30" as="geometry" />
        </mxCell>
        <mxCell id="b7OoH07M5vMIsxXB9R5--469" value="2" style="text;html=1;align=center;verticalAlign=middle;whiteSpace=wrap;rounded=0;fontStyle=1" vertex="1" parent="1">
          <mxGeometry x="1815" y="1884" width="60" height="30" as="geometry" />
        </mxCell>
        <mxCell id="b7OoH07M5vMIsxXB9R5--474" value="2" style="text;html=1;align=center;verticalAlign=middle;whiteSpace=wrap;rounded=0;fontStyle=1" vertex="1" parent="1">
          <mxGeometry x="1908" y="1800" width="60" height="30" as="geometry" />
        </mxCell>
        <mxCell id="b7OoH07M5vMIsxXB9R5--476" value="3" style="text;html=1;align=center;verticalAlign=middle;whiteSpace=wrap;rounded=0;fontStyle=1" vertex="1" parent="1">
          <mxGeometry x="2000" y="1804" width="60" height="30" as="geometry" />
        </mxCell>
        <mxCell id="b7OoH07M5vMIsxXB9R5--477" value="2" style="text;html=1;align=center;verticalAlign=middle;whiteSpace=wrap;rounded=0;fontStyle=1" vertex="1" parent="1">
          <mxGeometry x="1968" y="1914" width="60" height="30" as="geometry" />
        </mxCell>
        <mxCell id="b7OoH07M5vMIsxXB9R5--478" value="3" style="text;html=1;align=center;verticalAlign=middle;whiteSpace=wrap;rounded=0;fontStyle=1" vertex="1" parent="1">
          <mxGeometry x="2047" y="1944" width="60" height="30" as="geometry" />
        </mxCell>
        <mxCell id="b7OoH07M5vMIsxXB9R5--479" value="4" style="text;html=1;align=center;verticalAlign=middle;whiteSpace=wrap;rounded=0;fontStyle=1" vertex="1" parent="1">
          <mxGeometry x="2020" y="1900" width="60" height="30" as="geometry" />
        </mxCell>
        <mxCell id="b7OoH07M5vMIsxXB9R5--482" value="3" style="text;html=1;align=center;verticalAlign=middle;whiteSpace=wrap;rounded=0;fontStyle=1" vertex="1" parent="1">
          <mxGeometry x="2236" y="1737" width="60" height="30" as="geometry" />
        </mxCell>
        <mxCell id="b7OoH07M5vMIsxXB9R5--483" value="2" style="text;html=1;align=center;verticalAlign=middle;whiteSpace=wrap;rounded=0;fontStyle=1" vertex="1" parent="1">
          <mxGeometry x="2122" y="1724" width="60" height="30" as="geometry" />
        </mxCell>
        <mxCell id="b7OoH07M5vMIsxXB9R5--485" value="1" style="text;html=1;align=center;verticalAlign=middle;whiteSpace=wrap;rounded=0;fontStyle=1" vertex="1" parent="1">
          <mxGeometry x="2234" y="1887" width="60" height="30" as="geometry" />
        </mxCell>
        <mxCell id="b7OoH07M5vMIsxXB9R5--488" value="x1" style="ellipse;whiteSpace=wrap;html=1;aspect=fixed;" vertex="1" parent="1">
          <mxGeometry x="2510" y="1860" width="40" height="40" as="geometry" />
        </mxCell>
        <mxCell id="b7OoH07M5vMIsxXB9R5--489" value="x7" style="ellipse;whiteSpace=wrap;html=1;aspect=fixed;" vertex="1" parent="1">
          <mxGeometry x="2750" y="1840" width="40" height="40" as="geometry" />
        </mxCell>
        <mxCell id="b7OoH07M5vMIsxXB9R5--490" value="x5" style="ellipse;whiteSpace=wrap;html=1;aspect=fixed;" vertex="1" parent="1">
          <mxGeometry x="2610" y="1920" width="40" height="40" as="geometry" />
        </mxCell>
        <mxCell id="b7OoH07M5vMIsxXB9R5--491" value="x6" style="ellipse;whiteSpace=wrap;html=1;aspect=fixed;" vertex="1" parent="1">
          <mxGeometry x="2710" y="1950" width="40" height="40" as="geometry" />
        </mxCell>
        <mxCell id="b7OoH07M5vMIsxXB9R5--492" value="x9" style="ellipse;whiteSpace=wrap;html=1;aspect=fixed;" vertex="1" parent="1">
          <mxGeometry x="2830" y="1940" width="40" height="40" as="geometry" />
        </mxCell>
        <mxCell id="b7OoH07M5vMIsxXB9R5--493" value="x2" style="ellipse;whiteSpace=wrap;html=1;aspect=fixed;" vertex="1" parent="1">
          <mxGeometry x="2600" y="1770" width="40" height="40" as="geometry" />
        </mxCell>
        <mxCell id="b7OoH07M5vMIsxXB9R5--494" value="x4" style="ellipse;whiteSpace=wrap;html=1;aspect=fixed;" vertex="1" parent="1">
          <mxGeometry x="2664" y="1820" width="40" height="40" as="geometry" />
        </mxCell>
        <mxCell id="b7OoH07M5vMIsxXB9R5--495" value="x3" style="ellipse;whiteSpace=wrap;html=1;aspect=fixed;" vertex="1" parent="1">
          <mxGeometry x="2764" y="1740" width="40" height="40" as="geometry" />
        </mxCell>
        <mxCell id="b7OoH07M5vMIsxXB9R5--496" value="x11" style="ellipse;whiteSpace=wrap;html=1;aspect=fixed;" vertex="1" parent="1">
          <mxGeometry x="2990" y="1920" width="40" height="40" as="geometry" />
        </mxCell>
        <mxCell id="b7OoH07M5vMIsxXB9R5--497" value="x8" style="ellipse;whiteSpace=wrap;html=1;aspect=fixed;" vertex="1" parent="1">
          <mxGeometry x="2870" y="1820" width="40" height="40" as="geometry" />
        </mxCell>
        <mxCell id="b7OoH07M5vMIsxXB9R5--498" value="x10" style="ellipse;whiteSpace=wrap;html=1;aspect=fixed;" vertex="1" parent="1">
          <mxGeometry x="2940" y="1710" width="40" height="40" as="geometry" />
        </mxCell>
        <mxCell id="b7OoH07M5vMIsxXB9R5--499" value="x12" style="ellipse;whiteSpace=wrap;html=1;aspect=fixed;" vertex="1" parent="1">
          <mxGeometry x="3030" y="1800" width="40" height="40" as="geometry" />
        </mxCell>
        <mxCell id="b7OoH07M5vMIsxXB9R5--500" value="v1" style="endArrow=none;html=1;rounded=0;exitX=0.5;exitY=0;exitDx=0;exitDy=0;entryX=0;entryY=0.5;entryDx=0;entryDy=0;" edge="1" parent="1" source="b7OoH07M5vMIsxXB9R5--488" target="b7OoH07M5vMIsxXB9R5--493">
          <mxGeometry width="50" height="50" relative="1" as="geometry">
            <mxPoint x="2760" y="1850" as="sourcePoint" />
            <mxPoint x="2810" y="1800" as="targetPoint" />
          </mxGeometry>
        </mxCell>
        <mxCell id="b7OoH07M5vMIsxXB9R5--502" value="v18" style="endArrow=none;html=1;rounded=0;exitX=0.952;exitY=0.745;exitDx=0;exitDy=0;exitPerimeter=0;entryX=0;entryY=0;entryDx=0;entryDy=0;" edge="1" parent="1" source="b7OoH07M5vMIsxXB9R5--488" target="b7OoH07M5vMIsxXB9R5--490">
          <mxGeometry width="50" height="50" relative="1" as="geometry">
            <mxPoint x="2760" y="1850" as="sourcePoint" />
            <mxPoint x="2810" y="1800" as="targetPoint" />
          </mxGeometry>
        </mxCell>
        <mxCell id="b7OoH07M5vMIsxXB9R5--505" value="v6" style="endArrow=none;html=1;rounded=0;exitX=1;exitY=1;exitDx=0;exitDy=0;entryX=0;entryY=0;entryDx=0;entryDy=0;" edge="1" parent="1" source="b7OoH07M5vMIsxXB9R5--493" target="b7OoH07M5vMIsxXB9R5--494">
          <mxGeometry width="50" height="50" relative="1" as="geometry">
            <mxPoint x="2760" y="1850" as="sourcePoint" />
            <mxPoint x="2810" y="1800" as="targetPoint" />
          </mxGeometry>
        </mxCell>
        <mxCell id="b7OoH07M5vMIsxXB9R5--507" value="v7" style="endArrow=none;html=1;rounded=0;exitX=1;exitY=1;exitDx=0;exitDy=0;entryX=0.5;entryY=0;entryDx=0;entryDy=0;" edge="1" parent="1" source="b7OoH07M5vMIsxXB9R5--494" target="b7OoH07M5vMIsxXB9R5--491">
          <mxGeometry x="0.5618" y="-3" width="50" height="50" relative="1" as="geometry">
            <mxPoint x="2760" y="1850" as="sourcePoint" />
            <mxPoint x="2810" y="1800" as="targetPoint" />
            <mxPoint as="offset" />
          </mxGeometry>
        </mxCell>
        <mxCell id="b7OoH07M5vMIsxXB9R5--508" value="v8" style="endArrow=none;html=1;rounded=0;exitX=1;exitY=0.5;exitDx=0;exitDy=0;entryX=0;entryY=0.5;entryDx=0;entryDy=0;" edge="1" parent="1" source="b7OoH07M5vMIsxXB9R5--491" target="b7OoH07M5vMIsxXB9R5--492">
          <mxGeometry width="50" height="50" relative="1" as="geometry">
            <mxPoint x="2760" y="1850" as="sourcePoint" />
            <mxPoint x="2810" y="1800" as="targetPoint" />
          </mxGeometry>
        </mxCell>
        <mxCell id="b7OoH07M5vMIsxXB9R5--512" value="v16" style="endArrow=none;html=1;rounded=0;exitX=1;exitY=0.5;exitDx=0;exitDy=0;entryX=0;entryY=0.5;entryDx=0;entryDy=0;" edge="1" parent="1" source="b7OoH07M5vMIsxXB9R5--495" target="b7OoH07M5vMIsxXB9R5--498">
          <mxGeometry width="50" height="50" relative="1" as="geometry">
            <mxPoint x="2760" y="1850" as="sourcePoint" />
            <mxPoint x="2810" y="1800" as="targetPoint" />
          </mxGeometry>
        </mxCell>
        <mxCell id="b7OoH07M5vMIsxXB9R5--513" value="v12" style="endArrow=none;html=1;rounded=0;exitX=0.5;exitY=0;exitDx=0;exitDy=0;" edge="1" parent="1" source="b7OoH07M5vMIsxXB9R5--499" target="b7OoH07M5vMIsxXB9R5--498">
          <mxGeometry width="50" height="50" relative="1" as="geometry">
            <mxPoint x="2760" y="1850" as="sourcePoint" />
            <mxPoint x="2810" y="1800" as="targetPoint" />
          </mxGeometry>
        </mxCell>
        <mxCell id="b7OoH07M5vMIsxXB9R5--515" value="v14" style="endArrow=none;html=1;rounded=0;exitX=0.5;exitY=0;exitDx=0;exitDy=0;entryX=0;entryY=1;entryDx=0;entryDy=0;curved=1;" edge="1" parent="1" source="b7OoH07M5vMIsxXB9R5--496" target="b7OoH07M5vMIsxXB9R5--499">
          <mxGeometry width="50" height="50" relative="1" as="geometry">
            <mxPoint x="2760" y="1850" as="sourcePoint" />
            <mxPoint x="2810" y="1800" as="targetPoint" />
            <Array as="points">
              <mxPoint x="3000" y="1870" />
            </Array>
          </mxGeometry>
        </mxCell>
        <mxCell id="b7OoH07M5vMIsxXB9R5--517" value="v10" style="endArrow=none;html=1;rounded=0;exitX=1;exitY=0.5;exitDx=0;exitDy=0;entryX=0;entryY=0.5;entryDx=0;entryDy=0;" edge="1" parent="1" source="b7OoH07M5vMIsxXB9R5--489" target="b7OoH07M5vMIsxXB9R5--497">
          <mxGeometry width="50" height="50" relative="1" as="geometry">
            <mxPoint x="2730" y="1850" as="sourcePoint" />
            <mxPoint x="2780" y="1800" as="targetPoint" />
          </mxGeometry>
        </mxCell>
        <mxCell id="b7OoH07M5vMIsxXB9R5--518" value="v15" style="endArrow=none;html=1;rounded=0;entryX=1;entryY=0;entryDx=0;entryDy=0;" edge="1" parent="1" target="b7OoH07M5vMIsxXB9R5--491">
          <mxGeometry width="50" height="50" relative="1" as="geometry">
            <mxPoint x="2770" y="1880" as="sourcePoint" />
            <mxPoint x="2780" y="1800" as="targetPoint" />
          </mxGeometry>
        </mxCell>
        <mxCell id="b7OoH07M5vMIsxXB9R5--519" value="v4" style="endArrow=none;html=1;rounded=0;exitX=0.5;exitY=0;exitDx=0;exitDy=0;entryX=0.378;entryY=1.021;entryDx=0;entryDy=0;entryPerimeter=0;" edge="1" parent="1" source="b7OoH07M5vMIsxXB9R5--489" target="b7OoH07M5vMIsxXB9R5--495">
          <mxGeometry width="50" height="50" relative="1" as="geometry">
            <mxPoint x="2730" y="1850" as="sourcePoint" />
            <mxPoint x="2780" y="1800" as="targetPoint" />
          </mxGeometry>
        </mxCell>
        <mxCell id="b7OoH07M5vMIsxXB9R5--521" value="1" style="text;html=1;align=center;verticalAlign=middle;whiteSpace=wrap;rounded=0;fontStyle=1" vertex="1" parent="1">
          <mxGeometry x="2521" y="1790" width="60" height="30" as="geometry" />
        </mxCell>
        <mxCell id="b7OoH07M5vMIsxXB9R5--523" value="2" style="text;html=1;align=center;verticalAlign=middle;whiteSpace=wrap;rounded=0;fontStyle=1" vertex="1" parent="1">
          <mxGeometry x="2545" y="1874" width="60" height="30" as="geometry" />
        </mxCell>
        <mxCell id="b7OoH07M5vMIsxXB9R5--528" value="2" style="text;html=1;align=center;verticalAlign=middle;whiteSpace=wrap;rounded=0;fontStyle=1" vertex="1" parent="1">
          <mxGeometry x="2638" y="1790" width="60" height="30" as="geometry" />
        </mxCell>
        <mxCell id="b7OoH07M5vMIsxXB9R5--530" value="3" style="text;html=1;align=center;verticalAlign=middle;whiteSpace=wrap;rounded=0;fontStyle=1" vertex="1" parent="1">
          <mxGeometry x="2730" y="1794" width="60" height="30" as="geometry" />
        </mxCell>
        <mxCell id="b7OoH07M5vMIsxXB9R5--531" value="2" style="text;html=1;align=center;verticalAlign=middle;whiteSpace=wrap;rounded=0;fontStyle=1" vertex="1" parent="1">
          <mxGeometry x="2698" y="1904" width="60" height="30" as="geometry" />
        </mxCell>
        <mxCell id="b7OoH07M5vMIsxXB9R5--532" value="3" style="text;html=1;align=center;verticalAlign=middle;whiteSpace=wrap;rounded=0;fontStyle=1" vertex="1" parent="1">
          <mxGeometry x="2777" y="1934" width="60" height="30" as="geometry" />
        </mxCell>
        <mxCell id="b7OoH07M5vMIsxXB9R5--533" value="4" style="text;html=1;align=center;verticalAlign=middle;whiteSpace=wrap;rounded=0;fontStyle=1" vertex="1" parent="1">
          <mxGeometry x="2750" y="1890" width="60" height="30" as="geometry" />
        </mxCell>
        <mxCell id="b7OoH07M5vMIsxXB9R5--534" value="5" style="text;html=1;align=center;verticalAlign=middle;whiteSpace=wrap;rounded=0;fontStyle=1" vertex="1" parent="1">
          <mxGeometry x="2827" y="1819" width="60" height="30" as="geometry" />
        </mxCell>
        <mxCell id="b7OoH07M5vMIsxXB9R5--536" value="3" style="text;html=1;align=center;verticalAlign=middle;whiteSpace=wrap;rounded=0;fontStyle=1" vertex="1" parent="1">
          <mxGeometry x="2966" y="1727" width="60" height="30" as="geometry" />
        </mxCell>
        <mxCell id="b7OoH07M5vMIsxXB9R5--537" value="2" style="text;html=1;align=center;verticalAlign=middle;whiteSpace=wrap;rounded=0;fontStyle=1" vertex="1" parent="1">
          <mxGeometry x="2852" y="1714" width="60" height="30" as="geometry" />
        </mxCell>
        <mxCell id="b7OoH07M5vMIsxXB9R5--539" value="1" style="text;html=1;align=center;verticalAlign=middle;whiteSpace=wrap;rounded=0;fontStyle=1" vertex="1" parent="1">
          <mxGeometry x="2964" y="1877" width="60" height="30" as="geometry" />
        </mxCell>
        <mxCell id="b7OoH07M5vMIsxXB9R5--576" value="x1" style="ellipse;whiteSpace=wrap;html=1;aspect=fixed;" vertex="1" parent="1">
          <mxGeometry x="2530" y="2190" width="40" height="40" as="geometry" />
        </mxCell>
        <mxCell id="b7OoH07M5vMIsxXB9R5--577" value="x7" style="ellipse;whiteSpace=wrap;html=1;aspect=fixed;" vertex="1" parent="1">
          <mxGeometry x="2770" y="2170" width="40" height="40" as="geometry" />
        </mxCell>
        <mxCell id="b7OoH07M5vMIsxXB9R5--578" value="x5" style="ellipse;whiteSpace=wrap;html=1;aspect=fixed;" vertex="1" parent="1">
          <mxGeometry x="2630" y="2250" width="40" height="40" as="geometry" />
        </mxCell>
        <mxCell id="b7OoH07M5vMIsxXB9R5--579" value="x6" style="ellipse;whiteSpace=wrap;html=1;aspect=fixed;" vertex="1" parent="1">
          <mxGeometry x="2730" y="2280" width="40" height="40" as="geometry" />
        </mxCell>
        <mxCell id="b7OoH07M5vMIsxXB9R5--580" value="x9" style="ellipse;whiteSpace=wrap;html=1;aspect=fixed;" vertex="1" parent="1">
          <mxGeometry x="2850" y="2270" width="40" height="40" as="geometry" />
        </mxCell>
        <mxCell id="b7OoH07M5vMIsxXB9R5--581" value="x2" style="ellipse;whiteSpace=wrap;html=1;aspect=fixed;" vertex="1" parent="1">
          <mxGeometry x="2620" y="2100" width="40" height="40" as="geometry" />
        </mxCell>
        <mxCell id="b7OoH07M5vMIsxXB9R5--582" value="x4" style="ellipse;whiteSpace=wrap;html=1;aspect=fixed;" vertex="1" parent="1">
          <mxGeometry x="2684" y="2150" width="40" height="40" as="geometry" />
        </mxCell>
        <mxCell id="b7OoH07M5vMIsxXB9R5--583" value="x3" style="ellipse;whiteSpace=wrap;html=1;aspect=fixed;" vertex="1" parent="1">
          <mxGeometry x="2784" y="2070" width="40" height="40" as="geometry" />
        </mxCell>
        <mxCell id="b7OoH07M5vMIsxXB9R5--584" value="x11" style="ellipse;whiteSpace=wrap;html=1;aspect=fixed;" vertex="1" parent="1">
          <mxGeometry x="3010" y="2250" width="40" height="40" as="geometry" />
        </mxCell>
        <mxCell id="b7OoH07M5vMIsxXB9R5--585" value="x8" style="ellipse;whiteSpace=wrap;html=1;aspect=fixed;" vertex="1" parent="1">
          <mxGeometry x="2890" y="2150" width="40" height="40" as="geometry" />
        </mxCell>
        <mxCell id="b7OoH07M5vMIsxXB9R5--586" value="x10" style="ellipse;whiteSpace=wrap;html=1;aspect=fixed;" vertex="1" parent="1">
          <mxGeometry x="2960" y="2040" width="40" height="40" as="geometry" />
        </mxCell>
        <mxCell id="b7OoH07M5vMIsxXB9R5--587" value="x12" style="ellipse;whiteSpace=wrap;html=1;aspect=fixed;" vertex="1" parent="1">
          <mxGeometry x="3050" y="2130" width="40" height="40" as="geometry" />
        </mxCell>
        <mxCell id="b7OoH07M5vMIsxXB9R5--610" value="&lt;h1 style=&quot;margin-top: 0px;&quot;&gt;Ребра&lt;/h1&gt;&lt;div&gt;v1=1&lt;/div&gt;&lt;div&gt;v14=1&lt;/div&gt;&lt;div&gt;v6=2&lt;/div&gt;&lt;div&gt;v18=2&lt;/div&gt;&lt;div&gt;v16=2&lt;/div&gt;&lt;div&gt;v13=2&lt;/div&gt;&lt;div&gt;v7=2&lt;/div&gt;&lt;div&gt;v19=3&lt;/div&gt;&lt;div&gt;v20=3&lt;/div&gt;&lt;div&gt;v2=3&lt;/div&gt;&lt;div&gt;v8=3&lt;/div&gt;&lt;div&gt;v4=3&lt;/div&gt;&lt;div&gt;v12=3&lt;/div&gt;&lt;div&gt;v11=4&lt;/div&gt;&lt;div&gt;v15=4&lt;/div&gt;&lt;div&gt;v5=5&lt;/div&gt;&lt;div&gt;v3=5&lt;/div&gt;&lt;div&gt;v9=7&lt;/div&gt;&lt;div&gt;v18=7&lt;/div&gt;&lt;div&gt;v21=15&lt;/div&gt;" style="text;html=1;whiteSpace=wrap;overflow=hidden;rounded=0;" vertex="1" parent="1">
          <mxGeometry x="2385" y="998.5" width="180" height="341" as="geometry" />
        </mxCell>
        <mxCell id="b7OoH07M5vMIsxXB9R5--612" value="x1" style="ellipse;whiteSpace=wrap;html=1;aspect=fixed;" vertex="1" parent="1">
          <mxGeometry x="920.5" y="1870" width="40" height="40" as="geometry" />
        </mxCell>
        <mxCell id="b7OoH07M5vMIsxXB9R5--613" value="x7" style="ellipse;whiteSpace=wrap;html=1;aspect=fixed;" vertex="1" parent="1">
          <mxGeometry x="1160.5" y="1850" width="40" height="40" as="geometry" />
        </mxCell>
        <mxCell id="b7OoH07M5vMIsxXB9R5--614" value="x5" style="ellipse;whiteSpace=wrap;html=1;aspect=fixed;" vertex="1" parent="1">
          <mxGeometry x="1020.5" y="1930" width="40" height="40" as="geometry" />
        </mxCell>
        <mxCell id="b7OoH07M5vMIsxXB9R5--615" value="x6" style="ellipse;whiteSpace=wrap;html=1;aspect=fixed;" vertex="1" parent="1">
          <mxGeometry x="1120.5" y="1960" width="40" height="40" as="geometry" />
        </mxCell>
        <mxCell id="b7OoH07M5vMIsxXB9R5--616" value="x9" style="ellipse;whiteSpace=wrap;html=1;aspect=fixed;" vertex="1" parent="1">
          <mxGeometry x="1240.5" y="1950" width="40" height="40" as="geometry" />
        </mxCell>
        <mxCell id="b7OoH07M5vMIsxXB9R5--617" value="x2" style="ellipse;whiteSpace=wrap;html=1;aspect=fixed;" vertex="1" parent="1">
          <mxGeometry x="1010.5" y="1780" width="40" height="40" as="geometry" />
        </mxCell>
        <mxCell id="b7OoH07M5vMIsxXB9R5--618" value="x4" style="ellipse;whiteSpace=wrap;html=1;aspect=fixed;" vertex="1" parent="1">
          <mxGeometry x="1074.5" y="1830" width="40" height="40" as="geometry" />
        </mxCell>
        <mxCell id="b7OoH07M5vMIsxXB9R5--619" value="x3" style="ellipse;whiteSpace=wrap;html=1;aspect=fixed;" vertex="1" parent="1">
          <mxGeometry x="1174.5" y="1750" width="40" height="40" as="geometry" />
        </mxCell>
        <mxCell id="b7OoH07M5vMIsxXB9R5--620" value="x11" style="ellipse;whiteSpace=wrap;html=1;aspect=fixed;" vertex="1" parent="1">
          <mxGeometry x="1400.5" y="1930" width="40" height="40" as="geometry" />
        </mxCell>
        <mxCell id="b7OoH07M5vMIsxXB9R5--621" value="x8" style="ellipse;whiteSpace=wrap;html=1;aspect=fixed;" vertex="1" parent="1">
          <mxGeometry x="1280.5" y="1830" width="40" height="40" as="geometry" />
        </mxCell>
        <mxCell id="b7OoH07M5vMIsxXB9R5--622" value="x10" style="ellipse;whiteSpace=wrap;html=1;aspect=fixed;" vertex="1" parent="1">
          <mxGeometry x="1350.5" y="1720" width="40" height="40" as="geometry" />
        </mxCell>
        <mxCell id="b7OoH07M5vMIsxXB9R5--623" value="x12" style="ellipse;whiteSpace=wrap;html=1;aspect=fixed;" vertex="1" parent="1">
          <mxGeometry x="1440.5" y="1810" width="40" height="40" as="geometry" />
        </mxCell>
        <mxCell id="b7OoH07M5vMIsxXB9R5--624" value="v1" style="endArrow=none;html=1;rounded=0;exitX=0.5;exitY=0;exitDx=0;exitDy=0;entryX=0;entryY=0.5;entryDx=0;entryDy=0;" edge="1" parent="1" source="b7OoH07M5vMIsxXB9R5--612" target="b7OoH07M5vMIsxXB9R5--617">
          <mxGeometry width="50" height="50" relative="1" as="geometry">
            <mxPoint x="1170.5" y="1860" as="sourcePoint" />
            <mxPoint x="1220.5" y="1810" as="targetPoint" />
          </mxGeometry>
        </mxCell>
        <mxCell id="b7OoH07M5vMIsxXB9R5--626" value="v18" style="endArrow=none;html=1;rounded=0;exitX=0.952;exitY=0.745;exitDx=0;exitDy=0;exitPerimeter=0;entryX=0;entryY=0;entryDx=0;entryDy=0;" edge="1" parent="1" source="b7OoH07M5vMIsxXB9R5--612" target="b7OoH07M5vMIsxXB9R5--614">
          <mxGeometry width="50" height="50" relative="1" as="geometry">
            <mxPoint x="1170.5" y="1860" as="sourcePoint" />
            <mxPoint x="1220.5" y="1810" as="targetPoint" />
          </mxGeometry>
        </mxCell>
        <mxCell id="b7OoH07M5vMIsxXB9R5--628" value="v2" style="endArrow=none;html=1;rounded=0;exitX=0.5;exitY=1;exitDx=0;exitDy=0;entryX=0.5;entryY=0;entryDx=0;entryDy=0;" edge="1" parent="1" source="b7OoH07M5vMIsxXB9R5--617" target="b7OoH07M5vMIsxXB9R5--614">
          <mxGeometry width="50" height="50" relative="1" as="geometry">
            <mxPoint x="1170.5" y="1860" as="sourcePoint" />
            <mxPoint x="1220.5" y="1810" as="targetPoint" />
          </mxGeometry>
        </mxCell>
        <mxCell id="b7OoH07M5vMIsxXB9R5--629" value="v6" style="endArrow=none;html=1;rounded=0;exitX=1;exitY=1;exitDx=0;exitDy=0;entryX=0;entryY=0;entryDx=0;entryDy=0;" edge="1" parent="1" source="b7OoH07M5vMIsxXB9R5--617" target="b7OoH07M5vMIsxXB9R5--618">
          <mxGeometry width="50" height="50" relative="1" as="geometry">
            <mxPoint x="1170.5" y="1860" as="sourcePoint" />
            <mxPoint x="1220.5" y="1810" as="targetPoint" />
          </mxGeometry>
        </mxCell>
        <mxCell id="b7OoH07M5vMIsxXB9R5--630" value="v3" style="endArrow=none;html=1;rounded=0;exitX=1;exitY=0.25;exitDx=0;exitDy=0;exitPerimeter=0;entryX=0;entryY=1;entryDx=0;entryDy=0;" edge="1" parent="1" source="b7OoH07M5vMIsxXB9R5--614" target="b7OoH07M5vMIsxXB9R5--613">
          <mxGeometry x="-0.4787" y="-5" width="50" height="50" relative="1" as="geometry">
            <mxPoint x="1170.5" y="1860" as="sourcePoint" />
            <mxPoint x="1220.5" y="1810" as="targetPoint" />
            <mxPoint as="offset" />
          </mxGeometry>
        </mxCell>
        <mxCell id="b7OoH07M5vMIsxXB9R5--631" value="v7" style="endArrow=none;html=1;rounded=0;exitX=1;exitY=1;exitDx=0;exitDy=0;entryX=0.5;entryY=0;entryDx=0;entryDy=0;" edge="1" parent="1" source="b7OoH07M5vMIsxXB9R5--618" target="b7OoH07M5vMIsxXB9R5--615">
          <mxGeometry x="0.5618" y="-3" width="50" height="50" relative="1" as="geometry">
            <mxPoint x="1170.5" y="1860" as="sourcePoint" />
            <mxPoint x="1220.5" y="1810" as="targetPoint" />
            <mxPoint as="offset" />
          </mxGeometry>
        </mxCell>
        <mxCell id="b7OoH07M5vMIsxXB9R5--632" value="v8" style="endArrow=none;html=1;rounded=0;exitX=1;exitY=0.5;exitDx=0;exitDy=0;entryX=0;entryY=0.5;entryDx=0;entryDy=0;" edge="1" parent="1" source="b7OoH07M5vMIsxXB9R5--615" target="b7OoH07M5vMIsxXB9R5--616">
          <mxGeometry width="50" height="50" relative="1" as="geometry">
            <mxPoint x="1170.5" y="1860" as="sourcePoint" />
            <mxPoint x="1220.5" y="1810" as="targetPoint" />
          </mxGeometry>
        </mxCell>
        <mxCell id="b7OoH07M5vMIsxXB9R5--633" value="v9" style="endArrow=none;html=1;rounded=0;exitX=0.5;exitY=0;exitDx=0;exitDy=0;entryX=0.5;entryY=1;entryDx=0;entryDy=0;" edge="1" parent="1" source="b7OoH07M5vMIsxXB9R5--616" target="b7OoH07M5vMIsxXB9R5--621">
          <mxGeometry width="50" height="50" relative="1" as="geometry">
            <mxPoint x="1170.5" y="1860" as="sourcePoint" />
            <mxPoint x="1220.5" y="1810" as="targetPoint" />
          </mxGeometry>
        </mxCell>
        <mxCell id="b7OoH07M5vMIsxXB9R5--634" value="v11" style="endArrow=none;html=1;rounded=0;exitX=1;exitY=0;exitDx=0;exitDy=0;entryX=0;entryY=1;entryDx=0;entryDy=0;" edge="1" parent="1" source="b7OoH07M5vMIsxXB9R5--613" target="b7OoH07M5vMIsxXB9R5--622">
          <mxGeometry width="50" height="50" relative="1" as="geometry">
            <mxPoint x="1170.5" y="1860" as="sourcePoint" />
            <mxPoint x="1220.5" y="1810" as="targetPoint" />
          </mxGeometry>
        </mxCell>
        <mxCell id="b7OoH07M5vMIsxXB9R5--635" value="v5" style="endArrow=none;html=1;rounded=0;exitX=0;exitY=0.5;exitDx=0;exitDy=0;entryX=1;entryY=0.5;entryDx=0;entryDy=0;" edge="1" parent="1" source="b7OoH07M5vMIsxXB9R5--619" target="b7OoH07M5vMIsxXB9R5--617">
          <mxGeometry width="50" height="50" relative="1" as="geometry">
            <mxPoint x="1170.5" y="1860" as="sourcePoint" />
            <mxPoint x="1220.5" y="1810" as="targetPoint" />
          </mxGeometry>
        </mxCell>
        <mxCell id="b7OoH07M5vMIsxXB9R5--636" value="v16" style="endArrow=none;html=1;rounded=0;exitX=1;exitY=0.5;exitDx=0;exitDy=0;entryX=0;entryY=0.5;entryDx=0;entryDy=0;" edge="1" parent="1" source="b7OoH07M5vMIsxXB9R5--619" target="b7OoH07M5vMIsxXB9R5--622">
          <mxGeometry width="50" height="50" relative="1" as="geometry">
            <mxPoint x="1170.5" y="1860" as="sourcePoint" />
            <mxPoint x="1220.5" y="1810" as="targetPoint" />
          </mxGeometry>
        </mxCell>
        <mxCell id="b7OoH07M5vMIsxXB9R5--637" value="v12" style="endArrow=none;html=1;rounded=0;exitX=0.5;exitY=0;exitDx=0;exitDy=0;" edge="1" parent="1" source="b7OoH07M5vMIsxXB9R5--623" target="b7OoH07M5vMIsxXB9R5--622">
          <mxGeometry width="50" height="50" relative="1" as="geometry">
            <mxPoint x="1170.5" y="1860" as="sourcePoint" />
            <mxPoint x="1220.5" y="1810" as="targetPoint" />
          </mxGeometry>
        </mxCell>
        <mxCell id="b7OoH07M5vMIsxXB9R5--639" value="v14" style="endArrow=none;html=1;rounded=0;exitX=0.5;exitY=0;exitDx=0;exitDy=0;entryX=0;entryY=1;entryDx=0;entryDy=0;curved=1;" edge="1" parent="1" source="b7OoH07M5vMIsxXB9R5--620" target="b7OoH07M5vMIsxXB9R5--623">
          <mxGeometry width="50" height="50" relative="1" as="geometry">
            <mxPoint x="1170.5" y="1860" as="sourcePoint" />
            <mxPoint x="1220.5" y="1810" as="targetPoint" />
            <Array as="points">
              <mxPoint x="1410.5" y="1880" />
            </Array>
          </mxGeometry>
        </mxCell>
        <mxCell id="b7OoH07M5vMIsxXB9R5--640" value="v17" style="endArrow=none;html=1;rounded=0;exitX=1;exitY=0.5;exitDx=0;exitDy=0;entryX=0;entryY=0.5;entryDx=0;entryDy=0;" edge="1" parent="1" source="b7OoH07M5vMIsxXB9R5--621" target="b7OoH07M5vMIsxXB9R5--623">
          <mxGeometry width="50" height="50" relative="1" as="geometry">
            <mxPoint x="1140.5" y="1860" as="sourcePoint" />
            <mxPoint x="1190.5" y="1810" as="targetPoint" />
          </mxGeometry>
        </mxCell>
        <mxCell id="b7OoH07M5vMIsxXB9R5--641" value="v10" style="endArrow=none;html=1;rounded=0;exitX=1;exitY=0.5;exitDx=0;exitDy=0;entryX=0;entryY=0.5;entryDx=0;entryDy=0;" edge="1" parent="1" source="b7OoH07M5vMIsxXB9R5--613" target="b7OoH07M5vMIsxXB9R5--621">
          <mxGeometry width="50" height="50" relative="1" as="geometry">
            <mxPoint x="1140.5" y="1860" as="sourcePoint" />
            <mxPoint x="1190.5" y="1810" as="targetPoint" />
          </mxGeometry>
        </mxCell>
        <mxCell id="b7OoH07M5vMIsxXB9R5--642" value="v15" style="endArrow=none;html=1;rounded=0;entryX=1;entryY=0;entryDx=0;entryDy=0;" edge="1" parent="1" target="b7OoH07M5vMIsxXB9R5--615">
          <mxGeometry width="50" height="50" relative="1" as="geometry">
            <mxPoint x="1180.5" y="1890" as="sourcePoint" />
            <mxPoint x="1190.5" y="1810" as="targetPoint" />
          </mxGeometry>
        </mxCell>
        <mxCell id="b7OoH07M5vMIsxXB9R5--643" value="v4" style="endArrow=none;html=1;rounded=0;exitX=0.5;exitY=0;exitDx=0;exitDy=0;entryX=0.378;entryY=1.021;entryDx=0;entryDy=0;entryPerimeter=0;" edge="1" parent="1" source="b7OoH07M5vMIsxXB9R5--613" target="b7OoH07M5vMIsxXB9R5--619">
          <mxGeometry width="50" height="50" relative="1" as="geometry">
            <mxPoint x="1140.5" y="1860" as="sourcePoint" />
            <mxPoint x="1190.5" y="1810" as="targetPoint" />
          </mxGeometry>
        </mxCell>
        <mxCell id="b7OoH07M5vMIsxXB9R5--644" value="v21" style="endArrow=none;html=1;rounded=0;exitX=0.5;exitY=1;exitDx=0;exitDy=0;entryX=0;entryY=0.5;entryDx=0;entryDy=0;edgeStyle=orthogonalEdgeStyle;" edge="1" parent="1" source="b7OoH07M5vMIsxXB9R5--620" target="b7OoH07M5vMIsxXB9R5--612">
          <mxGeometry width="50" height="50" relative="1" as="geometry">
            <mxPoint x="1137.5" y="1779" as="sourcePoint" />
            <mxPoint x="1187.5" y="1729" as="targetPoint" />
            <Array as="points">
              <mxPoint x="1420.5" y="2008" />
              <mxPoint x="910.5" y="2008" />
              <mxPoint x="910.5" y="1890" />
            </Array>
          </mxGeometry>
        </mxCell>
        <mxCell id="b7OoH07M5vMIsxXB9R5--645" value="1" style="text;html=1;align=center;verticalAlign=middle;whiteSpace=wrap;rounded=0;fontStyle=1" vertex="1" parent="1">
          <mxGeometry x="931.5" y="1800" width="60" height="30" as="geometry" />
        </mxCell>
        <mxCell id="b7OoH07M5vMIsxXB9R5--647" value="2" style="text;html=1;align=center;verticalAlign=middle;whiteSpace=wrap;rounded=0;fontStyle=1" vertex="1" parent="1">
          <mxGeometry x="955.5" y="1884" width="60" height="30" as="geometry" />
        </mxCell>
        <mxCell id="b7OoH07M5vMIsxXB9R5--649" value="15" style="text;html=1;align=center;verticalAlign=middle;whiteSpace=wrap;rounded=0;fontStyle=1" vertex="1" parent="1">
          <mxGeometry x="1054.5" y="2007" width="60" height="30" as="geometry" />
        </mxCell>
        <mxCell id="b7OoH07M5vMIsxXB9R5--650" value="5" style="text;html=1;align=center;verticalAlign=middle;whiteSpace=wrap;rounded=0;fontStyle=1" vertex="1" parent="1">
          <mxGeometry x="1060.5" y="1896" width="60" height="30" as="geometry" />
        </mxCell>
        <mxCell id="b7OoH07M5vMIsxXB9R5--651" value="3" style="text;html=1;align=center;verticalAlign=middle;whiteSpace=wrap;rounded=0;fontStyle=1" vertex="1" parent="1">
          <mxGeometry x="991.5" y="1877" width="60" height="30" as="geometry" />
        </mxCell>
        <mxCell id="b7OoH07M5vMIsxXB9R5--652" value="2" style="text;html=1;align=center;verticalAlign=middle;whiteSpace=wrap;rounded=0;fontStyle=1" vertex="1" parent="1">
          <mxGeometry x="1048.5" y="1800" width="60" height="30" as="geometry" />
        </mxCell>
        <mxCell id="b7OoH07M5vMIsxXB9R5--653" value="5" style="text;html=1;align=center;verticalAlign=middle;whiteSpace=wrap;rounded=0;fontStyle=1" vertex="1" parent="1">
          <mxGeometry x="1103.5" y="1755" width="60" height="30" as="geometry" />
        </mxCell>
        <mxCell id="b7OoH07M5vMIsxXB9R5--654" value="3" style="text;html=1;align=center;verticalAlign=middle;whiteSpace=wrap;rounded=0;fontStyle=1" vertex="1" parent="1">
          <mxGeometry x="1140.5" y="1804" width="60" height="30" as="geometry" />
        </mxCell>
        <mxCell id="b7OoH07M5vMIsxXB9R5--655" value="2" style="text;html=1;align=center;verticalAlign=middle;whiteSpace=wrap;rounded=0;fontStyle=1" vertex="1" parent="1">
          <mxGeometry x="1108.5" y="1914" width="60" height="30" as="geometry" />
        </mxCell>
        <mxCell id="b7OoH07M5vMIsxXB9R5--656" value="3" style="text;html=1;align=center;verticalAlign=middle;whiteSpace=wrap;rounded=0;fontStyle=1" vertex="1" parent="1">
          <mxGeometry x="1187.5" y="1944" width="60" height="30" as="geometry" />
        </mxCell>
        <mxCell id="b7OoH07M5vMIsxXB9R5--657" value="4" style="text;html=1;align=center;verticalAlign=middle;whiteSpace=wrap;rounded=0;fontStyle=1" vertex="1" parent="1">
          <mxGeometry x="1160.5" y="1900" width="60" height="30" as="geometry" />
        </mxCell>
        <mxCell id="b7OoH07M5vMIsxXB9R5--658" value="5" style="text;html=1;align=center;verticalAlign=middle;whiteSpace=wrap;rounded=0;fontStyle=1" vertex="1" parent="1">
          <mxGeometry x="1237.5" y="1829" width="60" height="30" as="geometry" />
        </mxCell>
        <mxCell id="b7OoH07M5vMIsxXB9R5--659" value="7" style="text;html=1;align=center;verticalAlign=middle;whiteSpace=wrap;rounded=0;fontStyle=1" vertex="1" parent="1">
          <mxGeometry x="1378.5" y="1809" width="60" height="30" as="geometry" />
        </mxCell>
        <mxCell id="b7OoH07M5vMIsxXB9R5--660" value="3" style="text;html=1;align=center;verticalAlign=middle;whiteSpace=wrap;rounded=0;fontStyle=1" vertex="1" parent="1">
          <mxGeometry x="1376.5" y="1737" width="60" height="30" as="geometry" />
        </mxCell>
        <mxCell id="b7OoH07M5vMIsxXB9R5--661" value="2" style="text;html=1;align=center;verticalAlign=middle;whiteSpace=wrap;rounded=0;fontStyle=1" vertex="1" parent="1">
          <mxGeometry x="1262.5" y="1724" width="60" height="30" as="geometry" />
        </mxCell>
        <mxCell id="b7OoH07M5vMIsxXB9R5--662" value="4" style="text;html=1;align=center;verticalAlign=middle;whiteSpace=wrap;rounded=0;fontStyle=1" vertex="1" parent="1">
          <mxGeometry x="1270.5" y="1763" width="60" height="30" as="geometry" />
        </mxCell>
        <mxCell id="b7OoH07M5vMIsxXB9R5--663" value="1" style="text;html=1;align=center;verticalAlign=middle;whiteSpace=wrap;rounded=0;fontStyle=1" vertex="1" parent="1">
          <mxGeometry x="1374.5" y="1887" width="60" height="30" as="geometry" />
        </mxCell>
        <mxCell id="b7OoH07M5vMIsxXB9R5--712" value="x1" style="ellipse;whiteSpace=wrap;html=1;aspect=fixed;" vertex="1" parent="1">
          <mxGeometry x="911" y="2270" width="40" height="40" as="geometry" />
        </mxCell>
        <mxCell id="b7OoH07M5vMIsxXB9R5--713" value="x7" style="ellipse;whiteSpace=wrap;html=1;aspect=fixed;" vertex="1" parent="1">
          <mxGeometry x="1151" y="2250" width="40" height="40" as="geometry" />
        </mxCell>
        <mxCell id="b7OoH07M5vMIsxXB9R5--714" value="x5" style="ellipse;whiteSpace=wrap;html=1;aspect=fixed;" vertex="1" parent="1">
          <mxGeometry x="1011" y="2330" width="40" height="40" as="geometry" />
        </mxCell>
        <mxCell id="b7OoH07M5vMIsxXB9R5--715" value="x6" style="ellipse;whiteSpace=wrap;html=1;aspect=fixed;" vertex="1" parent="1">
          <mxGeometry x="1111" y="2360" width="40" height="40" as="geometry" />
        </mxCell>
        <mxCell id="b7OoH07M5vMIsxXB9R5--716" value="x9" style="ellipse;whiteSpace=wrap;html=1;aspect=fixed;" vertex="1" parent="1">
          <mxGeometry x="1231" y="2350" width="40" height="40" as="geometry" />
        </mxCell>
        <mxCell id="b7OoH07M5vMIsxXB9R5--717" value="x2" style="ellipse;whiteSpace=wrap;html=1;aspect=fixed;" vertex="1" parent="1">
          <mxGeometry x="1001" y="2180" width="40" height="40" as="geometry" />
        </mxCell>
        <mxCell id="b7OoH07M5vMIsxXB9R5--718" value="x4" style="ellipse;whiteSpace=wrap;html=1;aspect=fixed;" vertex="1" parent="1">
          <mxGeometry x="1065" y="2230" width="40" height="40" as="geometry" />
        </mxCell>
        <mxCell id="b7OoH07M5vMIsxXB9R5--719" value="x3" style="ellipse;whiteSpace=wrap;html=1;aspect=fixed;" vertex="1" parent="1">
          <mxGeometry x="1165" y="2150" width="40" height="40" as="geometry" />
        </mxCell>
        <mxCell id="b7OoH07M5vMIsxXB9R5--720" value="x11" style="ellipse;whiteSpace=wrap;html=1;aspect=fixed;" vertex="1" parent="1">
          <mxGeometry x="1391" y="2330" width="40" height="40" as="geometry" />
        </mxCell>
        <mxCell id="b7OoH07M5vMIsxXB9R5--721" value="x8" style="ellipse;whiteSpace=wrap;html=1;aspect=fixed;" vertex="1" parent="1">
          <mxGeometry x="1271" y="2230" width="40" height="40" as="geometry" />
        </mxCell>
        <mxCell id="b7OoH07M5vMIsxXB9R5--722" value="x10" style="ellipse;whiteSpace=wrap;html=1;aspect=fixed;" vertex="1" parent="1">
          <mxGeometry x="1341" y="2120" width="40" height="40" as="geometry" />
        </mxCell>
        <mxCell id="b7OoH07M5vMIsxXB9R5--723" value="x12" style="ellipse;whiteSpace=wrap;html=1;aspect=fixed;" vertex="1" parent="1">
          <mxGeometry x="1431" y="2210" width="40" height="40" as="geometry" />
        </mxCell>
        <mxCell id="b7OoH07M5vMIsxXB9R5--724" value="v1" style="endArrow=none;html=1;rounded=0;exitX=0.5;exitY=0;exitDx=0;exitDy=0;entryX=0;entryY=0.5;entryDx=0;entryDy=0;" edge="1" parent="1" source="b7OoH07M5vMIsxXB9R5--712" target="b7OoH07M5vMIsxXB9R5--717">
          <mxGeometry width="50" height="50" relative="1" as="geometry">
            <mxPoint x="1161" y="2260" as="sourcePoint" />
            <mxPoint x="1211" y="2210" as="targetPoint" />
          </mxGeometry>
        </mxCell>
        <mxCell id="b7OoH07M5vMIsxXB9R5--725" value="v18" style="endArrow=none;html=1;rounded=0;exitX=0.952;exitY=0.745;exitDx=0;exitDy=0;exitPerimeter=0;entryX=0;entryY=0;entryDx=0;entryDy=0;" edge="1" parent="1" source="b7OoH07M5vMIsxXB9R5--712" target="b7OoH07M5vMIsxXB9R5--714">
          <mxGeometry width="50" height="50" relative="1" as="geometry">
            <mxPoint x="1161" y="2260" as="sourcePoint" />
            <mxPoint x="1211" y="2210" as="targetPoint" />
          </mxGeometry>
        </mxCell>
        <mxCell id="b7OoH07M5vMIsxXB9R5--726" value="v2" style="endArrow=none;html=1;rounded=0;exitX=0.5;exitY=1;exitDx=0;exitDy=0;entryX=0.5;entryY=0;entryDx=0;entryDy=0;" edge="1" parent="1" source="b7OoH07M5vMIsxXB9R5--717" target="b7OoH07M5vMIsxXB9R5--714">
          <mxGeometry width="50" height="50" relative="1" as="geometry">
            <mxPoint x="1161" y="2260" as="sourcePoint" />
            <mxPoint x="1211" y="2210" as="targetPoint" />
          </mxGeometry>
        </mxCell>
        <mxCell id="b7OoH07M5vMIsxXB9R5--727" value="v6" style="endArrow=none;html=1;rounded=0;exitX=1;exitY=1;exitDx=0;exitDy=0;entryX=0;entryY=0;entryDx=0;entryDy=0;" edge="1" parent="1" source="b7OoH07M5vMIsxXB9R5--717" target="b7OoH07M5vMIsxXB9R5--718">
          <mxGeometry width="50" height="50" relative="1" as="geometry">
            <mxPoint x="1161" y="2260" as="sourcePoint" />
            <mxPoint x="1211" y="2210" as="targetPoint" />
          </mxGeometry>
        </mxCell>
        <mxCell id="b7OoH07M5vMIsxXB9R5--728" value="v3" style="endArrow=none;html=1;rounded=0;exitX=1;exitY=0.25;exitDx=0;exitDy=0;exitPerimeter=0;entryX=0;entryY=1;entryDx=0;entryDy=0;" edge="1" parent="1" source="b7OoH07M5vMIsxXB9R5--714" target="b7OoH07M5vMIsxXB9R5--713">
          <mxGeometry x="-0.4787" y="-5" width="50" height="50" relative="1" as="geometry">
            <mxPoint x="1161" y="2260" as="sourcePoint" />
            <mxPoint x="1211" y="2210" as="targetPoint" />
            <mxPoint as="offset" />
          </mxGeometry>
        </mxCell>
        <mxCell id="b7OoH07M5vMIsxXB9R5--729" value="v7" style="endArrow=none;html=1;rounded=0;exitX=1;exitY=1;exitDx=0;exitDy=0;entryX=0.5;entryY=0;entryDx=0;entryDy=0;" edge="1" parent="1" source="b7OoH07M5vMIsxXB9R5--718" target="b7OoH07M5vMIsxXB9R5--715">
          <mxGeometry x="0.5618" y="-3" width="50" height="50" relative="1" as="geometry">
            <mxPoint x="1161" y="2260" as="sourcePoint" />
            <mxPoint x="1211" y="2210" as="targetPoint" />
            <mxPoint as="offset" />
          </mxGeometry>
        </mxCell>
        <mxCell id="b7OoH07M5vMIsxXB9R5--730" value="v8" style="endArrow=none;html=1;rounded=0;exitX=1;exitY=0.5;exitDx=0;exitDy=0;entryX=0;entryY=0.5;entryDx=0;entryDy=0;" edge="1" parent="1" source="b7OoH07M5vMIsxXB9R5--715" target="b7OoH07M5vMIsxXB9R5--716">
          <mxGeometry width="50" height="50" relative="1" as="geometry">
            <mxPoint x="1161" y="2260" as="sourcePoint" />
            <mxPoint x="1211" y="2210" as="targetPoint" />
          </mxGeometry>
        </mxCell>
        <mxCell id="b7OoH07M5vMIsxXB9R5--731" value="v9" style="endArrow=none;html=1;rounded=0;exitX=0.5;exitY=0;exitDx=0;exitDy=0;entryX=0.5;entryY=1;entryDx=0;entryDy=0;" edge="1" parent="1" source="b7OoH07M5vMIsxXB9R5--716" target="b7OoH07M5vMIsxXB9R5--721">
          <mxGeometry width="50" height="50" relative="1" as="geometry">
            <mxPoint x="1161" y="2260" as="sourcePoint" />
            <mxPoint x="1211" y="2210" as="targetPoint" />
          </mxGeometry>
        </mxCell>
        <mxCell id="b7OoH07M5vMIsxXB9R5--732" value="v11" style="endArrow=none;html=1;rounded=0;exitX=1;exitY=0;exitDx=0;exitDy=0;entryX=0;entryY=1;entryDx=0;entryDy=0;" edge="1" parent="1" source="b7OoH07M5vMIsxXB9R5--713" target="b7OoH07M5vMIsxXB9R5--722">
          <mxGeometry width="50" height="50" relative="1" as="geometry">
            <mxPoint x="1161" y="2260" as="sourcePoint" />
            <mxPoint x="1211" y="2210" as="targetPoint" />
          </mxGeometry>
        </mxCell>
        <mxCell id="b7OoH07M5vMIsxXB9R5--733" value="v5" style="endArrow=none;html=1;rounded=0;exitX=0;exitY=0.5;exitDx=0;exitDy=0;entryX=1;entryY=0.5;entryDx=0;entryDy=0;" edge="1" parent="1" source="b7OoH07M5vMIsxXB9R5--719" target="b7OoH07M5vMIsxXB9R5--717">
          <mxGeometry width="50" height="50" relative="1" as="geometry">
            <mxPoint x="1161" y="2260" as="sourcePoint" />
            <mxPoint x="1211" y="2210" as="targetPoint" />
          </mxGeometry>
        </mxCell>
        <mxCell id="b7OoH07M5vMIsxXB9R5--734" value="v16" style="endArrow=none;html=1;rounded=0;exitX=1;exitY=0.5;exitDx=0;exitDy=0;entryX=0;entryY=0.5;entryDx=0;entryDy=0;" edge="1" parent="1" source="b7OoH07M5vMIsxXB9R5--719" target="b7OoH07M5vMIsxXB9R5--722">
          <mxGeometry width="50" height="50" relative="1" as="geometry">
            <mxPoint x="1161" y="2260" as="sourcePoint" />
            <mxPoint x="1211" y="2210" as="targetPoint" />
          </mxGeometry>
        </mxCell>
        <mxCell id="b7OoH07M5vMIsxXB9R5--735" value="v12" style="endArrow=none;html=1;rounded=0;exitX=0.5;exitY=0;exitDx=0;exitDy=0;" edge="1" parent="1" source="b7OoH07M5vMIsxXB9R5--723" target="b7OoH07M5vMIsxXB9R5--722">
          <mxGeometry width="50" height="50" relative="1" as="geometry">
            <mxPoint x="1161" y="2260" as="sourcePoint" />
            <mxPoint x="1211" y="2210" as="targetPoint" />
          </mxGeometry>
        </mxCell>
        <mxCell id="b7OoH07M5vMIsxXB9R5--736" value="v14" style="endArrow=none;html=1;rounded=0;exitX=0.5;exitY=0;exitDx=0;exitDy=0;entryX=0;entryY=1;entryDx=0;entryDy=0;curved=1;" edge="1" parent="1" source="b7OoH07M5vMIsxXB9R5--720" target="b7OoH07M5vMIsxXB9R5--723">
          <mxGeometry width="50" height="50" relative="1" as="geometry">
            <mxPoint x="1161" y="2260" as="sourcePoint" />
            <mxPoint x="1211" y="2210" as="targetPoint" />
            <Array as="points">
              <mxPoint x="1401" y="2280" />
            </Array>
          </mxGeometry>
        </mxCell>
        <mxCell id="b7OoH07M5vMIsxXB9R5--737" value="v17" style="endArrow=none;html=1;rounded=0;exitX=1;exitY=0.5;exitDx=0;exitDy=0;entryX=0;entryY=0.5;entryDx=0;entryDy=0;" edge="1" parent="1" source="b7OoH07M5vMIsxXB9R5--721" target="b7OoH07M5vMIsxXB9R5--723">
          <mxGeometry width="50" height="50" relative="1" as="geometry">
            <mxPoint x="1131" y="2260" as="sourcePoint" />
            <mxPoint x="1181" y="2210" as="targetPoint" />
          </mxGeometry>
        </mxCell>
        <mxCell id="b7OoH07M5vMIsxXB9R5--738" value="v10" style="endArrow=none;html=1;rounded=0;exitX=1;exitY=0.5;exitDx=0;exitDy=0;entryX=0;entryY=0.5;entryDx=0;entryDy=0;" edge="1" parent="1" source="b7OoH07M5vMIsxXB9R5--713" target="b7OoH07M5vMIsxXB9R5--721">
          <mxGeometry width="50" height="50" relative="1" as="geometry">
            <mxPoint x="1131" y="2260" as="sourcePoint" />
            <mxPoint x="1181" y="2210" as="targetPoint" />
          </mxGeometry>
        </mxCell>
        <mxCell id="b7OoH07M5vMIsxXB9R5--739" value="v15" style="endArrow=none;html=1;rounded=0;entryX=1;entryY=0;entryDx=0;entryDy=0;" edge="1" parent="1" target="b7OoH07M5vMIsxXB9R5--715">
          <mxGeometry width="50" height="50" relative="1" as="geometry">
            <mxPoint x="1171" y="2290" as="sourcePoint" />
            <mxPoint x="1181" y="2210" as="targetPoint" />
          </mxGeometry>
        </mxCell>
        <mxCell id="b7OoH07M5vMIsxXB9R5--740" value="v4" style="endArrow=none;html=1;rounded=0;exitX=0.5;exitY=0;exitDx=0;exitDy=0;entryX=0.378;entryY=1.021;entryDx=0;entryDy=0;entryPerimeter=0;" edge="1" parent="1" source="b7OoH07M5vMIsxXB9R5--713" target="b7OoH07M5vMIsxXB9R5--719">
          <mxGeometry width="50" height="50" relative="1" as="geometry">
            <mxPoint x="1131" y="2260" as="sourcePoint" />
            <mxPoint x="1181" y="2210" as="targetPoint" />
          </mxGeometry>
        </mxCell>
        <mxCell id="b7OoH07M5vMIsxXB9R5--741" value="v21" style="endArrow=none;html=1;rounded=0;exitX=0.5;exitY=1;exitDx=0;exitDy=0;entryX=0;entryY=0.5;entryDx=0;entryDy=0;edgeStyle=orthogonalEdgeStyle;" edge="1" parent="1" source="b7OoH07M5vMIsxXB9R5--720" target="b7OoH07M5vMIsxXB9R5--712">
          <mxGeometry width="50" height="50" relative="1" as="geometry">
            <mxPoint x="1128" y="2179" as="sourcePoint" />
            <mxPoint x="1178" y="2129" as="targetPoint" />
            <Array as="points">
              <mxPoint x="1411" y="2408" />
              <mxPoint x="901" y="2408" />
              <mxPoint x="901" y="2290" />
            </Array>
          </mxGeometry>
        </mxCell>
        <mxCell id="b7OoH07M5vMIsxXB9R5--742" value="1" style="text;html=1;align=center;verticalAlign=middle;whiteSpace=wrap;rounded=0;fontStyle=1" vertex="1" parent="1">
          <mxGeometry x="922" y="2200" width="60" height="30" as="geometry" />
        </mxCell>
        <mxCell id="b7OoH07M5vMIsxXB9R5--743" value="2" style="text;html=1;align=center;verticalAlign=middle;whiteSpace=wrap;rounded=0;fontStyle=1" vertex="1" parent="1">
          <mxGeometry x="946" y="2284" width="60" height="30" as="geometry" />
        </mxCell>
        <mxCell id="b7OoH07M5vMIsxXB9R5--744" value="15" style="text;html=1;align=center;verticalAlign=middle;whiteSpace=wrap;rounded=0;fontStyle=1" vertex="1" parent="1">
          <mxGeometry x="1045" y="2407" width="60" height="30" as="geometry" />
        </mxCell>
        <mxCell id="b7OoH07M5vMIsxXB9R5--745" value="5" style="text;html=1;align=center;verticalAlign=middle;whiteSpace=wrap;rounded=0;fontStyle=1" vertex="1" parent="1">
          <mxGeometry x="1051" y="2296" width="60" height="30" as="geometry" />
        </mxCell>
        <mxCell id="b7OoH07M5vMIsxXB9R5--746" value="3" style="text;html=1;align=center;verticalAlign=middle;whiteSpace=wrap;rounded=0;fontStyle=1" vertex="1" parent="1">
          <mxGeometry x="982" y="2277" width="60" height="30" as="geometry" />
        </mxCell>
        <mxCell id="b7OoH07M5vMIsxXB9R5--747" value="2" style="text;html=1;align=center;verticalAlign=middle;whiteSpace=wrap;rounded=0;fontStyle=1" vertex="1" parent="1">
          <mxGeometry x="1039" y="2200" width="60" height="30" as="geometry" />
        </mxCell>
        <mxCell id="b7OoH07M5vMIsxXB9R5--748" value="5" style="text;html=1;align=center;verticalAlign=middle;whiteSpace=wrap;rounded=0;fontStyle=1" vertex="1" parent="1">
          <mxGeometry x="1094" y="2155" width="60" height="30" as="geometry" />
        </mxCell>
        <mxCell id="b7OoH07M5vMIsxXB9R5--749" value="3" style="text;html=1;align=center;verticalAlign=middle;whiteSpace=wrap;rounded=0;fontStyle=1" vertex="1" parent="1">
          <mxGeometry x="1131" y="2204" width="60" height="30" as="geometry" />
        </mxCell>
        <mxCell id="b7OoH07M5vMIsxXB9R5--750" value="2" style="text;html=1;align=center;verticalAlign=middle;whiteSpace=wrap;rounded=0;fontStyle=1" vertex="1" parent="1">
          <mxGeometry x="1099" y="2314" width="60" height="30" as="geometry" />
        </mxCell>
        <mxCell id="b7OoH07M5vMIsxXB9R5--751" value="3" style="text;html=1;align=center;verticalAlign=middle;whiteSpace=wrap;rounded=0;fontStyle=1" vertex="1" parent="1">
          <mxGeometry x="1178" y="2344" width="60" height="30" as="geometry" />
        </mxCell>
        <mxCell id="b7OoH07M5vMIsxXB9R5--752" value="4" style="text;html=1;align=center;verticalAlign=middle;whiteSpace=wrap;rounded=0;fontStyle=1" vertex="1" parent="1">
          <mxGeometry x="1151" y="2300" width="60" height="30" as="geometry" />
        </mxCell>
        <mxCell id="b7OoH07M5vMIsxXB9R5--753" value="5" style="text;html=1;align=center;verticalAlign=middle;whiteSpace=wrap;rounded=0;fontStyle=1" vertex="1" parent="1">
          <mxGeometry x="1228" y="2229" width="60" height="30" as="geometry" />
        </mxCell>
        <mxCell id="b7OoH07M5vMIsxXB9R5--754" value="7" style="text;html=1;align=center;verticalAlign=middle;whiteSpace=wrap;rounded=0;fontStyle=1" vertex="1" parent="1">
          <mxGeometry x="1369" y="2209" width="60" height="30" as="geometry" />
        </mxCell>
        <mxCell id="b7OoH07M5vMIsxXB9R5--755" value="3" style="text;html=1;align=center;verticalAlign=middle;whiteSpace=wrap;rounded=0;fontStyle=1" vertex="1" parent="1">
          <mxGeometry x="1367" y="2137" width="60" height="30" as="geometry" />
        </mxCell>
        <mxCell id="b7OoH07M5vMIsxXB9R5--756" value="2" style="text;html=1;align=center;verticalAlign=middle;whiteSpace=wrap;rounded=0;fontStyle=1" vertex="1" parent="1">
          <mxGeometry x="1253" y="2124" width="60" height="30" as="geometry" />
        </mxCell>
        <mxCell id="b7OoH07M5vMIsxXB9R5--757" value="4" style="text;html=1;align=center;verticalAlign=middle;whiteSpace=wrap;rounded=0;fontStyle=1" vertex="1" parent="1">
          <mxGeometry x="1261" y="2163" width="60" height="30" as="geometry" />
        </mxCell>
        <mxCell id="b7OoH07M5vMIsxXB9R5--758" value="1" style="text;html=1;align=center;verticalAlign=middle;whiteSpace=wrap;rounded=0;fontStyle=1" vertex="1" parent="1">
          <mxGeometry x="1365" y="2287" width="60" height="30" as="geometry" />
        </mxCell>
        <mxCell id="b7OoH07M5vMIsxXB9R5--759" value="" style="endArrow=none;dashed=1;html=1;dashPattern=1 3;strokeWidth=2;rounded=0;exitX=0.5;exitY=0;exitDx=0;exitDy=0;entryX=1;entryY=1;entryDx=0;entryDy=0;curved=1;" edge="1" parent="1" source="b7OoH07M5vMIsxXB9R5--721" target="b7OoH07M5vMIsxXB9R5--719">
          <mxGeometry width="50" height="50" relative="1" as="geometry">
            <mxPoint x="1200" y="2270" as="sourcePoint" />
            <mxPoint x="1250" y="2220" as="targetPoint" />
            <Array as="points">
              <mxPoint x="1250" y="2200" />
            </Array>
          </mxGeometry>
        </mxCell>
        <mxCell id="b7OoH07M5vMIsxXB9R5--760" value="" style="endArrow=none;dashed=1;html=1;dashPattern=1 3;strokeWidth=2;rounded=0;entryX=0;entryY=0;entryDx=0;entryDy=0;exitX=0.5;exitY=1;exitDx=0;exitDy=0;curved=1;" edge="1" parent="1" source="b7OoH07M5vMIsxXB9R5--722" target="b7OoH07M5vMIsxXB9R5--723">
          <mxGeometry width="50" height="50" relative="1" as="geometry">
            <mxPoint x="1370" y="2200" as="sourcePoint" />
            <mxPoint x="1371" y="2170" as="targetPoint" />
            <Array as="points">
              <mxPoint x="1370" y="2200" />
            </Array>
          </mxGeometry>
        </mxCell>
        <mxCell id="b7OoH07M5vMIsxXB9R5--761" value="" style="endArrow=none;dashed=1;html=1;dashPattern=1 3;strokeWidth=2;rounded=0;exitX=0.5;exitY=1;exitDx=0;exitDy=0;entryX=0;entryY=0.5;entryDx=0;entryDy=0;curved=1;" edge="1" parent="1" source="b7OoH07M5vMIsxXB9R5--712" target="b7OoH07M5vMIsxXB9R5--714">
          <mxGeometry width="50" height="50" relative="1" as="geometry">
            <mxPoint x="1200" y="2270" as="sourcePoint" />
            <mxPoint x="1250" y="2220" as="targetPoint" />
            <Array as="points">
              <mxPoint x="960" y="2360" />
            </Array>
          </mxGeometry>
        </mxCell>
        <mxCell id="b7OoH07M5vMIsxXB9R5--762" value="" style="endArrow=none;dashed=1;html=1;dashPattern=1 3;strokeWidth=2;rounded=0;exitX=1;exitY=1;exitDx=0;exitDy=0;entryX=1;entryY=0;entryDx=0;entryDy=0;curved=1;" edge="1" parent="1" source="b7OoH07M5vMIsxXB9R5--713" target="b7OoH07M5vMIsxXB9R5--715">
          <mxGeometry width="50" height="50" relative="1" as="geometry">
            <mxPoint x="1200" y="2270" as="sourcePoint" />
            <mxPoint x="1250" y="2220" as="targetPoint" />
            <Array as="points">
              <mxPoint x="1220" y="2330" />
            </Array>
          </mxGeometry>
        </mxCell>
        <mxCell id="b7OoH07M5vMIsxXB9R5--764" value="x1" style="ellipse;whiteSpace=wrap;html=1;aspect=fixed;fillColor=#ffe6cc;strokeColor=#d79b00;" vertex="1" parent="1">
          <mxGeometry x="919.48" y="2680" width="40" height="40" as="geometry" />
        </mxCell>
        <mxCell id="b7OoH07M5vMIsxXB9R5--765" value="x7" style="ellipse;whiteSpace=wrap;html=1;aspect=fixed;" vertex="1" parent="1">
          <mxGeometry x="1159.48" y="2660" width="40" height="40" as="geometry" />
        </mxCell>
        <mxCell id="b7OoH07M5vMIsxXB9R5--766" value="x5" style="ellipse;whiteSpace=wrap;html=1;aspect=fixed;" vertex="1" parent="1">
          <mxGeometry x="1019.48" y="2740" width="40" height="40" as="geometry" />
        </mxCell>
        <mxCell id="b7OoH07M5vMIsxXB9R5--767" value="x6" style="ellipse;whiteSpace=wrap;html=1;aspect=fixed;" vertex="1" parent="1">
          <mxGeometry x="1119.48" y="2770" width="40" height="40" as="geometry" />
        </mxCell>
        <mxCell id="b7OoH07M5vMIsxXB9R5--768" value="x9" style="ellipse;whiteSpace=wrap;html=1;aspect=fixed;" vertex="1" parent="1">
          <mxGeometry x="1239.48" y="2760" width="40" height="40" as="geometry" />
        </mxCell>
        <mxCell id="b7OoH07M5vMIsxXB9R5--769" value="x2" style="ellipse;whiteSpace=wrap;html=1;aspect=fixed;" vertex="1" parent="1">
          <mxGeometry x="1009.48" y="2590" width="40" height="40" as="geometry" />
        </mxCell>
        <mxCell id="b7OoH07M5vMIsxXB9R5--770" value="x4" style="ellipse;whiteSpace=wrap;html=1;aspect=fixed;" vertex="1" parent="1">
          <mxGeometry x="1073.48" y="2640" width="40" height="40" as="geometry" />
        </mxCell>
        <mxCell id="b7OoH07M5vMIsxXB9R5--771" value="x3" style="ellipse;whiteSpace=wrap;html=1;aspect=fixed;" vertex="1" parent="1">
          <mxGeometry x="1173.48" y="2560" width="40" height="40" as="geometry" />
        </mxCell>
        <mxCell id="b7OoH07M5vMIsxXB9R5--772" value="x11" style="ellipse;whiteSpace=wrap;html=1;aspect=fixed;" vertex="1" parent="1">
          <mxGeometry x="1399.48" y="2740" width="40" height="40" as="geometry" />
        </mxCell>
        <mxCell id="b7OoH07M5vMIsxXB9R5--773" value="x8" style="ellipse;whiteSpace=wrap;html=1;aspect=fixed;" vertex="1" parent="1">
          <mxGeometry x="1279.48" y="2640" width="40" height="40" as="geometry" />
        </mxCell>
        <mxCell id="b7OoH07M5vMIsxXB9R5--774" value="x10" style="ellipse;whiteSpace=wrap;html=1;aspect=fixed;" vertex="1" parent="1">
          <mxGeometry x="1351" y="2533" width="40" height="40" as="geometry" />
        </mxCell>
        <mxCell id="b7OoH07M5vMIsxXB9R5--775" value="x12" style="ellipse;whiteSpace=wrap;html=1;aspect=fixed;" vertex="1" parent="1">
          <mxGeometry x="1439.48" y="2620" width="40" height="40" as="geometry" />
        </mxCell>
        <mxCell id="b7OoH07M5vMIsxXB9R5--816" value="1" style="text;html=1;align=center;verticalAlign=middle;whiteSpace=wrap;rounded=0;fontStyle=1" vertex="1" parent="1">
          <mxGeometry x="945" y="335" width="60" height="30" as="geometry" />
        </mxCell>
        <mxCell id="b7OoH07M5vMIsxXB9R5--817" value="3" style="text;html=1;align=center;verticalAlign=middle;whiteSpace=wrap;rounded=0;fontStyle=1" vertex="1" parent="1">
          <mxGeometry x="1005" y="338.5" width="60" height="30" as="geometry" />
        </mxCell>
        <mxCell id="b7OoH07M5vMIsxXB9R5--818" value="2" style="text;html=1;align=center;verticalAlign=middle;whiteSpace=wrap;rounded=0;fontStyle=1" vertex="1" parent="1">
          <mxGeometry x="986.48" y="393.5" width="60" height="30" as="geometry" />
        </mxCell>
        <mxCell id="b7OoH07M5vMIsxXB9R5--819" value="3" style="text;html=1;align=center;verticalAlign=middle;whiteSpace=wrap;rounded=0;fontStyle=1" vertex="1" parent="1">
          <mxGeometry x="959.48" y="426.5" width="60" height="30" as="geometry" />
        </mxCell>
        <mxCell id="b7OoH07M5vMIsxXB9R5--820" value="15" style="text;html=1;align=center;verticalAlign=middle;whiteSpace=wrap;rounded=0;fontStyle=1" vertex="1" parent="1">
          <mxGeometry x="1085.48" y="516.5" width="60" height="30" as="geometry" />
        </mxCell>
        <mxCell id="b7OoH07M5vMIsxXB9R5--822" value="3" style="text;html=1;align=center;verticalAlign=middle;whiteSpace=wrap;rounded=0;fontStyle=1" vertex="1" parent="1">
          <mxGeometry x="1032" y="386.5" width="60" height="30" as="geometry" />
        </mxCell>
        <mxCell id="b7OoH07M5vMIsxXB9R5--823" value="2" style="text;html=1;align=center;verticalAlign=middle;whiteSpace=wrap;rounded=0;fontStyle=1" vertex="1" parent="1">
          <mxGeometry x="1079.48" y="309.5" width="60" height="30" as="geometry" />
        </mxCell>
        <mxCell id="b7OoH07M5vMIsxXB9R5--824" value="5" style="text;html=1;align=center;verticalAlign=middle;whiteSpace=wrap;rounded=0;fontStyle=1" vertex="1" parent="1">
          <mxGeometry x="1134" y="259" width="60" height="30" as="geometry" />
        </mxCell>
        <mxCell id="b7OoH07M5vMIsxXB9R5--825" value="3" style="text;html=1;align=center;verticalAlign=middle;whiteSpace=wrap;rounded=0;fontStyle=1" vertex="1" parent="1">
          <mxGeometry x="1171.48" y="313.5" width="60" height="30" as="geometry" />
        </mxCell>
        <mxCell id="b7OoH07M5vMIsxXB9R5--826" value="2" style="text;html=1;align=center;verticalAlign=middle;whiteSpace=wrap;rounded=0;fontStyle=1" vertex="1" parent="1">
          <mxGeometry x="1139.48" y="423.5" width="60" height="30" as="geometry" />
        </mxCell>
        <mxCell id="b7OoH07M5vMIsxXB9R5--827" value="3" style="text;html=1;align=center;verticalAlign=middle;whiteSpace=wrap;rounded=0;fontStyle=1" vertex="1" parent="1">
          <mxGeometry x="1218.48" y="453.5" width="60" height="30" as="geometry" />
        </mxCell>
        <mxCell id="b7OoH07M5vMIsxXB9R5--828" value="4" style="text;html=1;align=center;verticalAlign=middle;whiteSpace=wrap;rounded=0;fontStyle=1" vertex="1" parent="1">
          <mxGeometry x="1191.48" y="409.5" width="60" height="30" as="geometry" />
        </mxCell>
        <mxCell id="b7OoH07M5vMIsxXB9R5--829" value="5" style="text;html=1;align=center;verticalAlign=middle;whiteSpace=wrap;rounded=0;fontStyle=1" vertex="1" parent="1">
          <mxGeometry x="1259.48" y="335" width="60" height="30" as="geometry" />
        </mxCell>
        <mxCell id="b7OoH07M5vMIsxXB9R5--830" value="7" style="text;html=1;align=center;verticalAlign=middle;whiteSpace=wrap;rounded=0;fontStyle=1" vertex="1" parent="1">
          <mxGeometry x="1405" y="319" width="60" height="30" as="geometry" />
        </mxCell>
        <mxCell id="b7OoH07M5vMIsxXB9R5--831" value="3" style="text;html=1;align=center;verticalAlign=middle;whiteSpace=wrap;rounded=0;fontStyle=1" vertex="1" parent="1">
          <mxGeometry x="1407.48" y="246.5" width="60" height="30" as="geometry" />
        </mxCell>
        <mxCell id="b7OoH07M5vMIsxXB9R5--832" value="2" style="text;html=1;align=center;verticalAlign=middle;whiteSpace=wrap;rounded=0;fontStyle=1" vertex="1" parent="1">
          <mxGeometry x="1301.48" y="234" width="60" height="30" as="geometry" />
        </mxCell>
        <mxCell id="b7OoH07M5vMIsxXB9R5--833" value="4" style="text;html=1;align=center;verticalAlign=middle;whiteSpace=wrap;rounded=0;fontStyle=1" vertex="1" parent="1">
          <mxGeometry x="1305" y="284" width="60" height="30" as="geometry" />
        </mxCell>
        <mxCell id="b7OoH07M5vMIsxXB9R5--834" value="1" style="text;html=1;align=center;verticalAlign=middle;whiteSpace=wrap;rounded=0;fontStyle=1" vertex="1" parent="1">
          <mxGeometry x="1405.48" y="396.5" width="60" height="30" as="geometry" />
        </mxCell>
        <mxCell id="b7OoH07M5vMIsxXB9R5--835" value="2" style="text;html=1;align=center;verticalAlign=middle;whiteSpace=wrap;rounded=0;fontStyle=1" vertex="1" parent="1">
          <mxGeometry x="1471" y="366.5" width="60" height="30" as="geometry" />
        </mxCell>
        <mxCell id="b7OoH07M5vMIsxXB9R5--836" value="7" style="text;html=1;align=center;verticalAlign=middle;whiteSpace=wrap;rounded=0;fontStyle=1" vertex="1" parent="1">
          <mxGeometry x="1291" y="414" width="60" height="30" as="geometry" />
        </mxCell>
        <mxCell id="b7OoH07M5vMIsxXB9R5--821" value="5" style="text;html=1;align=center;verticalAlign=middle;whiteSpace=wrap;rounded=0;fontStyle=1" vertex="1" parent="1">
          <mxGeometry x="1074" y="414" width="60" height="30" as="geometry" />
        </mxCell>
        <mxCell id="b7OoH07M5vMIsxXB9R5--839" value="x1" style="ellipse;whiteSpace=wrap;html=1;aspect=fixed;" vertex="1" parent="1">
          <mxGeometry x="883" y="3870" width="40" height="40" as="geometry" />
        </mxCell>
        <mxCell id="b7OoH07M5vMIsxXB9R5--840" value="x7" style="ellipse;whiteSpace=wrap;html=1;aspect=fixed;" vertex="1" parent="1">
          <mxGeometry x="1123" y="3850" width="40" height="40" as="geometry" />
        </mxCell>
        <mxCell id="b7OoH07M5vMIsxXB9R5--841" value="x5" style="ellipse;whiteSpace=wrap;html=1;aspect=fixed;" vertex="1" parent="1">
          <mxGeometry x="983" y="3930" width="40" height="40" as="geometry" />
        </mxCell>
        <mxCell id="b7OoH07M5vMIsxXB9R5--842" value="x6" style="ellipse;whiteSpace=wrap;html=1;aspect=fixed;" vertex="1" parent="1">
          <mxGeometry x="1083" y="3960" width="40" height="40" as="geometry" />
        </mxCell>
        <mxCell id="b7OoH07M5vMIsxXB9R5--843" value="x9" style="ellipse;whiteSpace=wrap;html=1;aspect=fixed;" vertex="1" parent="1">
          <mxGeometry x="1203" y="3950" width="40" height="40" as="geometry" />
        </mxCell>
        <mxCell id="b7OoH07M5vMIsxXB9R5--844" value="x2" style="ellipse;whiteSpace=wrap;html=1;aspect=fixed;" vertex="1" parent="1">
          <mxGeometry x="973" y="3780" width="40" height="40" as="geometry" />
        </mxCell>
        <mxCell id="b7OoH07M5vMIsxXB9R5--845" value="x4" style="ellipse;whiteSpace=wrap;html=1;aspect=fixed;" vertex="1" parent="1">
          <mxGeometry x="1037" y="3830" width="40" height="40" as="geometry" />
        </mxCell>
        <mxCell id="b7OoH07M5vMIsxXB9R5--846" value="x3" style="ellipse;whiteSpace=wrap;html=1;aspect=fixed;" vertex="1" parent="1">
          <mxGeometry x="1137" y="3750" width="40" height="40" as="geometry" />
        </mxCell>
        <mxCell id="b7OoH07M5vMIsxXB9R5--848" value="x11" style="ellipse;whiteSpace=wrap;html=1;aspect=fixed;fillColor=#ffe6cc;strokeColor=#d79b00;" vertex="1" parent="1">
          <mxGeometry x="1363" y="3930" width="40" height="40" as="geometry" />
        </mxCell>
        <mxCell id="b7OoH07M5vMIsxXB9R5--849" value="x8" style="ellipse;whiteSpace=wrap;html=1;aspect=fixed;" vertex="1" parent="1">
          <mxGeometry x="1243" y="3830" width="40" height="40" as="geometry" />
        </mxCell>
        <mxCell id="b7OoH07M5vMIsxXB9R5--850" value="x10" style="ellipse;whiteSpace=wrap;html=1;aspect=fixed;" vertex="1" parent="1">
          <mxGeometry x="1313" y="3720" width="40" height="40" as="geometry" />
        </mxCell>
        <mxCell id="b7OoH07M5vMIsxXB9R5--851" value="x12" style="ellipse;whiteSpace=wrap;html=1;aspect=fixed;" vertex="1" parent="1">
          <mxGeometry x="1403" y="3810" width="40" height="40" as="geometry" />
        </mxCell>
        <mxCell id="b7OoH07M5vMIsxXB9R5--912" value="x7" style="ellipse;whiteSpace=wrap;html=1;aspect=fixed;" vertex="1" parent="1">
          <mxGeometry x="2025" y="311.5" width="40" height="40" as="geometry" />
        </mxCell>
        <mxCell id="b7OoH07M5vMIsxXB9R5--914" value="x6" style="ellipse;whiteSpace=wrap;html=1;aspect=fixed;" vertex="1" parent="1">
          <mxGeometry x="1985" y="421.5" width="40" height="40" as="geometry" />
        </mxCell>
        <mxCell id="b7OoH07M5vMIsxXB9R5--915" value="x9" style="ellipse;whiteSpace=wrap;html=1;aspect=fixed;" vertex="1" parent="1">
          <mxGeometry x="2105" y="411.5" width="40" height="40" as="geometry" />
        </mxCell>
        <mxCell id="b7OoH07M5vMIsxXB9R5--918" value="x3" style="ellipse;whiteSpace=wrap;html=1;aspect=fixed;" vertex="1" parent="1">
          <mxGeometry x="2039" y="211.5" width="40" height="40" as="geometry" />
        </mxCell>
        <mxCell id="b7OoH07M5vMIsxXB9R5--921" value="x8" style="ellipse;whiteSpace=wrap;html=1;aspect=fixed;" vertex="1" parent="1">
          <mxGeometry x="2145" y="291.5" width="40" height="40" as="geometry" />
        </mxCell>
        <mxCell id="b7OoH07M5vMIsxXB9R5--922" value="x10" style="ellipse;whiteSpace=wrap;html=1;aspect=fixed;" vertex="1" parent="1">
          <mxGeometry x="2215" y="181.5" width="40" height="40" as="geometry" />
        </mxCell>
        <mxCell id="b7OoH07M5vMIsxXB9R5--923" value="x12" style="ellipse;whiteSpace=wrap;html=1;aspect=fixed;" vertex="1" parent="1">
          <mxGeometry x="2305" y="271.5" width="40" height="40" as="geometry" />
        </mxCell>
        <mxCell id="b7OoH07M5vMIsxXB9R5--928" value="v4" style="endArrow=classic;html=1;rounded=0;exitX=0.5;exitY=0;exitDx=0;exitDy=0;entryX=0.369;entryY=1.021;entryDx=0;entryDy=0;entryPerimeter=0;" edge="1" parent="1" source="b7OoH07M5vMIsxXB9R5--912" target="b7OoH07M5vMIsxXB9R5--918">
          <mxGeometry width="50" height="50" relative="1" as="geometry">
            <mxPoint x="1919" y="285.5" as="sourcePoint" />
            <mxPoint x="1955" y="307.5" as="targetPoint" />
          </mxGeometry>
        </mxCell>
        <mxCell id="b7OoH07M5vMIsxXB9R5--931" value="v8" style="endArrow=classic;html=1;rounded=0;exitX=1;exitY=0.5;exitDx=0;exitDy=0;entryX=0;entryY=0.5;entryDx=0;entryDy=0;" edge="1" parent="1" source="b7OoH07M5vMIsxXB9R5--914" target="b7OoH07M5vMIsxXB9R5--915">
          <mxGeometry width="50" height="50" relative="1" as="geometry">
            <mxPoint x="2045" y="301.5" as="sourcePoint" />
            <mxPoint x="2095" y="251.5" as="targetPoint" />
          </mxGeometry>
        </mxCell>
        <mxCell id="b7OoH07M5vMIsxXB9R5--932" value="v9" style="endArrow=classic;html=1;rounded=0;exitX=0.5;exitY=0;exitDx=0;exitDy=0;entryX=0;entryY=1;entryDx=0;entryDy=0;" edge="1" parent="1" source="b7OoH07M5vMIsxXB9R5--915" target="b7OoH07M5vMIsxXB9R5--921">
          <mxGeometry width="50" height="50" relative="1" as="geometry">
            <mxPoint x="2045" y="301.5" as="sourcePoint" />
            <mxPoint x="2095" y="251.5" as="targetPoint" />
          </mxGeometry>
        </mxCell>
        <mxCell id="b7OoH07M5vMIsxXB9R5--933" value="v10" style="endArrow=classic;html=1;rounded=0;exitX=0;exitY=0.5;exitDx=0;exitDy=0;entryX=1;entryY=0.5;entryDx=0;entryDy=0;" edge="1" parent="1" source="b7OoH07M5vMIsxXB9R5--921" target="b7OoH07M5vMIsxXB9R5--912">
          <mxGeometry width="50" height="50" relative="1" as="geometry">
            <mxPoint x="2045" y="301.5" as="sourcePoint" />
            <mxPoint x="2095" y="251.5" as="targetPoint" />
          </mxGeometry>
        </mxCell>
        <mxCell id="b7OoH07M5vMIsxXB9R5--934" value="v11" style="endArrow=classic;html=1;rounded=0;exitX=1;exitY=0;exitDx=0;exitDy=0;entryX=0.072;entryY=0.753;entryDx=0;entryDy=0;entryPerimeter=0;" edge="1" parent="1" source="b7OoH07M5vMIsxXB9R5--912" target="b7OoH07M5vMIsxXB9R5--922">
          <mxGeometry width="50" height="50" relative="1" as="geometry">
            <mxPoint x="2045" y="301.5" as="sourcePoint" />
            <mxPoint x="2095" y="251.5" as="targetPoint" />
          </mxGeometry>
        </mxCell>
        <mxCell id="b7OoH07M5vMIsxXB9R5--935" value="v12" style="endArrow=classic;html=1;rounded=0;exitX=1;exitY=1;exitDx=0;exitDy=0;entryX=0.5;entryY=0;entryDx=0;entryDy=0;" edge="1" parent="1" source="b7OoH07M5vMIsxXB9R5--922" target="b7OoH07M5vMIsxXB9R5--923">
          <mxGeometry width="50" height="50" relative="1" as="geometry">
            <mxPoint x="2045" y="301.5" as="sourcePoint" />
            <mxPoint x="2095" y="251.5" as="targetPoint" />
          </mxGeometry>
        </mxCell>
        <mxCell id="b7OoH07M5vMIsxXB9R5--938" value="v17" style="endArrow=classic;html=1;rounded=0;exitX=1;exitY=0.5;exitDx=0;exitDy=0;entryX=0;entryY=0.5;entryDx=0;entryDy=0;" edge="1" parent="1" source="b7OoH07M5vMIsxXB9R5--921" target="b7OoH07M5vMIsxXB9R5--923">
          <mxGeometry width="50" height="50" relative="1" as="geometry">
            <mxPoint x="2045" y="301.5" as="sourcePoint" />
            <mxPoint x="2095" y="251.5" as="targetPoint" />
          </mxGeometry>
        </mxCell>
        <mxCell id="b7OoH07M5vMIsxXB9R5--939" value="v16" style="endArrow=classic;html=1;rounded=0;exitX=0.99;exitY=0.366;exitDx=0;exitDy=0;exitPerimeter=0;entryX=0;entryY=0.5;entryDx=0;entryDy=0;" edge="1" parent="1" source="b7OoH07M5vMIsxXB9R5--918" target="b7OoH07M5vMIsxXB9R5--922">
          <mxGeometry width="50" height="50" relative="1" as="geometry">
            <mxPoint x="2045" y="301.5" as="sourcePoint" />
            <mxPoint x="2095" y="251.5" as="targetPoint" />
          </mxGeometry>
        </mxCell>
        <mxCell id="b7OoH07M5vMIsxXB9R5--940" value="v15" style="endArrow=classic;html=1;rounded=0;exitX=0.5;exitY=1;exitDx=0;exitDy=0;entryX=0.771;entryY=0.029;entryDx=0;entryDy=0;entryPerimeter=0;" edge="1" parent="1" source="b7OoH07M5vMIsxXB9R5--912" target="b7OoH07M5vMIsxXB9R5--914">
          <mxGeometry width="50" height="50" relative="1" as="geometry">
            <mxPoint x="2045" y="301.5" as="sourcePoint" />
            <mxPoint x="2095" y="251.5" as="targetPoint" />
          </mxGeometry>
        </mxCell>
        <mxCell id="b7OoH07M5vMIsxXB9R5--952" value="3" style="text;html=1;align=center;verticalAlign=middle;whiteSpace=wrap;rounded=0;fontStyle=1" vertex="1" parent="1">
          <mxGeometry x="2005.48" y="271" width="60" height="30" as="geometry" />
        </mxCell>
        <mxCell id="b7OoH07M5vMIsxXB9R5--953" value="2" style="text;html=1;align=center;verticalAlign=middle;whiteSpace=wrap;rounded=0;fontStyle=1" vertex="1" parent="1">
          <mxGeometry x="1973.48" y="381" width="60" height="30" as="geometry" />
        </mxCell>
        <mxCell id="b7OoH07M5vMIsxXB9R5--954" value="3" style="text;html=1;align=center;verticalAlign=middle;whiteSpace=wrap;rounded=0;fontStyle=1" vertex="1" parent="1">
          <mxGeometry x="2052.48" y="411" width="60" height="30" as="geometry" />
        </mxCell>
        <mxCell id="b7OoH07M5vMIsxXB9R5--955" value="4" style="text;html=1;align=center;verticalAlign=middle;whiteSpace=wrap;rounded=0;fontStyle=1" vertex="1" parent="1">
          <mxGeometry x="2025.48" y="367" width="60" height="30" as="geometry" />
        </mxCell>
        <mxCell id="b7OoH07M5vMIsxXB9R5--956" value="5" style="text;html=1;align=center;verticalAlign=middle;whiteSpace=wrap;rounded=0;fontStyle=1" vertex="1" parent="1">
          <mxGeometry x="2093.48" y="292.5" width="60" height="30" as="geometry" />
        </mxCell>
        <mxCell id="b7OoH07M5vMIsxXB9R5--957" value="7" style="text;html=1;align=center;verticalAlign=middle;whiteSpace=wrap;rounded=0;fontStyle=1" vertex="1" parent="1">
          <mxGeometry x="2239" y="276.5" width="60" height="30" as="geometry" />
        </mxCell>
        <mxCell id="b7OoH07M5vMIsxXB9R5--958" value="3" style="text;html=1;align=center;verticalAlign=middle;whiteSpace=wrap;rounded=0;fontStyle=1" vertex="1" parent="1">
          <mxGeometry x="2241.48" y="204" width="60" height="30" as="geometry" />
        </mxCell>
        <mxCell id="b7OoH07M5vMIsxXB9R5--959" value="2" style="text;html=1;align=center;verticalAlign=middle;whiteSpace=wrap;rounded=0;fontStyle=1" vertex="1" parent="1">
          <mxGeometry x="2135.48" y="191.5" width="60" height="30" as="geometry" />
        </mxCell>
        <mxCell id="b7OoH07M5vMIsxXB9R5--960" value="4" style="text;html=1;align=center;verticalAlign=middle;whiteSpace=wrap;rounded=0;fontStyle=1" vertex="1" parent="1">
          <mxGeometry x="2139" y="241.5" width="60" height="30" as="geometry" />
        </mxCell>
        <mxCell id="b7OoH07M5vMIsxXB9R5--963" value="7" style="text;html=1;align=center;verticalAlign=middle;whiteSpace=wrap;rounded=0;fontStyle=1" vertex="1" parent="1">
          <mxGeometry x="2125" y="371.5" width="60" height="30" as="geometry" />
        </mxCell>
      </root>
    </mxGraphModel>
  </diagram>
</mxfile>
